<?xml version="1.0" encoding="UTF-8" standalone="no"?><!DOCTYPE svg PUBLIC "-//W3C//DTD SVG 1.1//EN" "http://www.w3.org/Graphics/SVG/1.1/DTD/svg11.dtd"><svg width="100%" height="100%" viewBox="0 0 289 139" version="1.1" xmlns="http://www.w3.org/2000/svg" xmlns:xlink="http://www.w3.org/1999/xlink" xml:space="preserve" xmlns:serif="http://www.serif.com/" style="fill-rule:evenodd;clip-rule:evenodd;stroke-linejoin:round;stroke-miterlimit:2;"><g><rect x="-0" y="0" width="288" height="96" style="fill:#92d050;"/><path d="M88.256,71.414c-3.04,0 -5.624,-0.512 -7.752,-1.536c-2.128,-1.024 -3.848,-2.392 -5.16,-4.104c-1.312,-1.712 -2.272,-3.608 -2.88,-5.688c-0.608,-2.08 -0.912,-4.16 -0.912,-6.24c0,-2.016 0.344,-4.056 1.032,-6.12c0.688,-2.064 1.728,-3.96 3.12,-5.688c1.392,-1.728 3.144,-3.12 5.256,-4.176c2.112,-1.056 4.592,-1.584 7.44,-1.584c2.912,0 5.424,0.528 7.536,1.584c2.112,1.056 3.84,2.456 5.184,4.2c1.344,1.744 2.344,3.64 3,5.688c0.656,2.048 0.984,4.08 0.984,6.096c0,1.984 -0.344,4 -1.032,6.048c-0.688,2.048 -1.728,3.944 -3.12,5.688c-1.392,1.744 -3.144,3.152 -5.256,4.224c-2.112,1.072 -4.592,1.608 -7.44,1.608Zm0.528,-3.504c1.664,0 3.056,-0.408 4.176,-1.224c1.12,-0.816 2.016,-1.88 2.688,-3.192c0.672,-1.312 1.152,-2.744 1.44,-4.296c0.288,-1.552 0.432,-3.064 0.432,-4.536c0,-2.208 -0.192,-4.224 -0.576,-6.048c-0.384,-1.824 -0.976,-3.4 -1.776,-4.728c-0.8,-1.328 -1.816,-2.352 -3.048,-3.072c-1.232,-0.72 -2.68,-1.064 -4.344,-1.032c-1.632,0.032 -3.008,0.472 -4.128,1.32c-1.12,0.848 -2.016,1.936 -2.688,3.264c-0.672,1.328 -1.152,2.776 -1.44,4.344c-0.288,1.568 -0.432,3.088 -0.432,4.56c0,1.504 0.168,3.104 0.504,4.8c0.336,1.696 0.872,3.296 1.608,4.8c0.736,1.504 1.728,2.72 2.976,3.648c1.248,0.928 2.784,1.392 4.608,1.392Z" style="fill:#fbfbff;fill-rule:nonzero;"/><path d="M128.576,47.798c-0.288,-1.792 -0.8,-3.288 -1.536,-4.488c-0.736,-1.2 -1.672,-2.104 -2.808,-2.712c-1.136,-0.608 -2.456,-0.896 -3.96,-0.864c-1.376,0 -2.584,0.384 -3.624,1.152c-1.04,0.768 -1.56,1.76 -1.56,2.976c0,0.992 0.28,1.856 0.84,2.592c0.56,0.736 1.416,1.424 2.568,2.064c1.152,0.64 2.608,1.328 4.368,2.064c1.216,0.48 2.464,1.04 3.744,1.68c1.28,0.64 2.464,1.4 3.552,2.28c1.088,0.88 1.968,1.904 2.64,3.072c0.672,1.168 1.008,2.536 1.008,4.104c0,1.888 -0.512,3.568 -1.536,5.04c-1.024,1.472 -2.456,2.616 -4.296,3.432c-1.84,0.816 -3.992,1.224 -6.456,1.224c-1.28,0 -2.664,-0.2 -4.152,-0.6c-1.488,-0.4 -2.888,-0.984 -4.2,-1.752l0.144,2.016l-3.696,0l0,-11.232l3.168,0c0.448,2.688 1.48,4.712 3.096,6.072c1.616,1.36 3.544,2.04 5.784,2.04c1.152,0 2.16,-0.208 3.024,-0.624c0.864,-0.416 1.536,-0.968 2.016,-1.656c0.48,-0.688 0.72,-1.432 0.72,-2.232c0,-1.12 -0.392,-2.048 -1.176,-2.784c-0.784,-0.736 -1.76,-1.36 -2.928,-1.872c-1.168,-0.512 -2.36,-1.008 -3.576,-1.488c-1.536,-0.64 -2.968,-1.32 -4.296,-2.04c-1.328,-0.72 -2.488,-1.544 -3.48,-2.472c-0.992,-0.928 -1.76,-1.992 -2.304,-3.192c-0.544,-1.2 -0.816,-2.584 -0.816,-4.152c0,-0.992 0.192,-2.024 0.576,-3.096c0.384,-1.072 1.008,-2.064 1.872,-2.976c0.864,-0.912 2.016,-1.656 3.456,-2.232c1.44,-0.576 3.216,-0.864 5.328,-0.864c1.28,0 2.68,0.192 4.2,0.576c1.52,0.384 2.824,0.96 3.912,1.728l-0.192,-1.968l3.744,0l0,11.184l-3.168,0Z" style="fill:#fbfbff;fill-rule:nonzero;"/><path d="M137.888,67.478c0.736,-0.032 1.352,-0.128 1.848,-0.288c0.496,-0.16 0.88,-0.528 1.152,-1.104c0.272,-0.576 0.408,-1.504 0.408,-2.784l0,-18.384c0,-0.864 0.024,-1.696 0.072,-2.496c0.048,-0.8 0.088,-1.408 0.12,-1.824c-0.512,0.032 -1.152,0.056 -1.92,0.072c-0.768,0.016 -1.328,0.04 -1.68,0.072l0,-3.696l13.968,-0.048c3.168,0 5.912,0.472 8.232,1.416c2.32,0.944 4.224,2.216 5.712,3.816c1.488,1.6 2.6,3.384 3.336,5.352c0.736,1.968 1.104,3.944 1.104,5.928c0,1.952 -0.344,3.936 -1.032,5.952c-0.688,2.016 -1.768,3.864 -3.24,5.544c-1.472,1.68 -3.392,3.04 -5.76,4.08c-2.368,1.04 -5.232,1.56 -8.592,1.56l-13.728,0l0,-3.168Zm10.368,-4.704c0,0.864 -0.016,1.696 -0.048,2.496c-0.032,0.8 -0.08,1.408 -0.144,1.824c0.32,-0.032 0.76,-0.04 1.32,-0.024c0.56,0.016 1.144,0.032 1.752,0.048c0.608,0.016 1.104,0.024 1.488,0.024c1.76,0 3.272,-0.352 4.536,-1.056c1.264,-0.704 2.304,-1.656 3.12,-2.856c0.816,-1.2 1.416,-2.552 1.8,-4.056c0.384,-1.504 0.576,-3.056 0.576,-4.656c0,-3.264 -0.448,-5.936 -1.344,-8.016c-0.896,-2.08 -2.152,-3.632 -3.768,-4.656c-1.616,-1.024 -3.544,-1.568 -5.784,-1.632c-0.768,-0.032 -1.416,0.04 -1.944,0.216c-0.528,0.176 -0.92,0.552 -1.176,1.128c-0.256,0.576 -0.384,1.488 -0.384,2.736l0,18.48Z" style="fill:#fbfbff;fill-rule:nonzero;"/><path d="M190.784,71.126c-1.088,-2.656 -2.168,-5.296 -3.24,-7.92c-1.072,-2.624 -2.152,-5.248 -3.24,-7.872c-0.256,-0.608 -0.584,-1.464 -0.984,-2.568c-0.4,-1.104 -0.816,-2.376 -1.248,-3.816c-0.432,-1.44 -0.824,-2.928 -1.176,-4.464c0.064,1.792 0.112,3.48 0.144,5.064c0.032,1.584 0.032,3.096 0,4.536l0,2.16c0,0.736 -0.008,1.464 -0.024,2.184c-0.016,0.72 -0.024,1.44 -0.024,2.16l0,2.184c0,0.864 -0.024,1.696 -0.072,2.496c-0.048,0.8 -0.104,1.408 -0.168,1.824c0.544,-0.064 1.208,-0.104 1.992,-0.12c0.784,-0.016 1.336,-0.024 1.656,-0.024l0,3.696l-10.944,0l0,-3.168c0.736,-0.032 1.352,-0.128 1.848,-0.288c0.496,-0.16 0.88,-0.528 1.152,-1.104c0.272,-0.576 0.408,-1.504 0.408,-2.784l0.288,-18.384c0.032,-0.864 0.064,-1.696 0.096,-2.496c0.032,-0.8 0.064,-1.408 0.096,-1.824c-0.512,0.032 -1.152,0.056 -1.92,0.072c-0.768,0.016 -1.328,0.04 -1.68,0.072l0,-3.696l10.608,0l7.248,18.576c0.288,0.736 0.608,1.592 0.96,2.568c0.352,0.976 0.688,1.92 1.008,2.832c0.32,0.912 0.56,1.64 0.72,2.184l0.048,0c0.416,-1.12 0.8,-2.208 1.152,-3.264c0.352,-1.056 0.72,-2.08 1.104,-3.072c1.248,-3.328 2.488,-6.64 3.72,-9.936c1.232,-3.296 2.472,-6.592 3.72,-9.888l11.088,0l0,3.168c-0.704,0.032 -1.328,0.128 -1.872,0.288c-0.544,0.16 -0.952,0.52 -1.224,1.08c-0.272,0.56 -0.392,1.496 -0.36,2.808l0.72,18.384c0.064,0.864 0.064,1.696 0,2.496c-0.064,0.8 -0.128,1.408 -0.192,1.824c0.544,-0.064 1.208,-0.104 1.992,-0.12c0.784,-0.016 1.336,-0.024 1.656,-0.024l0,3.696l-13.344,0l0,-3.168c0.736,-0.032 1.368,-0.128 1.896,-0.288c0.528,-0.16 0.928,-0.528 1.2,-1.104c0.272,-0.576 0.376,-1.504 0.312,-2.784l-0.384,-10.176c0,-0.384 -0.032,-1.048 -0.096,-1.992c-0.064,-0.944 -0.12,-1.984 -0.168,-3.12c-0.048,-1.136 -0.088,-2.2 -0.12,-3.192c-0.096,0.224 -0.192,0.44 -0.288,0.648c-0.096,0.208 -0.176,0.424 -0.24,0.648l-9.36,25.008l-4.464,0Z" style="fill:#fbfbff;fill-rule:nonzero;"/></g><g><rect x="0.026" y="102.566" width="288" height="36" style="fill:#3434d8;"/><path d="M34.192,114.297c-3.409,-0 -5.471,2.734 -5.471,5.983c-0,3.265 2.046,5.983 5.471,5.983c3.393,-0 5.471,-2.702 5.471,-5.983c-0,-3.249 -2.062,-5.983 -5.471,-5.983Zm-3.473,5.983c-0,-2.161 0.992,-4.353 3.457,-4.353c2.465,-0 3.489,2.176 3.489,4.353c-0,2.176 -1.008,4.353 -3.473,4.353c-2.449,-0 -3.473,-2.193 -3.473,-4.353Z" style="fill:#fbfbff;fill-rule:nonzero;"/><path d="M45.6,117.497c-1.056,-0 -2.033,0.383 -2.561,1.342l-0.032,-0l0,-1.118l-1.726,-0l-0,11.326l1.822,-0l-0,-4.126l0.032,-0c0.56,0.926 1.729,1.294 2.769,1.294c2.48,-0 3.567,-2.142 3.567,-4.319c-0,-2.417 -1.279,-4.399 -3.871,-4.399Zm-2.561,4.367c0,-1.489 0.608,-2.929 2.305,-2.929c1.617,-0 2.305,1.552 2.305,2.929c-0,1.44 -0.64,2.913 -2.289,2.913c-1.617,-0 -2.321,-1.489 -2.321,-2.913Z" style="fill:#fbfbff;fill-rule:nonzero;"/><path d="M54.608,117.497c-2.465,-0 -3.999,1.998 -3.999,4.383c-0,2.513 1.438,4.335 4.047,4.335c1.809,-0 3.376,-1.039 3.743,-2.815l-1.726,-0c-0.336,0.961 -1.008,1.377 -2.017,1.377c-1.441,-0 -2.225,-1.089 -2.225,-2.45l6.08,-0c0.016,-0.208 0.032,-0.415 0.032,-0.623c-0,-2.289 -1.598,-4.207 -3.935,-4.207Zm-2.177,3.632c0.064,-1.217 0.88,-2.194 2.161,-2.194c1.249,-0 2.001,1.041 2.097,2.194l-4.258,-0Z" style="fill:#fbfbff;fill-rule:nonzero;"/><path d="M64.256,117.497c-1.056,-0 -2.001,0.511 -2.593,1.47l-0.032,-0.032l0,-1.214l-1.726,-0l-0,8.27l1.822,-0l-0,-4.928c-0,-1.072 0.72,-2.128 2.001,-2.128c1.249,-0 1.617,0.832 1.617,1.888l-0,5.168l1.822,-0l-0,-5.744c-0,-1.664 -1.007,-2.75 -2.911,-2.75Z" style="fill:#fbfbff;fill-rule:nonzero;"/><path d="M77.712,114.297c-2.081,-0 -4.175,1.039 -4.175,3.358c-0,1.489 0.863,2.497 2.67,2.945c2.129,0.544 2.625,0.688 3.266,0.896c0.592,0.192 0.944,0.688 0.944,1.408c-0,1.009 -0.88,1.729 -2.417,1.729c-1.745,-0 -2.881,-0.816 -2.897,-2.449l-1.998,0c0.048,2.625 1.903,4.079 4.767,4.079c2.689,-0 4.543,-1.327 4.543,-3.583c-0,-1.776 -1.391,-2.704 -2.366,-2.96l-3.057,-0.8c-0.977,-0.257 -1.457,-0.753 -1.457,-1.505c-0,-0.96 0.896,-1.488 2.097,-1.488c1.536,-0 2.337,0.656 2.465,2l-0,0.016l1.998,0c-0.016,-2.304 -1.902,-3.646 -4.383,-3.646Z" style="fill:#fbfbff;fill-rule:nonzero;"/><path d="M87.52,117.497c-2.321,-0 -3.631,0.943 -3.759,2.75l1.822,0c0.08,-0.832 0.705,-1.312 1.825,-1.312c1.137,-0 1.713,0.4 1.713,1.12c-0,0.64 -0.336,0.897 -1.441,1.025c-0.768,0.096 -1.456,0.176 -2.081,0.304c-1.231,0.256 -2.142,0.864 -2.142,2.417c-0,1.519 1.199,2.414 2.831,2.414c1.008,-0 2.209,-0.352 2.865,-1.007c0.128,0.687 0.607,1.007 1.406,1.007c0.208,-0 0.688,-0.08 1.152,-0.208l-0,-1.262c-0.128,0.032 -0.288,0.032 -0.384,0.032c-0.4,-0 -0.496,-0.144 -0.496,-0.576l-0,-4.354c-0,-1.407 -1.311,-2.35 -3.311,-2.35Zm-2.241,6.143c-0,-0.752 0.528,-1.184 1.729,-1.328c1.265,-0.16 1.505,-0.16 2.001,-0.464l-0,1.408c-0,0.897 -0.912,1.521 -2.161,1.521c-0.993,-0 -1.569,-0.448 -1.569,-1.137Z" style="fill:#fbfbff;fill-rule:nonzero;"/><rect x="92.849" y="114.569" width="1.822" height="11.422" style="fill:#fbfbff;fill-rule:nonzero;"/><path d="M100.256,117.497c-2.465,-0 -3.999,1.998 -3.999,4.383c0,2.513 1.438,4.335 4.047,4.335c1.809,-0 3.376,-1.039 3.743,-2.815l-1.726,-0c-0.336,0.961 -1.008,1.377 -2.017,1.377c-1.441,-0 -2.225,-1.089 -2.225,-2.45l6.08,-0c0.016,-0.208 0.032,-0.415 0.032,-0.623c0,-2.289 -1.598,-4.207 -3.935,-4.207Zm-2.177,3.632c0.064,-1.217 0.88,-2.194 2.161,-2.194c1.249,-0 2.001,1.041 2.097,2.194l-4.258,-0Z" style="fill:#fbfbff;fill-rule:nonzero;"/><path d="M113.824,114.297c-1.632,-0 -2.799,1.166 -2.799,2.718c0,0.688 0.176,1.248 1.151,2.497c-1.744,0.912 -2.623,1.968 -2.623,3.312c0,2.065 1.454,3.391 3.599,3.391c1.345,-0 2.352,-0.464 3.199,-1.486l0.016,-0l1.024,1.262l2.24,-0l-2.192,-2.656c0.416,-0.656 0.736,-1.488 0.896,-2.8l-1.6,-0c-0.064,0.56 -0.144,0.944 -0.352,1.536l-1.758,-2.144c1.359,-0.752 2.046,-1.744 2.046,-2.896c-0,-1.712 -1.23,-2.734 -2.847,-2.734Zm-1.169,2.622c-0,-0.736 0.528,-1.264 1.201,-1.264c0.721,-0 1.185,0.544 1.185,1.312c-0,0.72 -0.384,1.248 -1.345,1.857c-0.961,-1.137 -1.041,-1.425 -1.041,-1.905Zm-1.28,5.937c-0,-0.4 0.096,-0.752 0.288,-1.056c0.192,-0.304 0.689,-0.656 1.473,-1.088l2.241,2.785c-0.592,0.912 -1.216,1.28 -2.161,1.28c-1.137,-0 -1.841,-0.752 -1.841,-1.921Z" style="fill:#fbfbff;fill-rule:nonzero;"/><path d="M125.073,114.569l0,11.422l4.783,-0c3.057,-0 4.991,-2.078 4.991,-5.711c0,-3.569 -1.934,-5.711 -4.959,-5.711l-4.815,-0Zm1.998,9.792l0,-8.162l2.065,-0c2.961,-0 3.713,1.76 3.713,4.081c0,2.817 -1.152,4.081 -3.729,4.081l-2.049,-0Z" style="fill:#fbfbff;fill-rule:nonzero;"/><path d="M136.417,114.569l-0,1.726l1.822,-0l-0,-1.726l-1.822,-0Zm-0,3.152l-0,8.27l1.822,-0l-0,-8.27l-1.822,-0Z" style="fill:#fbfbff;fill-rule:nonzero;"/><path d="M143.408,117.497c-1.937,-0 -3.455,0.815 -3.455,2.366c-0,1.617 1.311,2.225 2.686,2.465c2.306,0.4 2.674,0.832 2.674,1.408c-0,0.721 -0.72,1.041 -1.841,1.041c-1.137,-0 -1.761,-0.464 -1.873,-1.441l-1.822,0c0.048,1.904 1.487,2.879 3.663,2.879c2.113,-0 3.695,-0.959 3.695,-2.687c-0,-1.28 -0.719,-2.08 -3.263,-2.544c-1.601,-0.305 -2.097,-0.625 -2.097,-1.201c-0,-0.544 0.608,-0.848 1.505,-0.848c0.992,-0 1.537,0.352 1.681,1.104l1.902,0c-0.176,-1.647 -1.486,-2.542 -3.455,-2.542Z" style="fill:#fbfbff;fill-rule:nonzero;"/><path d="M149.073,115.241l0,2.48l-1.376,-0l0,1.358l1.376,-0l0,4.77c0,1.663 0.543,2.222 2.286,2.222c0.256,-0 0.464,-0.016 1.184,-0.096l0,-1.406c-0.064,0.032 -0.4,0.064 -0.736,0.064c-0.704,-0 -0.912,-0.176 -0.912,-1.041l0,-4.513l1.648,-0l0,-1.358l-1.648,-0l0,-2.48l-1.822,-0Z" style="fill:#fbfbff;fill-rule:nonzero;"/><path d="M158.015,117.497c-0.928,-0 -2.16,0.767 -2.416,1.822l-0.032,-0l0,-1.598l-1.71,-0l0,8.27l1.822,-0l0,-3.999c0,-1.585 0.88,-2.769 2.24,-2.769c0.256,-0 0.512,0.032 0.784,0.08l0,-1.758c-0.272,-0.048 -0.336,-0.048 -0.688,-0.048Z" style="fill:#fbfbff;fill-rule:nonzero;"/><path d="M159.537,114.569l0,1.726l1.822,-0l0,-1.726l-1.822,-0Zm0,3.152l0,8.27l1.822,-0l0,-8.27l-1.822,-0Z" style="fill:#fbfbff;fill-rule:nonzero;"/><path d="M163.393,114.569l0,11.422l1.726,-0l0,-1.134l0.032,-0c0.592,1.07 1.729,1.358 2.865,1.358c2.464,-0 3.567,-2.094 3.567,-4.319c0,-2.497 -1.295,-4.399 -3.871,-4.399c-0.96,-0 -1.937,0.495 -2.465,1.294l-0.032,0l0,-4.222l-1.822,-0Zm1.758,7.295c0,-1.489 0.608,-2.929 2.305,-2.929c1.585,-0 2.305,1.536 2.305,2.929c0,1.44 -0.64,2.913 -2.289,2.913c-1.617,-0 -2.321,-1.489 -2.321,-2.913Z" style="fill:#fbfbff;fill-rule:nonzero;"/><path d="M173.121,117.721l0,5.328c0,2.095 0.959,3.166 3.071,3.166c0.944,-0 1.889,-0.527 2.369,-1.374l0.032,-0l-0,1.15l1.79,-0l0,-8.27l-1.822,-0l0,4.864c0,1.376 -0.672,2.192 -2.033,2.192c-1.121,-0 -1.585,-0.688 -1.585,-1.92l0,-5.136l-1.822,-0Z" style="fill:#fbfbff;fill-rule:nonzero;"/><path d="M182.849,115.241l0,2.48l-1.376,-0l0,1.358l1.376,-0l0,4.77c0,1.663 0.543,2.222 2.286,2.222c0.256,-0 0.464,-0.016 1.184,-0.096l0,-1.406c-0.064,0.032 -0.4,0.064 -0.736,0.064c-0.704,-0 -0.912,-0.176 -0.912,-1.041l0,-4.513l1.648,-0l0,-1.358l-1.648,-0l0,-2.48l-1.822,-0Z" style="fill:#fbfbff;fill-rule:nonzero;"/><path d="M187.681,114.569l0,1.726l1.822,-0l0,-1.726l-1.822,-0Zm0,3.152l0,8.27l1.822,-0l0,-8.27l-1.822,-0Z" style="fill:#fbfbff;fill-rule:nonzero;"/><path d="M195.28,117.497c-2.593,-0 -4.175,1.822 -4.175,4.351c0,2.593 1.582,4.367 4.175,4.367c2.593,-0 4.175,-1.79 4.175,-4.367c0,-2.529 -1.582,-4.351 -4.175,-4.351Zm-2.353,4.351c0,-1.457 0.752,-2.913 2.337,-2.913c1.649,-0 2.369,1.44 2.369,2.913c0,1.44 -0.736,2.929 -2.353,2.929c-1.617,-0 -2.353,-1.505 -2.353,-2.929Z" style="fill:#fbfbff;fill-rule:nonzero;"/><path d="M205.328,117.497c-1.056,-0 -2.001,0.511 -2.593,1.47l-0.032,-0.032l0,-1.214l-1.726,-0l0,8.27l1.822,-0l0,-4.928c0,-1.072 0.72,-2.128 2.001,-2.128c1.249,-0 1.617,0.832 1.617,1.888l0,5.168l1.822,-0l0,-5.744c0,-1.664 -1.007,-2.75 -2.911,-2.75Z" style="fill:#fbfbff;fill-rule:nonzero;"/><path d="M214.833,114.569l0,11.422l1.902,-0l0,-8.816l0.032,-0l3.169,8.816l1.648,-0l3.169,-8.816l0.032,-0l0,8.816l1.902,-0l0,-11.422l-2.782,-0l-3.073,8.942l-0.032,-0l-3.153,-8.942l-2.814,-0Z" style="fill:#fbfbff;fill-rule:nonzero;"/><path d="M232.624,117.497c-2.593,-0 -4.175,1.822 -4.175,4.351c0,2.593 1.582,4.367 4.175,4.367c2.593,-0 4.175,-1.79 4.175,-4.367c0,-2.529 -1.582,-4.351 -4.175,-4.351Zm-2.353,4.351c0,-1.457 0.752,-2.913 2.337,-2.913c1.649,-0 2.369,1.44 2.369,2.913c0,1.44 -0.736,2.929 -2.353,2.929c-1.617,-0 -2.353,-1.505 -2.353,-2.929Z" style="fill:#fbfbff;fill-rule:nonzero;"/><path d="M244.289,114.569l0,4.222l-0.032,0c-0.496,-0.799 -1.569,-1.294 -2.753,-1.294c-2.049,-0 -3.583,1.566 -3.583,4.303c0,2.737 1.502,4.415 3.871,4.415c1.12,-0 2.065,-0.432 2.561,-1.342l0.032,-0l-0,1.118l1.726,-0l0,-11.422l-1.822,-0Zm-4.546,7.375c0,-1.761 0.848,-3.009 2.305,-3.009c1.457,-0 2.305,1.12 2.305,2.913c-0,1.648 -0.864,2.929 -2.321,2.929c-1.425,-0 -2.289,-1.233 -2.289,-2.833Z" style="fill:#fbfbff;fill-rule:nonzero;"/><path d="M251.696,117.497c-2.465,-0 -3.999,1.998 -3.999,4.383c0,2.513 1.438,4.335 4.047,4.335c1.809,-0 3.376,-1.039 3.743,-2.815l-1.726,-0c-0.336,0.961 -1.008,1.377 -2.017,1.377c-1.441,-0 -2.225,-1.089 -2.225,-2.45l6.08,-0c0.016,-0.208 0.032,-0.415 0.032,-0.623c0,-2.289 -1.598,-4.207 -3.935,-4.207Zm-2.177,3.632c0.064,-1.217 0.88,-2.194 2.161,-2.194c1.249,-0 2.001,1.041 2.097,2.194l-4.258,-0Z" style="fill:#fbfbff;fill-rule:nonzero;"/><rect x="257.041" y="114.569" width="1.822" height="11.422" style="fill:#fbfbff;fill-rule:nonzero;"/></g><rect x="-0" y="96.482" width="288" height="5.76" style="fill:#fff;fill-opacity:0.3;"/></svg>