<?xml version="1.0" encoding="UTF-8" standalone="no"?><svg xmlns="http://www.w3.org/2000/svg" xmlns:xlink="http://www.w3.org/1999/xlink" contentScriptType="application/ecmascript" contentStyleType="text/css" height="821px" preserveAspectRatio="none" style="width:2046px;height:821px;" version="1.1" viewBox="0 0 2046 821" width="2046px" zoomAndPan="magnify"><defs><filter height="300%" id="f56wdrh3u0iah" width="300%" x="-1" y="-1"><feGaussianBlur result="blurOut" stdDeviation="2.0"/><feColorMatrix in="blurOut" result="blurOut2" type="matrix" values="0 0 0 0 0 0 0 0 0 0 0 0 0 0 0 0 0 0 .4 0"/><feOffset dx="4.0" dy="4.0" in="blurOut2" result="blurOut3"/><feBlend in="SourceGraphic" in2="blurOut3" mode="normal"/></filter></defs><g><text fill="#000000" font-family="sans-serif" font-size="18" lengthAdjust="spacing" textLength="193" x="919.25" y="16.708">Bookings Data Model</text><!--MD5=[18f5b4ccae6e62f3670d3aa352beb4cd]
class Trip--><rect codeLine="3" fill="#FAF0E6" filter="url(#f56wdrh3u0iah)" height="48" id="Trip" style="stroke:#A80036;stroke-width:1.5;" width="55" x="7" y="572.7551"/><ellipse cx="22" cy="588.7551" fill="#DA70D6" rx="11" ry="11" style="stroke:#A80036;stroke-width:1.0;"/><path d="M20.2969,589.9739 L21.9375,589.9739 C22.6406,590.2395 24.2031,592.0989 25.0625,593.7551 L26.4063,593.7551 C26.7344,593.7551 27,593.7083 27.1094,593.6301 C27.375,593.4895 27.5156,593.1926 27.5156,592.9114 C27.5156,592.6301 27.3906,592.3645 27.1875,592.2083 C27.0156,592.0833 26.8281,592.052 26.4063,592.052 L26.1875,592.052 C25.4688,590.9114 24.8438,590.1301 24.0313,589.4426 C25.2813,588.7551 25.875,587.9426 25.875,586.8645 C25.875,585.0833 24.3438,583.8489 22.1406,583.8489 L18.3438,583.8489 C17.9063,583.8489 17.7813,583.8645 17.625,583.9583 C17.375,584.1145 17.2188,584.4114 17.2188,584.6926 C17.2188,584.9739 17.3594,585.2239 17.5781,585.3958 C17.7344,585.5051 17.9219,585.5364 18.3438,585.5364 L18.5938,585.5364 L18.5938,592.052 L18.3438,592.052 C17.9375,592.052 17.7813,592.0676 17.625,592.177 C17.375,592.3333 17.2188,592.6145 17.2188,592.9114 C17.2188,593.1614 17.3594,593.427 17.5781,593.5833 C17.7188,593.7083 17.9531,593.7551 18.3438,593.7551 L20.8906,593.7551 C21.2344,593.7551 21.4844,593.7083 21.6094,593.6301 C21.8594,593.4895 22.0156,593.1926 22.0156,592.9114 C22.0156,592.6301 21.875,592.3801 21.6719,592.2083 C21.5,592.0833 21.3594,592.052 20.8906,592.052 L20.2969,592.052 L20.2969,589.9739 Z M20.2969,588.2864 L20.2969,585.5364 L22.2031,585.5364 C23.2969,585.5364 24.0781,586.0833 24.0781,586.8176 C24.0781,587.6614 23.0156,588.2864 21.5938,588.2864 L20.2969,588.2864 Z " fill="#000000"/><text fill="#000000" font-family="sans-serif" font-size="12" lengthAdjust="spacing" textLength="23" x="36" y="592.9094">Trip</text><line style="stroke:#A80036;stroke-width:1.5;" x1="8" x2="61" y1="604.7551" y2="604.7551"/><line style="stroke:#A80036;stroke-width:1.5;" x1="8" x2="61" y1="612.7551" y2="612.7551"/><!--MD5=[220eb97dd738422dcfb96be6c83c4129]
class Segment--><rect codeLine="6" fill="#FAF0E6" filter="url(#f56wdrh3u0iah)" height="48" id="Segment" style="stroke:#A80036;stroke-width:1.5;" width="86" x="97.5" y="572.7551"/><ellipse cx="112.5" cy="588.7551" fill="#008000" rx="11" ry="11" style="stroke:#A80036;stroke-width:1.0;"/><path d="M110.0156,592.052 C109.3594,592.052 108.9688,592.3645 108.9688,592.9114 C108.9688,593.1614 109.1094,593.427 109.3281,593.5833 C109.4844,593.7083 109.7031,593.7551 110.1094,593.7551 L113.5781,593.7551 C115.0625,593.7551 116.0781,593.3645 116.9063,592.4739 C117.6875,591.6614 118.0938,590.6145 118.0938,589.3645 L118.0938,588.5676 C118.0938,585.8958 116.2031,583.8489 113.7188,583.8489 L110.1094,583.8489 C109.6563,583.8489 109.5313,583.8645 109.375,583.9583 C109.125,584.1145 108.9688,584.4114 108.9688,584.6926 C108.9688,585.2395 109.3438,585.5364 110.0156,585.5364 L110.0156,592.052 Z M111.7031,592.052 L111.7031,585.5364 L113.5781,585.5364 C114.4844,585.5364 115.125,585.8176 115.6406,586.4114 C116.125,586.9895 116.4063,587.7395 116.4063,588.5364 L116.4063,589.3176 C116.4063,590.1926 116.1719,590.7864 115.7031,591.302 C115.1719,591.8489 114.6094,592.052 113.5938,592.052 L111.7031,592.052 Z " fill="#000000"/><text fill="#000000" font-family="sans-serif" font-size="12" lengthAdjust="spacing" textLength="54" x="126.5" y="592.9094">Segment</text><line style="stroke:#A80036;stroke-width:1.5;" x1="98.5" x2="182.5" y1="604.7551" y2="604.7551"/><line style="stroke:#A80036;stroke-width:1.5;" x1="98.5" x2="182.5" y1="612.7551" y2="612.7551"/><!--MD5=[4c878308a71f4293fce0e67c4a286042]
class BookedOffer--><rect codeLine="9" fill="#E0FFFF" filter="url(#f56wdrh3u0iah)" height="188.8516" id="BookedOffer" style="stroke:#A80036;stroke-width:1.5;" width="285" x="285" y="280.2551"/><ellipse cx="384.25" cy="296.2551" fill="#DA70D6" rx="11" ry="11" style="stroke:#A80036;stroke-width:1.0;"/><path d="M382.5469,297.4739 L384.1875,297.4739 C384.8906,297.7395 386.4531,299.5989 387.3125,301.2551 L388.6563,301.2551 C388.9844,301.2551 389.25,301.2083 389.3594,301.1301 C389.625,300.9895 389.7656,300.6926 389.7656,300.4114 C389.7656,300.1301 389.6406,299.8645 389.4375,299.7083 C389.2656,299.5833 389.0781,299.552 388.6563,299.552 L388.4375,299.552 C387.7188,298.4114 387.0938,297.6301 386.2813,296.9426 C387.5313,296.2551 388.125,295.4426 388.125,294.3645 C388.125,292.5833 386.5938,291.3489 384.3906,291.3489 L380.5938,291.3489 C380.1563,291.3489 380.0313,291.3645 379.875,291.4583 C379.625,291.6145 379.4688,291.9114 379.4688,292.1926 C379.4688,292.4739 379.6094,292.7239 379.8281,292.8958 C379.9844,293.0051 380.1719,293.0364 380.5938,293.0364 L380.8438,293.0364 L380.8438,299.552 L380.5938,299.552 C380.1875,299.552 380.0313,299.5676 379.875,299.677 C379.625,299.8333 379.4688,300.1145 379.4688,300.4114 C379.4688,300.6614 379.6094,300.927 379.8281,301.0833 C379.9688,301.2083 380.2031,301.2551 380.5938,301.2551 L383.1406,301.2551 C383.4844,301.2551 383.7344,301.2083 383.8594,301.1301 C384.1094,300.9895 384.2656,300.6926 384.2656,300.4114 C384.2656,300.1301 384.125,299.8801 383.9219,299.7083 C383.75,299.5833 383.6094,299.552 383.1406,299.552 L382.5469,299.552 L382.5469,297.4739 Z M382.5469,295.7864 L382.5469,293.0364 L384.4531,293.0364 C385.5469,293.0364 386.3281,293.5833 386.3281,294.3176 C386.3281,295.1614 385.2656,295.7864 383.8438,295.7864 L382.5469,295.7864 Z " fill="#000000"/><text fill="#000000" font-family="sans-serif" font-size="12" lengthAdjust="spacing" textLength="78" x="404.75" y="300.4094">BookedOffer</text><line style="stroke:#A80036;stroke-width:1.5;" x1="286" x2="569" y1="312.2551" y2="312.2551"/><text fill="#000000" font-family="sans-serif" font-size="11" lengthAdjust="spacing" textLength="10" x="291" y="326.4656">id</text><text fill="#000000" font-family="sans-serif" font-size="11" lengthAdjust="spacing" textLength="107" x="291" y="339.2703">minimalPrice: price</text><text fill="#000000" font-family="sans-serif" font-size="11" lengthAdjust="spacing" textLength="204" x="291" y="352.0749">overallServiceClass: FIRST/SECOND</text><text fill="#000000" font-family="sans-serif" font-size="11" lengthAdjust="spacing" textLength="273" x="291" y="364.8796">overallServiceRank: FIRST_A,B,C/SECOND_A,B,C</text><text fill="#000000" font-family="sans-serif" font-size="11" lengthAdjust="spacing" textLength="193" x="291" y="377.6843">overallFlexibility: FULL/SEMI/NONE</text><text fill="#000000" font-family="sans-serif" font-size="11" lengthAdjust="spacing" textLength="88" x="291" y="390.489">validFrom: date</text><text fill="#000000" font-family="sans-serif" font-size="11" lengthAdjust="spacing" textLength="74" x="291" y="403.2937">validTo: date</text><text fill="#000000" font-family="sans-serif" font-size="11" lengthAdjust="spacing" textLength="163" x="291" y="416.0984">requestedInformation: String</text><text fill="#000000" font-family="sans-serif" font-size="11" lengthAdjust="spacing" textLength="127" x="291" y="428.9031">OfferParts: [OfferParts]</text><text fill="#000000" font-family="sans-serif" font-size="11" lengthAdjust="spacing" textLength="73" x="291" y="441.7078">Fares:[Fares]</text><text fill="#000000" font-family="sans-serif" font-size="11" lengthAdjust="spacing" textLength="49" x="291" y="454.5124">Trip: Trip</text><line style="stroke:#A80036;stroke-width:1.5;" x1="286" x2="569" y1="461.1067" y2="461.1067"/><!--MD5=[09621ff4d68a17d125eeba407bb0f414]
class ExchangeOffer--><rect codeLine="23" fill="#90EE90" filter="url(#f56wdrh3u0iah)" height="99.2188" id="ExchangeOffer" style="stroke:#A80036;stroke-width:1.5;" width="121" x="1573" y="88.2551"/><ellipse cx="1588" cy="104.2551" fill="#DA70D6" rx="11" ry="11" style="stroke:#A80036;stroke-width:1.0;"/><path d="M1586.2969,105.4739 L1587.9375,105.4739 C1588.6406,105.7395 1590.2031,107.5989 1591.0625,109.2551 L1592.4063,109.2551 C1592.7344,109.2551 1593,109.2083 1593.1094,109.1301 C1593.375,108.9895 1593.5156,108.6926 1593.5156,108.4114 C1593.5156,108.1301 1593.3906,107.8645 1593.1875,107.7083 C1593.0156,107.5833 1592.8281,107.552 1592.4063,107.552 L1592.1875,107.552 C1591.4688,106.4114 1590.8438,105.6301 1590.0313,104.9426 C1591.2813,104.2551 1591.875,103.4426 1591.875,102.3645 C1591.875,100.5833 1590.3438,99.3489 1588.1406,99.3489 L1584.3438,99.3489 C1583.9063,99.3489 1583.7813,99.3645 1583.625,99.4583 C1583.375,99.6145 1583.2188,99.9114 1583.2188,100.1926 C1583.2188,100.4739 1583.3594,100.7239 1583.5781,100.8958 C1583.7344,101.0051 1583.9219,101.0364 1584.3438,101.0364 L1584.5938,101.0364 L1584.5938,107.552 L1584.3438,107.552 C1583.9375,107.552 1583.7813,107.5676 1583.625,107.677 C1583.375,107.8333 1583.2188,108.1145 1583.2188,108.4114 C1583.2188,108.6614 1583.3594,108.927 1583.5781,109.0833 C1583.7188,109.2083 1583.9531,109.2551 1584.3438,109.2551 L1586.8906,109.2551 C1587.2344,109.2551 1587.4844,109.2083 1587.6094,109.1301 C1587.8594,108.9895 1588.0156,108.6926 1588.0156,108.4114 C1588.0156,108.1301 1587.875,107.8801 1587.6719,107.7083 C1587.5,107.5833 1587.3594,107.552 1586.8906,107.552 L1586.2969,107.552 L1586.2969,105.4739 Z M1586.2969,103.7864 L1586.2969,101.0364 L1588.2031,101.0364 C1589.2969,101.0364 1590.0781,101.5833 1590.0781,102.3176 C1590.0781,103.1614 1589.0156,103.7864 1587.5938,103.7864 L1586.2969,103.7864 Z " fill="#000000"/><text fill="#000000" font-family="sans-serif" font-size="12" lengthAdjust="spacing" textLength="89" x="1602" y="108.4094">ExchangeOffer</text><line style="stroke:#A80036;stroke-width:1.5;" x1="1574" x2="1693" y1="120.2551" y2="120.2551"/><text fill="#000000" font-family="sans-serif" font-size="11" lengthAdjust="spacing" textLength="10" x="1579" y="134.4656">id</text><text fill="#000000" font-family="sans-serif" font-size="11" lengthAdjust="spacing" textLength="29" x="1579" y="147.2703">Offer</text><text fill="#000000" font-family="sans-serif" font-size="11" lengthAdjust="spacing" textLength="78" x="1579" y="160.0749">ExchangeFee</text><text fill="#000000" font-family="sans-serif" font-size="11" lengthAdjust="spacing" textLength="102" x="1579" y="172.8796">ExchangeBalance</text><line style="stroke:#A80036;stroke-width:1.5;" x1="1574" x2="1693" y1="179.4739" y2="179.4739"/><!--MD5=[e8c16ea9d307a44f048f14324caf9e10]
class OfferPart--><rect codeLine="30" fill="#D3D3D3" filter="url(#f56wdrh3u0iah)" height="48" id="OfferPart" style="stroke:#A80036;stroke-width:1.5;" width="85" x="689" y="350.7551"/><ellipse cx="704" cy="366.7551" fill="#008000" rx="11" ry="11" style="stroke:#A80036;stroke-width:1.0;"/><path d="M701.5156,370.052 C700.8594,370.052 700.4688,370.3645 700.4688,370.9114 C700.4688,371.1614 700.6094,371.427 700.8281,371.5833 C700.9844,371.7083 701.2031,371.7551 701.6094,371.7551 L705.0781,371.7551 C706.5625,371.7551 707.5781,371.3645 708.4063,370.4739 C709.1875,369.6614 709.5938,368.6145 709.5938,367.3645 L709.5938,366.5676 C709.5938,363.8958 707.7031,361.8489 705.2188,361.8489 L701.6094,361.8489 C701.1563,361.8489 701.0313,361.8645 700.875,361.9583 C700.625,362.1145 700.4688,362.4114 700.4688,362.6926 C700.4688,363.2395 700.8438,363.5364 701.5156,363.5364 L701.5156,370.052 Z M703.2031,370.052 L703.2031,363.5364 L705.0781,363.5364 C705.9844,363.5364 706.625,363.8176 707.1406,364.4114 C707.625,364.9895 707.9063,365.7395 707.9063,366.5364 L707.9063,367.3176 C707.9063,368.1926 707.6719,368.7864 707.2031,369.302 C706.6719,369.8489 706.1094,370.052 705.0938,370.052 L703.2031,370.052 Z " fill="#000000"/><text fill="#000000" font-family="sans-serif" font-size="12" font-style="italic" lengthAdjust="spacing" textLength="53" x="718" y="370.9094">OfferPart</text><line style="stroke:#A80036;stroke-width:1.5;" x1="690" x2="773" y1="382.7551" y2="382.7551"/><line style="stroke:#A80036;stroke-width:1.5;" x1="690" x2="773" y1="390.7551" y2="390.7551"/><!--MD5=[6dff479dfce9e3b0670cb55d6657bb83]
class Ancillary--><rect codeLine="33" fill="#FEFECE" filter="url(#f56wdrh3u0iah)" height="60.8047" id="Ancillary" style="stroke:#A80036;stroke-width:1.5;" width="82" x="626.5" y="566.2551"/><ellipse cx="641.5" cy="582.2551" fill="#DA70D6" rx="11" ry="11" style="stroke:#A80036;stroke-width:1.0;"/><path d="M639.7969,583.4739 L641.4375,583.4739 C642.1406,583.7395 643.7031,585.5989 644.5625,587.2551 L645.9063,587.2551 C646.2344,587.2551 646.5,587.2083 646.6094,587.1301 C646.875,586.9895 647.0156,586.6926 647.0156,586.4114 C647.0156,586.1301 646.8906,585.8645 646.6875,585.7083 C646.5156,585.5833 646.3281,585.552 645.9063,585.552 L645.6875,585.552 C644.9688,584.4114 644.3438,583.6301 643.5313,582.9426 C644.7813,582.2551 645.375,581.4426 645.375,580.3645 C645.375,578.5833 643.8438,577.3489 641.6406,577.3489 L637.8438,577.3489 C637.4063,577.3489 637.2813,577.3645 637.125,577.4583 C636.875,577.6145 636.7188,577.9114 636.7188,578.1926 C636.7188,578.4739 636.8594,578.7239 637.0781,578.8958 C637.2344,579.0051 637.4219,579.0364 637.8438,579.0364 L638.0938,579.0364 L638.0938,585.552 L637.8438,585.552 C637.4375,585.552 637.2813,585.5676 637.125,585.677 C636.875,585.8333 636.7188,586.1145 636.7188,586.4114 C636.7188,586.6614 636.8594,586.927 637.0781,587.0833 C637.2188,587.2083 637.4531,587.2551 637.8438,587.2551 L640.3906,587.2551 C640.7344,587.2551 640.9844,587.2083 641.1094,587.1301 C641.3594,586.9895 641.5156,586.6926 641.5156,586.4114 C641.5156,586.1301 641.375,585.8801 641.1719,585.7083 C641,585.5833 640.8594,585.552 640.3906,585.552 L639.7969,585.552 L639.7969,583.4739 Z M639.7969,581.7864 L639.7969,579.0364 L641.7031,579.0364 C642.7969,579.0364 643.5781,579.5833 643.5781,580.3176 C643.5781,581.1614 642.5156,581.7864 641.0938,581.7864 L639.7969,581.7864 Z " fill="#000000"/><text fill="#000000" font-family="sans-serif" font-size="12" lengthAdjust="spacing" textLength="50" x="655.5" y="586.4094">Ancillary</text><line style="stroke:#A80036;stroke-width:1.5;" x1="627.5" x2="707.5" y1="598.2551" y2="598.2551"/><text fill="#000000" font-family="sans-serif" font-size="11" lengthAdjust="spacing" textLength="50" x="632.5" y="612.4656">category</text><line style="stroke:#A80036;stroke-width:1.5;" x1="627.5" x2="707.5" y1="619.0598" y2="619.0598"/><!--MD5=[2865a10d554e5c53169cb668d9d489f7]
class Admission--><rect codeLine="37" fill="#FEFECE" filter="url(#f56wdrh3u0iah)" height="99.2188" id="Admission" style="stroke:#A80036;stroke-width:1.5;" width="169" x="313" y="547.2551"/><ellipse cx="362.25" cy="563.2551" fill="#DA70D6" rx="11" ry="11" style="stroke:#A80036;stroke-width:1.0;"/><path d="M360.5469,564.4739 L362.1875,564.4739 C362.8906,564.7395 364.4531,566.5989 365.3125,568.2551 L366.6563,568.2551 C366.9844,568.2551 367.25,568.2083 367.3594,568.1301 C367.625,567.9895 367.7656,567.6926 367.7656,567.4114 C367.7656,567.1301 367.6406,566.8645 367.4375,566.7083 C367.2656,566.5833 367.0781,566.552 366.6563,566.552 L366.4375,566.552 C365.7188,565.4114 365.0938,564.6301 364.2813,563.9426 C365.5313,563.2551 366.125,562.4426 366.125,561.3645 C366.125,559.5833 364.5938,558.3489 362.3906,558.3489 L358.5938,558.3489 C358.1563,558.3489 358.0313,558.3645 357.875,558.4583 C357.625,558.6145 357.4688,558.9114 357.4688,559.1926 C357.4688,559.4739 357.6094,559.7239 357.8281,559.8958 C357.9844,560.0051 358.1719,560.0364 358.5938,560.0364 L358.8438,560.0364 L358.8438,566.552 L358.5938,566.552 C358.1875,566.552 358.0313,566.5676 357.875,566.677 C357.625,566.8333 357.4688,567.1145 357.4688,567.4114 C357.4688,567.6614 357.6094,567.927 357.8281,568.0833 C357.9688,568.2083 358.2031,568.2551 358.5938,568.2551 L361.1406,568.2551 C361.4844,568.2551 361.7344,568.2083 361.8594,568.1301 C362.1094,567.9895 362.2656,567.6926 362.2656,567.4114 C362.2656,567.1301 362.125,566.8801 361.9219,566.7083 C361.75,566.5833 361.6094,566.552 361.1406,566.552 L360.5469,566.552 L360.5469,564.4739 Z M360.5469,562.7864 L360.5469,560.0364 L362.4531,560.0364 C363.5469,560.0364 364.3281,560.5833 364.3281,561.3176 C364.3281,562.1614 363.2656,562.7864 361.8438,562.7864 L360.5469,562.7864 Z " fill="#000000"/><text fill="#000000" font-family="sans-serif" font-size="12" lengthAdjust="spacing" textLength="62" x="382.75" y="567.4094">Admission</text><line style="stroke:#A80036;stroke-width:1.5;" x1="314" x2="481" y1="579.2551" y2="579.2551"/><text fill="#000000" font-family="sans-serif" font-size="11" lengthAdjust="spacing" textLength="116" x="319" y="593.4656">reservationRequired</text><text fill="#000000" font-family="sans-serif" font-size="11" lengthAdjust="spacing" textLength="157" x="319" y="606.2703">reservations: [reservations]</text><text fill="#000000" font-family="sans-serif" font-size="11" lengthAdjust="spacing" textLength="129" x="319" y="619.0749">ancillaries: [ancillaries]</text><text fill="#000000" font-family="sans-serif" font-size="11" lengthAdjust="spacing" textLength="144" x="319" y="631.8796">«opt» numericAvailability</text><line style="stroke:#A80036;stroke-width:1.5;" x1="314" x2="481" y1="638.4739" y2="638.4739"/><!--MD5=[9c46470aa33a0c75e6d1dfdefc2f9c22]
class Reservation--><rect codeLine="44" fill="#FEFECE" filter="url(#f56wdrh3u0iah)" height="86.4141" id="Reservation" style="stroke:#A80036;stroke-width:1.5;" width="273" x="744" y="553.7551"/><ellipse cx="840.75" cy="569.7551" fill="#DA70D6" rx="11" ry="11" style="stroke:#A80036;stroke-width:1.0;"/><path d="M839.0469,570.9739 L840.6875,570.9739 C841.3906,571.2395 842.9531,573.0989 843.8125,574.7551 L845.1563,574.7551 C845.4844,574.7551 845.75,574.7083 845.8594,574.6301 C846.125,574.4895 846.2656,574.1926 846.2656,573.9114 C846.2656,573.6301 846.1406,573.3645 845.9375,573.2083 C845.7656,573.0833 845.5781,573.052 845.1563,573.052 L844.9375,573.052 C844.2188,571.9114 843.5938,571.1301 842.7813,570.4426 C844.0313,569.7551 844.625,568.9426 844.625,567.8645 C844.625,566.0833 843.0938,564.8489 840.8906,564.8489 L837.0938,564.8489 C836.6563,564.8489 836.5313,564.8645 836.375,564.9583 C836.125,565.1145 835.9688,565.4114 835.9688,565.6926 C835.9688,565.9739 836.1094,566.2239 836.3281,566.3958 C836.4844,566.5051 836.6719,566.5364 837.0938,566.5364 L837.3438,566.5364 L837.3438,573.052 L837.0938,573.052 C836.6875,573.052 836.5313,573.0676 836.375,573.177 C836.125,573.3333 835.9688,573.6145 835.9688,573.9114 C835.9688,574.1614 836.1094,574.427 836.3281,574.5833 C836.4688,574.7083 836.7031,574.7551 837.0938,574.7551 L839.6406,574.7551 C839.9844,574.7551 840.2344,574.7083 840.3594,574.6301 C840.6094,574.4895 840.7656,574.1926 840.7656,573.9114 C840.7656,573.6301 840.625,573.3801 840.4219,573.2083 C840.25,573.0833 840.1094,573.052 839.6406,573.052 L839.0469,573.052 L839.0469,570.9739 Z M839.0469,569.2864 L839.0469,566.5364 L840.9531,566.5364 C842.0469,566.5364 842.8281,567.0833 842.8281,567.8176 C842.8281,568.6614 841.7656,569.2864 840.3438,569.2864 L839.0469,569.2864 Z " fill="#000000"/><text fill="#000000" font-family="sans-serif" font-size="12" lengthAdjust="spacing" textLength="71" x="861.25" y="573.9094">Reservation</text><line style="stroke:#A80036;stroke-width:1.5;" x1="745" x2="1016" y1="585.7551" y2="585.7551"/><text fill="#000000" font-family="sans-serif" font-size="11" lengthAdjust="spacing" textLength="144" x="750" y="599.9656">«opt» numericAvailability</text><text fill="#000000" font-family="sans-serif" font-size="11" lengthAdjust="spacing" textLength="233" x="750" y="612.7703">reservationDetails: {reservation details}</text><text fill="#000000" font-family="sans-serif" font-size="11" lengthAdjust="spacing" textLength="261" x="750" y="625.5749">placeSelection: {place selection information}</text><line style="stroke:#A80036;stroke-width:1.5;" x1="745" x2="1016" y1="632.1692" y2="632.1692"/><!--MD5=[72136138052d025cffdce3c22fbd185f]
class Product--><rect codeLine="50" fill="#FEFECE" filter="url(#f56wdrh3u0iah)" height="48" id="Product" style="stroke:#A80036;stroke-width:1.5;" width="77" x="522" y="733.7551"/><ellipse cx="537" cy="749.7551" fill="#DA70D6" rx="11" ry="11" style="stroke:#A80036;stroke-width:1.0;"/><path d="M535.2969,750.9739 L536.9375,750.9739 C537.6406,751.2395 539.2031,753.0989 540.0625,754.7551 L541.4063,754.7551 C541.7344,754.7551 542,754.7083 542.1094,754.6301 C542.375,754.4895 542.5156,754.1926 542.5156,753.9114 C542.5156,753.6301 542.3906,753.3645 542.1875,753.2083 C542.0156,753.0833 541.8281,753.052 541.4063,753.052 L541.1875,753.052 C540.4688,751.9114 539.8438,751.1301 539.0313,750.4426 C540.2813,749.7551 540.875,748.9426 540.875,747.8645 C540.875,746.0833 539.3438,744.8489 537.1406,744.8489 L533.3438,744.8489 C532.9063,744.8489 532.7813,744.8645 532.625,744.9583 C532.375,745.1145 532.2188,745.4114 532.2188,745.6926 C532.2188,745.9739 532.3594,746.2239 532.5781,746.3958 C532.7344,746.5051 532.9219,746.5364 533.3438,746.5364 L533.5938,746.5364 L533.5938,753.052 L533.3438,753.052 C532.9375,753.052 532.7813,753.0676 532.625,753.177 C532.375,753.3333 532.2188,753.6145 532.2188,753.9114 C532.2188,754.1614 532.3594,754.427 532.5781,754.5833 C532.7188,754.7083 532.9531,754.7551 533.3438,754.7551 L535.8906,754.7551 C536.2344,754.7551 536.4844,754.7083 536.6094,754.6301 C536.8594,754.4895 537.0156,754.1926 537.0156,753.9114 C537.0156,753.6301 536.875,753.3801 536.6719,753.2083 C536.5,753.0833 536.3594,753.052 535.8906,753.052 L535.2969,753.052 L535.2969,750.9739 Z M535.2969,749.2864 L535.2969,746.5364 L537.2031,746.5364 C538.2969,746.5364 539.0781,747.0833 539.0781,747.8176 C539.0781,748.6614 538.0156,749.2864 536.5938,749.2864 L535.2969,749.2864 Z " fill="#000000"/><text fill="#000000" font-family="sans-serif" font-size="12" lengthAdjust="spacing" textLength="45" x="551" y="753.9094">Product</text><line style="stroke:#A80036;stroke-width:1.5;" x1="523" x2="598" y1="765.7551" y2="765.7551"/><line style="stroke:#A80036;stroke-width:1.5;" x1="523" x2="598" y1="773.7551" y2="773.7551"/><!--MD5=[99761c19fb142d938a1f8ce67200212e]
class Fare--><rect codeLine="53" fill="#FEFECE" filter="url(#f56wdrh3u0iah)" height="48" id="Fare" style="stroke:#A80036;stroke-width:1.5;" width="59" x="219" y="572.7551"/><ellipse cx="234" cy="588.7551" fill="#DA70D6" rx="11" ry="11" style="stroke:#A80036;stroke-width:1.0;"/><path d="M232.2969,589.9739 L233.9375,589.9739 C234.6406,590.2395 236.2031,592.0989 237.0625,593.7551 L238.4063,593.7551 C238.7344,593.7551 239,593.7083 239.1094,593.6301 C239.375,593.4895 239.5156,593.1926 239.5156,592.9114 C239.5156,592.6301 239.3906,592.3645 239.1875,592.2083 C239.0156,592.0833 238.8281,592.052 238.4063,592.052 L238.1875,592.052 C237.4688,590.9114 236.8438,590.1301 236.0313,589.4426 C237.2813,588.7551 237.875,587.9426 237.875,586.8645 C237.875,585.0833 236.3438,583.8489 234.1406,583.8489 L230.3438,583.8489 C229.9063,583.8489 229.7813,583.8645 229.625,583.9583 C229.375,584.1145 229.2188,584.4114 229.2188,584.6926 C229.2188,584.9739 229.3594,585.2239 229.5781,585.3958 C229.7344,585.5051 229.9219,585.5364 230.3438,585.5364 L230.5938,585.5364 L230.5938,592.052 L230.3438,592.052 C229.9375,592.052 229.7813,592.0676 229.625,592.177 C229.375,592.3333 229.2188,592.6145 229.2188,592.9114 C229.2188,593.1614 229.3594,593.427 229.5781,593.5833 C229.7188,593.7083 229.9531,593.7551 230.3438,593.7551 L232.8906,593.7551 C233.2344,593.7551 233.4844,593.7083 233.6094,593.6301 C233.8594,593.4895 234.0156,593.1926 234.0156,592.9114 C234.0156,592.6301 233.875,592.3801 233.6719,592.2083 C233.5,592.0833 233.3594,592.052 232.8906,592.052 L232.2969,592.052 L232.2969,589.9739 Z M232.2969,588.2864 L232.2969,585.5364 L234.2031,585.5364 C235.2969,585.5364 236.0781,586.0833 236.0781,586.8176 C236.0781,587.6614 235.0156,588.2864 233.5938,588.2864 L232.2969,588.2864 Z " fill="#000000"/><text fill="#000000" font-family="sans-serif" font-size="12" lengthAdjust="spacing" textLength="27" x="248" y="592.9094">Fare</text><line style="stroke:#A80036;stroke-width:1.5;" x1="220" x2="277" y1="604.7551" y2="604.7551"/><line style="stroke:#A80036;stroke-width:1.5;" x1="220" x2="277" y1="612.7551" y2="612.7551"/><!--MD5=[044d80e6112339a70fe50413576e9bf7]
class Passenger--><rect codeLine="57" fill="#FEFECE" filter="url(#f56wdrh3u0iah)" height="163.2422" id="Passenger" style="stroke:#A80036;stroke-width:1.5;" width="179" x="981" y="56.2551"/><ellipse cx="1034.75" cy="72.2551" fill="#DA70D6" rx="11" ry="11" style="stroke:#A80036;stroke-width:1.0;"/><path d="M1033.0469,73.4739 L1034.6875,73.4739 C1035.3906,73.7395 1036.9531,75.5989 1037.8125,77.2551 L1039.1563,77.2551 C1039.4844,77.2551 1039.75,77.2083 1039.8594,77.1301 C1040.125,76.9895 1040.2656,76.6926 1040.2656,76.4114 C1040.2656,76.1301 1040.1406,75.8645 1039.9375,75.7083 C1039.7656,75.5833 1039.5781,75.552 1039.1563,75.552 L1038.9375,75.552 C1038.2188,74.4114 1037.5938,73.6301 1036.7813,72.9426 C1038.0313,72.2551 1038.625,71.4426 1038.625,70.3645 C1038.625,68.5833 1037.0938,67.3489 1034.8906,67.3489 L1031.0938,67.3489 C1030.6563,67.3489 1030.5313,67.3645 1030.375,67.4583 C1030.125,67.6145 1029.9688,67.9114 1029.9688,68.1926 C1029.9688,68.4739 1030.1094,68.7239 1030.3281,68.8958 C1030.4844,69.0051 1030.6719,69.0364 1031.0938,69.0364 L1031.3438,69.0364 L1031.3438,75.552 L1031.0938,75.552 C1030.6875,75.552 1030.5313,75.5676 1030.375,75.677 C1030.125,75.8333 1029.9688,76.1145 1029.9688,76.4114 C1029.9688,76.6614 1030.1094,76.927 1030.3281,77.0833 C1030.4688,77.2083 1030.7031,77.2551 1031.0938,77.2551 L1033.6406,77.2551 C1033.9844,77.2551 1034.2344,77.2083 1034.3594,77.1301 C1034.6094,76.9895 1034.7656,76.6926 1034.7656,76.4114 C1034.7656,76.1301 1034.625,75.8801 1034.4219,75.7083 C1034.25,75.5833 1034.1094,75.552 1033.6406,75.552 L1033.0469,75.552 L1033.0469,73.4739 Z M1033.0469,71.7864 L1033.0469,69.0364 L1034.9531,69.0364 C1036.0469,69.0364 1036.8281,69.5833 1036.8281,70.3176 C1036.8281,71.1614 1035.7656,71.7864 1034.3438,71.7864 L1033.0469,71.7864 Z " fill="#000000"/><text fill="#000000" font-family="sans-serif" font-size="12" lengthAdjust="spacing" textLength="63" x="1055.25" y="76.4094">Passenger</text><line style="stroke:#A80036;stroke-width:1.5;" x1="982" x2="1159" y1="88.2551" y2="88.2551"/><text fill="#000000" font-family="sans-serif" font-size="11" lengthAdjust="spacing" textLength="10" x="987" y="102.4656">id</text><text fill="#000000" font-family="sans-serif" font-size="11" lengthAdjust="spacing" textLength="167" x="987" y="115.2703">externalPassengerReference</text><text fill="#000000" font-family="sans-serif" font-size="11" lengthAdjust="spacing" textLength="65" x="987" y="128.0749">dateOfBirth</text><text fill="#000000" font-family="sans-serif" font-size="11" lengthAdjust="spacing" textLength="41" x="987" y="140.8796">gender</text><text fill="#000000" font-family="sans-serif" font-size="11" lengthAdjust="spacing" textLength="57" x="987" y="153.6843">LastName</text><text fill="#000000" font-family="sans-serif" font-size="11" lengthAdjust="spacing" textLength="56" x="987" y="166.489">Firstname</text><text fill="#000000" font-family="sans-serif" font-size="11" lengthAdjust="spacing" textLength="111" x="987" y="179.2937">PassportInformation</text><text fill="#000000" font-family="sans-serif" font-size="11" lengthAdjust="spacing" textLength="62" x="987" y="192.0984">Reductions</text><text fill="#000000" font-family="sans-serif" font-size="11" lengthAdjust="spacing" textLength="29" x="987" y="204.9031">Type</text><line style="stroke:#A80036;stroke-width:1.5;" x1="982" x2="1159" y1="211.4973" y2="211.4973"/><!--MD5=[c6c2aa411a70f0170997fbec83374a43]
class Booking--><rect codeLine="69" fill="#E0FFFF" filter="url(#f56wdrh3u0iah)" height="137.6328" id="Booking" style="stroke:#A80036;stroke-width:1.5;" width="219" x="727" y="68.7551"/><ellipse cx="807.75" cy="84.7551" fill="#DA70D6" rx="11" ry="11" style="stroke:#A80036;stroke-width:1.0;"/><path d="M806.0469,85.9739 L807.6875,85.9739 C808.3906,86.2395 809.9531,88.0989 810.8125,89.7551 L812.1563,89.7551 C812.4844,89.7551 812.75,89.7083 812.8594,89.6301 C813.125,89.4895 813.2656,89.1926 813.2656,88.9114 C813.2656,88.6301 813.1406,88.3645 812.9375,88.2083 C812.7656,88.0833 812.5781,88.052 812.1563,88.052 L811.9375,88.052 C811.2188,86.9114 810.5938,86.1301 809.7813,85.4426 C811.0313,84.7551 811.625,83.9426 811.625,82.8645 C811.625,81.0833 810.0938,79.8489 807.8906,79.8489 L804.0938,79.8489 C803.6563,79.8489 803.5313,79.8645 803.375,79.9583 C803.125,80.1145 802.9688,80.4114 802.9688,80.6926 C802.9688,80.9739 803.1094,81.2239 803.3281,81.3958 C803.4844,81.5051 803.6719,81.5364 804.0938,81.5364 L804.3438,81.5364 L804.3438,88.052 L804.0938,88.052 C803.6875,88.052 803.5313,88.0676 803.375,88.177 C803.125,88.3333 802.9688,88.6145 802.9688,88.9114 C802.9688,89.1614 803.1094,89.427 803.3281,89.5833 C803.4688,89.7083 803.7031,89.7551 804.0938,89.7551 L806.6406,89.7551 C806.9844,89.7551 807.2344,89.7083 807.3594,89.6301 C807.6094,89.4895 807.7656,89.1926 807.7656,88.9114 C807.7656,88.6301 807.625,88.3801 807.4219,88.2083 C807.25,88.0833 807.1094,88.052 806.6406,88.052 L806.0469,88.052 L806.0469,85.9739 Z M806.0469,84.2864 L806.0469,81.5364 L807.9531,81.5364 C809.0469,81.5364 809.8281,82.0833 809.8281,82.8176 C809.8281,83.6614 808.7656,84.2864 807.3438,84.2864 L806.0469,84.2864 Z " fill="#000000"/><text fill="#000000" font-family="sans-serif" font-size="12" lengthAdjust="spacing" textLength="49" x="828.25" y="88.9094">Booking</text><line style="stroke:#A80036;stroke-width:1.5;" x1="728" x2="945" y1="100.7551" y2="100.7551"/><text fill="#000000" font-family="sans-serif" font-size="11" lengthAdjust="spacing" textLength="10" x="733" y="114.9656">id</text><text fill="#000000" font-family="sans-serif" font-size="11" lengthAdjust="spacing" textLength="34" x="733" y="127.7703">status</text><text fill="#000000" font-family="sans-serif" font-size="11" lengthAdjust="spacing" textLength="101" x="733" y="140.5749">bookingMessages</text><text fill="#000000" font-family="sans-serif" font-size="11" lengthAdjust="spacing" textLength="123" x="733" y="153.3796">requestedInformation</text><text fill="#000000" font-family="sans-serif" font-size="11" lengthAdjust="spacing" textLength="87" x="733" y="166.1843">ticketTimeLimit</text><text fill="#000000" font-family="sans-serif" font-size="11" lengthAdjust="spacing" textLength="207" x="733" y="178.989">fulfillmentOptions: fulfillmentOptions</text><text fill="#000000" font-family="sans-serif" font-size="11" lengthAdjust="spacing" textLength="119" x="733" y="191.7937">bookedOffers: Offers</text><line style="stroke:#A80036;stroke-width:1.5;" x1="728" x2="945" y1="198.3879" y2="198.3879"/><path d="M273,110.2551 L273,165.6536 A0,0 0 0 0 273,165.6536 L692,165.6536 A0,0 0 0 0 692,165.6536 L692,141.7551 L726.974,137.7551 L692,133.7551 L692,120.2551 L682,110.2551 L273,110.2551 A0,0 0 0 0 273,110.2551 " fill="#FBFB77" filter="url(#f56wdrh3u0iah)" style="stroke:#A80036;stroke-width:1.0;"/><path d="M682,110.2551 L682,120.2551 L692,120.2551 L682,110.2551 " fill="#FBFB77" style="stroke:#A80036;stroke-width:1.0;"/><text fill="#000000" font-family="sans-serif" font-size="13" lengthAdjust="spacing" textLength="398" x="279" y="127.322">possible states PREBOOKED, BOOKED, FULFILLED, CANCELLED</text><text fill="#000000" font-family="sans-serif" font-size="13" lengthAdjust="spacing" textLength="321" x="283" y="142.4548">Booked represents the state between the booking</text><text fill="#000000" font-family="sans-serif" font-size="13" lengthAdjust="spacing" textLength="286" x="279" y="157.5876">confirmation and the issuance of the tickets.</text><!--MD5=[7853711ab61c593801a61c98599ea41d]
class FulfillmentOption--><rect codeLine="81" fill="#E0FFFF" filter="url(#f56wdrh3u0iah)" height="60.8047" id="FulfillmentOption" style="stroke:#A80036;stroke-width:1.5;" width="132" x="809.5" y="344.2551"/><ellipse cx="824.5" cy="360.2551" fill="#008000" rx="11" ry="11" style="stroke:#A80036;stroke-width:1.0;"/><path d="M822.0156,363.552 C821.3594,363.552 820.9688,363.8645 820.9688,364.4114 C820.9688,364.6614 821.1094,364.927 821.3281,365.0833 C821.4844,365.2083 821.7031,365.2551 822.1094,365.2551 L825.5781,365.2551 C827.0625,365.2551 828.0781,364.8645 828.9063,363.9739 C829.6875,363.1614 830.0938,362.1145 830.0938,360.8645 L830.0938,360.0676 C830.0938,357.3958 828.2031,355.3489 825.7188,355.3489 L822.1094,355.3489 C821.6563,355.3489 821.5313,355.3645 821.375,355.4583 C821.125,355.6145 820.9688,355.9114 820.9688,356.1926 C820.9688,356.7395 821.3438,357.0364 822.0156,357.0364 L822.0156,363.552 Z M823.7031,363.552 L823.7031,357.0364 L825.5781,357.0364 C826.4844,357.0364 827.125,357.3176 827.6406,357.9114 C828.125,358.4895 828.4063,359.2395 828.4063,360.0364 L828.4063,360.8176 C828.4063,361.6926 828.1719,362.2864 827.7031,362.802 C827.1719,363.3489 826.6094,363.552 825.5938,363.552 L823.7031,363.552 Z " fill="#000000"/><text fill="#000000" font-family="sans-serif" font-size="12" lengthAdjust="spacing" textLength="100" x="838.5" y="364.4094">FulfillmentOption</text><line style="stroke:#A80036;stroke-width:1.5;" x1="810.5" x2="940.5" y1="376.2551" y2="376.2551"/><text fill="#000000" font-family="sans-serif" font-size="11" lengthAdjust="spacing" textLength="26" x="815.5" y="390.4656">type</text><line style="stroke:#A80036;stroke-width:1.5;" x1="810.5" x2="940.5" y1="397.0598" y2="397.0598"/><!--MD5=[99d51b6715838cc21b3c961f48fbaad4]
class ReservationDetails_ReservedPlaces--><rect codeLine="85" fill="#E0FFFF" filter="url(#f56wdrh3u0iah)" height="99.2188" id="ReservationDetails_ReservedPlaces" style="stroke:#A80036;stroke-width:1.5;" width="246" x="1053.5" y="708.2551"/><ellipse cx="1068.5" cy="724.2551" fill="#008000" rx="11" ry="11" style="stroke:#A80036;stroke-width:1.0;"/><path d="M1066.0156,727.552 C1065.3594,727.552 1064.9688,727.8645 1064.9688,728.4114 C1064.9688,728.6614 1065.1094,728.927 1065.3281,729.0833 C1065.4844,729.2083 1065.7031,729.2551 1066.1094,729.2551 L1069.5781,729.2551 C1071.0625,729.2551 1072.0781,728.8645 1072.9063,727.9739 C1073.6875,727.1614 1074.0938,726.1145 1074.0938,724.8645 L1074.0938,724.0676 C1074.0938,721.3958 1072.2031,719.3489 1069.7188,719.3489 L1066.1094,719.3489 C1065.6563,719.3489 1065.5313,719.3645 1065.375,719.4583 C1065.125,719.6145 1064.9688,719.9114 1064.9688,720.1926 C1064.9688,720.7395 1065.3438,721.0364 1066.0156,721.0364 L1066.0156,727.552 Z M1067.7031,727.552 L1067.7031,721.0364 L1069.5781,721.0364 C1070.4844,721.0364 1071.125,721.3176 1071.6406,721.9114 C1072.125,722.4895 1072.4063,723.2395 1072.4063,724.0364 L1072.4063,724.8176 C1072.4063,725.6926 1072.1719,726.2864 1071.7031,726.802 C1071.1719,727.3489 1070.6094,727.552 1069.5938,727.552 L1067.7031,727.552 Z " fill="#000000"/><text fill="#000000" font-family="sans-serif" font-size="12" lengthAdjust="spacing" textLength="214" x="1082.5" y="728.4094">ReservationDetails_ReservedPlaces</text><line style="stroke:#A80036;stroke-width:1.5;" x1="1054.5" x2="1298.5" y1="740.2551" y2="740.2551"/><text fill="#000000" font-family="sans-serif" font-size="11" lengthAdjust="spacing" textLength="70" x="1059.5" y="754.4656">passengerId</text><text fill="#000000" font-family="sans-serif" font-size="11" lengthAdjust="spacing" textLength="112" x="1059.5" y="767.2703">«opt» placeNumber</text><text fill="#000000" font-family="sans-serif" font-size="11" lengthAdjust="spacing" textLength="114" x="1059.5" y="780.0749">«opt» coachNumber</text><text fill="#000000" font-family="sans-serif" font-size="11" lengthAdjust="spacing" textLength="85" x="1059.5" y="792.8796">«opt» direction</text><line style="stroke:#A80036;stroke-width:1.5;" x1="1054.5" x2="1298.5" y1="799.4739" y2="799.4739"/><path d="M634.5,737.7551 L634.5,753.7551 L599.205,757.7551 L634.5,761.7551 L634.5,778.0208 A0,0 0 0 0 634.5,778.0208 L1018.5,778.0208 A0,0 0 0 0 1018.5,778.0208 L1018.5,747.7551 L1008.5,737.7551 L634.5,737.7551 A0,0 0 0 0 634.5,737.7551 " fill="#FBFB77" filter="url(#f56wdrh3u0iah)" style="stroke:#A80036;stroke-width:1.0;"/><path d="M1008.5,737.7551 L1008.5,747.7551 L1018.5,747.7551 L1008.5,737.7551 " fill="#FBFB77" style="stroke:#A80036;stroke-width:1.0;"/><text fill="#000000" font-family="sans-serif" font-size="13" lengthAdjust="spacing" textLength="306" x="640.5" y="754.822">reference is the unique internal id that allows to</text><text fill="#000000" font-family="sans-serif" font-size="13" lengthAdjust="spacing" textLength="363" x="640.5" y="769.9548">link fulfillments to products. It has no functional meaning</text><!--MD5=[e43393244d75ff32288e3322ff5a1253]
class Fulfillment--><rect codeLine="97" fill="#FFE4C4" filter="url(#f56wdrh3u0iah)" height="99.2188" id="Fulfillment" style="stroke:#A80036;stroke-width:1.5;" width="120" x="1213.5" y="325.2551"/><ellipse cx="1241.1" cy="341.2551" fill="#DA70D6" rx="11" ry="11" style="stroke:#A80036;stroke-width:1.0;"/><path d="M1239.3969,342.4739 L1241.0375,342.4739 C1241.7406,342.7395 1243.3031,344.5989 1244.1625,346.2551 L1245.5063,346.2551 C1245.8344,346.2551 1246.1,346.2083 1246.2094,346.1301 C1246.475,345.9895 1246.6156,345.6926 1246.6156,345.4114 C1246.6156,345.1301 1246.4906,344.8645 1246.2875,344.7083 C1246.1156,344.5833 1245.9281,344.552 1245.5063,344.552 L1245.2875,344.552 C1244.5688,343.4114 1243.9438,342.6301 1243.1313,341.9426 C1244.3813,341.2551 1244.975,340.4426 1244.975,339.3645 C1244.975,337.5833 1243.4438,336.3489 1241.2406,336.3489 L1237.4438,336.3489 C1237.0063,336.3489 1236.8813,336.3645 1236.725,336.4583 C1236.475,336.6145 1236.3188,336.9114 1236.3188,337.1926 C1236.3188,337.4739 1236.4594,337.7239 1236.6781,337.8958 C1236.8344,338.0051 1237.0219,338.0364 1237.4438,338.0364 L1237.6938,338.0364 L1237.6938,344.552 L1237.4438,344.552 C1237.0375,344.552 1236.8813,344.5676 1236.725,344.677 C1236.475,344.8333 1236.3188,345.1145 1236.3188,345.4114 C1236.3188,345.6614 1236.4594,345.927 1236.6781,346.0833 C1236.8188,346.2083 1237.0531,346.2551 1237.4438,346.2551 L1239.9906,346.2551 C1240.3344,346.2551 1240.5844,346.2083 1240.7094,346.1301 C1240.9594,345.9895 1241.1156,345.6926 1241.1156,345.4114 C1241.1156,345.1301 1240.975,344.8801 1240.7719,344.7083 C1240.6,344.5833 1240.4594,344.552 1239.9906,344.552 L1239.3969,344.552 L1239.3969,342.4739 Z M1239.3969,340.7864 L1239.3969,338.0364 L1241.3031,338.0364 C1242.3969,338.0364 1243.1781,338.5833 1243.1781,339.3176 C1243.1781,340.1614 1242.1156,340.7864 1240.6938,340.7864 L1239.3969,340.7864 Z " fill="#000000"/><text fill="#000000" font-family="sans-serif" font-size="12" lengthAdjust="spacing" textLength="60" x="1257.9" y="345.4094">Fulfillment</text><line style="stroke:#A80036;stroke-width:1.5;" x1="1214.5" x2="1332.5" y1="357.2551" y2="357.2551"/><text fill="#000000" font-family="sans-serif" font-size="11" lengthAdjust="spacing" textLength="10" x="1219.5" y="371.4656">id</text><text fill="#000000" font-family="sans-serif" font-size="11" lengthAdjust="spacing" textLength="34" x="1219.5" y="384.2703">status</text><text fill="#000000" font-family="sans-serif" font-size="11" lengthAdjust="spacing" textLength="17" x="1219.5" y="397.0749">tcn</text><text fill="#000000" font-family="sans-serif" font-size="11" lengthAdjust="spacing" textLength="108" x="1219.5" y="409.8796">productReferences</text><line style="stroke:#A80036;stroke-width:1.5;" x1="1214.5" x2="1332.5" y1="416.4739" y2="416.4739"/><!--MD5=[6f30da6cdfc925c2808c328e51955616]
class RefundOffer--><rect codeLine="104" fill="#90EE90" filter="url(#f56wdrh3u0iah)" height="150.4375" id="RefundOffer" style="stroke:#A80036;stroke-width:1.5;" width="157" x="1195" y="62.7551"/><ellipse cx="1233.85" cy="78.7551" fill="#DA70D6" rx="11" ry="11" style="stroke:#A80036;stroke-width:1.0;"/><path d="M1232.1469,79.9739 L1233.7875,79.9739 C1234.4906,80.2395 1236.0531,82.0989 1236.9125,83.7551 L1238.2563,83.7551 C1238.5844,83.7551 1238.85,83.7083 1238.9594,83.6301 C1239.225,83.4895 1239.3656,83.1926 1239.3656,82.9114 C1239.3656,82.6301 1239.2406,82.3645 1239.0375,82.2083 C1238.8656,82.0833 1238.6781,82.052 1238.2563,82.052 L1238.0375,82.052 C1237.3188,80.9114 1236.6938,80.1301 1235.8813,79.4426 C1237.1313,78.7551 1237.725,77.9426 1237.725,76.8645 C1237.725,75.0833 1236.1938,73.8489 1233.9906,73.8489 L1230.1938,73.8489 C1229.7563,73.8489 1229.6313,73.8645 1229.475,73.9583 C1229.225,74.1145 1229.0688,74.4114 1229.0688,74.6926 C1229.0688,74.9739 1229.2094,75.2239 1229.4281,75.3958 C1229.5844,75.5051 1229.7719,75.5364 1230.1938,75.5364 L1230.4438,75.5364 L1230.4438,82.052 L1230.1938,82.052 C1229.7875,82.052 1229.6313,82.0676 1229.475,82.177 C1229.225,82.3333 1229.0688,82.6145 1229.0688,82.9114 C1229.0688,83.1614 1229.2094,83.427 1229.4281,83.5833 C1229.5688,83.7083 1229.8031,83.7551 1230.1938,83.7551 L1232.7406,83.7551 C1233.0844,83.7551 1233.3344,83.7083 1233.4594,83.6301 C1233.7094,83.4895 1233.8656,83.1926 1233.8656,82.9114 C1233.8656,82.6301 1233.725,82.3801 1233.5219,82.2083 C1233.35,82.0833 1233.2094,82.052 1232.7406,82.052 L1232.1469,82.052 L1232.1469,79.9739 Z M1232.1469,78.2864 L1232.1469,75.5364 L1234.0531,75.5364 C1235.1469,75.5364 1235.9281,76.0833 1235.9281,76.8176 C1235.9281,77.6614 1234.8656,78.2864 1233.4438,78.2864 L1232.1469,78.2864 Z " fill="#000000"/><text fill="#000000" font-family="sans-serif" font-size="12" lengthAdjust="spacing" textLength="72" x="1253.15" y="82.9094">RefundOffer</text><line style="stroke:#A80036;stroke-width:1.5;" x1="1196" x2="1351" y1="94.7551" y2="94.7551"/><text fill="#000000" font-family="sans-serif" font-size="11" lengthAdjust="spacing" textLength="10" x="1201" y="108.9656">id</text><text fill="#000000" font-family="sans-serif" font-size="11" lengthAdjust="spacing" textLength="52" x="1201" y="121.7703">validUntil</text><text fill="#000000" font-family="sans-serif" font-size="11" lengthAdjust="spacing" textLength="124" x="1201" y="134.5749">reimbursementStatus</text><text fill="#000000" font-family="sans-serif" font-size="11" lengthAdjust="spacing" textLength="145" x="1201" y="147.3796">reimbursementDateTime</text><text fill="#000000" font-family="sans-serif" font-size="11" lengthAdjust="spacing" textLength="92" x="1201" y="160.1843">appliedOverrule</text><text fill="#000000" font-family="sans-serif" font-size="11" lengthAdjust="spacing" textLength="137" x="1201" y="172.989">fulfillments:[fulfillments]</text><text fill="#000000" font-family="sans-serif" font-size="11" lengthAdjust="spacing" textLength="62" x="1201" y="185.7937">RefundFee</text><text fill="#000000" font-family="sans-serif" font-size="11" lengthAdjust="spacing" textLength="109" x="1201" y="198.5984">RefundableAmount</text><line style="stroke:#A80036;stroke-width:1.5;" x1="1196" x2="1351" y1="205.1926" y2="205.1926"/><!--MD5=[2f6bb4904d194b0b971a1635e059f52a]
class ExchangeOperation--><rect codeLine="115" fill="#90EE90" filter="url(#f56wdrh3u0iah)" height="124.8281" id="ExchangeOperation" style="stroke:#A80036;stroke-width:1.5;" width="150" x="1387.5" y="75.2551"/><ellipse cx="1402.5" cy="91.2551" fill="#DA70D6" rx="11" ry="11" style="stroke:#A80036;stroke-width:1.0;"/><path d="M1400.7969,92.4739 L1402.4375,92.4739 C1403.1406,92.7395 1404.7031,94.5989 1405.5625,96.2551 L1406.9063,96.2551 C1407.2344,96.2551 1407.5,96.2083 1407.6094,96.1301 C1407.875,95.9895 1408.0156,95.6926 1408.0156,95.4114 C1408.0156,95.1301 1407.8906,94.8645 1407.6875,94.7083 C1407.5156,94.5833 1407.3281,94.552 1406.9063,94.552 L1406.6875,94.552 C1405.9688,93.4114 1405.3438,92.6301 1404.5313,91.9426 C1405.7813,91.2551 1406.375,90.4426 1406.375,89.3645 C1406.375,87.5833 1404.8438,86.3489 1402.6406,86.3489 L1398.8438,86.3489 C1398.4063,86.3489 1398.2813,86.3645 1398.125,86.4583 C1397.875,86.6145 1397.7188,86.9114 1397.7188,87.1926 C1397.7188,87.4739 1397.8594,87.7239 1398.0781,87.8958 C1398.2344,88.0051 1398.4219,88.0364 1398.8438,88.0364 L1399.0938,88.0364 L1399.0938,94.552 L1398.8438,94.552 C1398.4375,94.552 1398.2813,94.5676 1398.125,94.677 C1397.875,94.8333 1397.7188,95.1145 1397.7188,95.4114 C1397.7188,95.6614 1397.8594,95.927 1398.0781,96.0833 C1398.2188,96.2083 1398.4531,96.2551 1398.8438,96.2551 L1401.3906,96.2551 C1401.7344,96.2551 1401.9844,96.2083 1402.1094,96.1301 C1402.3594,95.9895 1402.5156,95.6926 1402.5156,95.4114 C1402.5156,95.1301 1402.375,94.8801 1402.1719,94.7083 C1402,94.5833 1401.8594,94.552 1401.3906,94.552 L1400.7969,94.552 L1400.7969,92.4739 Z M1400.7969,90.7864 L1400.7969,88.0364 L1402.7031,88.0364 C1403.7969,88.0364 1404.5781,88.5833 1404.5781,89.3176 C1404.5781,90.1614 1403.5156,90.7864 1402.0938,90.7864 L1400.7969,90.7864 Z " fill="#000000"/><text fill="#000000" font-family="sans-serif" font-size="12" lengthAdjust="spacing" textLength="118" x="1416.5" y="95.4094">ExchangeOperation</text><line style="stroke:#A80036;stroke-width:1.5;" x1="1388.5" x2="1536.5" y1="107.2551" y2="107.2551"/><text fill="#000000" font-family="sans-serif" font-size="11" lengthAdjust="spacing" textLength="10" x="1393.5" y="121.4656">id</text><text fill="#000000" font-family="sans-serif" font-size="11" lengthAdjust="spacing" textLength="36" x="1393.5" y="134.2703">Status</text><text fill="#000000" font-family="sans-serif" font-size="11" lengthAdjust="spacing" textLength="92" x="1393.5" y="147.0749">exchangeOffers</text><text fill="#000000" font-family="sans-serif" font-size="11" lengthAdjust="spacing" textLength="63" x="1393.5" y="159.8796">fulfillments</text><text fill="#000000" font-family="sans-serif" font-size="11" lengthAdjust="spacing" textLength="87" x="1393.5" y="172.6843">ticketTimeLimit</text><text fill="#000000" font-family="sans-serif" font-size="11" lengthAdjust="spacing" textLength="86" x="1393.5" y="185.489">fulfillmentType</text><line style="stroke:#A80036;stroke-width:1.5;" x1="1388.5" x2="1536.5" y1="192.0833" y2="192.0833"/><path d="M1091,546.2551 L1091,647.052 A0,0 0 0 0 1091,647.052 L1456,647.052 A0,0 0 0 0 1456,647.052 L1456,556.2551 L1446,546.2551 L1277.5,546.2551 L1273.5,424.3071 L1269.5,546.2551 L1091,546.2551 A0,0 0 0 0 1091,546.2551 " fill="#FBFB77" filter="url(#f56wdrh3u0iah)" style="stroke:#A80036;stroke-width:1.0;"/><path d="M1446,546.2551 L1446,556.2551 L1456,556.2551 L1446,546.2551 " fill="#FBFB77" style="stroke:#A80036;stroke-width:1.0;"/><text fill="#000000" font-family="sans-serif" font-size="13" lengthAdjust="spacing" textLength="116" x="1097" y="563.322">Possible statuses:</text><text fill="#000000" font-family="sans-serif" font-size="13" lengthAdjust="spacing" textLength="62" x="1097" y="578.4548">TICKETED</text><text fill="#000000" font-family="sans-serif" font-size="13" lengthAdjust="spacing" textLength="265" x="1097" y="593.5876">CANCELLED: following a refund operation</text><text fill="#000000" font-family="sans-serif" font-size="13" lengthAdjust="spacing" textLength="344" x="1097" y="608.7205">BOARDED: checked on board by a controlling agency.</text><text fill="#000000" font-family="sans-serif" font-size="13" lengthAdjust="spacing" textLength="0" x="1101" y="623.8533"/><text fill="#000000" font-family="sans-serif" font-size="13" lengthAdjust="spacing" textLength="256" x="1097" y="638.9861">Tcn:  unique ticket number for a railway</text><path d="M1729.5,110.2551 L1729.5,165.6536 L2037.5,165.6536 L2037.5,120.2551 L2027.5,110.2551 L1729.5,110.2551 " fill="#FBFB77" filter="url(#f56wdrh3u0iah)" style="stroke:#A80036;stroke-width:1.0;"/><path d="M2027.5,110.2551 L2027.5,120.2551 L2037.5,120.2551 L2027.5,110.2551 " fill="#FBFB77" style="stroke:#A80036;stroke-width:1.0;"/><text fill="#000000" font-family="sans-serif" font-size="13" lengthAdjust="spacing" textLength="287" x="1735.5" y="127.322">FulfillmentOption, RequestedInformation and</text><text fill="#000000" font-family="sans-serif" font-size="13" lengthAdjust="spacing" textLength="250" x="1735.5" y="142.4548">TicketTimeLimit are only meaningful at</text><text fill="#000000" font-family="sans-serif" font-size="13" lengthAdjust="spacing" textLength="116" x="1735.5" y="157.5876">pre-booking stage</text><!--MD5=[bbaf3bfc2504393264cdbed4ab175f54]
reverse link Booking to Passenger--><path codeLine="133" d="M959.386,137.7551 C966.479,137.7551 973.572,137.7551 980.665,137.7551 " fill="none" id="Booking-backto-Passenger" style="stroke:#A80036;stroke-width:1.0;"/><polygon fill="#A80036" points="946.188,137.7551,952.188,141.7551,958.188,137.7551,952.188,133.7551,946.188,137.7551" style="stroke:#A80036;stroke-width:1.0;"/><text fill="#000000" font-family="sans-serif" font-size="13" lengthAdjust="spacing" textLength="8" x="953.8264" y="134.3349">1</text><text fill="#000000" font-family="sans-serif" font-size="13" lengthAdjust="spacing" textLength="24" x="954.115" y="133.9134">1..n</text><!--MD5=[1f11ffc9d53fe7a2d2896ee7318c2f43]
reverse link Booking to FulfillmentOption--><path codeLine="134" d="M849.999,220.0971 C857.118,262.9921 865.419,313.0111 870.568,344.0351 " fill="none" id="Booking-backto-FulfillmentOption" style="stroke:#A80036;stroke-width:1.0;"/><polygon fill="#A80036" points="847.833,207.0421,844.8694,213.6161,849.7979,218.8802,852.7615,212.3062,847.833,207.0421" style="stroke:#A80036;stroke-width:1.0;"/><text fill="#000000" font-family="sans-serif" font-size="13" lengthAdjust="spacing" textLength="8" x="840.5319" y="226.4516">1</text><text fill="#000000" font-family="sans-serif" font-size="13" lengthAdjust="spacing" textLength="24" x="843.0758" y="333.253">1..n</text><!--MD5=[77a6f93cc9cfc56e429b9a6a20d59e96]
link Booking to RefundOffer--><path codeLine="135" d="M922.493,68.6581 C940.831,57.3741 960.792,47.3821 981,41.2551 C1019.07,29.7131 1122.67,27.5291 1160,41.2551 C1173.84,46.3421 1187.14,53.9481 1199.46,62.6991 " fill="none" id="Booking-RefundOffer" style="stroke:#A80036;stroke-width:1.0;"/><text fill="#000000" font-family="sans-serif" font-size="13" lengthAdjust="spacing" textLength="8" x="922.9485" y="57.8517">1</text><text fill="#000000" font-family="sans-serif" font-size="13" lengthAdjust="spacing" textLength="24" x="1166.9904" y="51.6244">0..n</text><!--MD5=[7e8a30c592bf5587e8cf4e8c8c0ad374]
link Booking to ExchangeOperation--><path codeLine="136" d="M922.493,68.6581 C940.831,57.3741 960.792,47.3821 981,41.2551 C1020.45,29.2941 1313.34,26.9531 1352,41.2551 C1371.83,48.5891 1390.41,61.3121 1406.48,75.1571 " fill="none" id="Booking-ExchangeOperation" style="stroke:#A80036;stroke-width:1.0;"/><text fill="#000000" font-family="sans-serif" font-size="13" lengthAdjust="spacing" textLength="8" x="931.7735" y="57.8517">1</text><text fill="#000000" font-family="sans-serif" font-size="13" lengthAdjust="spacing" textLength="24" x="1374.6152" y="64.1366">0..n</text><!--MD5=[e022d1574901bb160c728ef4e2d9f563]
link RefundOffer to Fulfillment--><path codeLine="137" d="M1273.5,212.7881 C1273.5,249.3821 1273.5,292.5241 1273.5,324.9291 " fill="none" id="RefundOffer-Fulfillment" style="stroke:#A80036;stroke-width:1.0;"/><text fill="#000000" font-family="sans-serif" font-size="13" lengthAdjust="spacing" textLength="8" x="1265.0875" y="233.3505">1</text><text fill="#000000" font-family="sans-serif" font-size="13" lengthAdjust="spacing" textLength="24" x="1247.8875" y="314.2871">1..n</text><!--MD5=[d0a9fe22cca375e66760ef55674ea2fd]
link ExchangeOperation to Fulfillment--><path codeLine="138" d="M1412.84,200.4981 C1381.56,239.3911 1341.75,288.8941 1312.7,325.0181 " fill="none" id="ExchangeOperation-Fulfillment" style="stroke:#A80036;stroke-width:1.0;"/><text fill="#000000" font-family="sans-serif" font-size="13" lengthAdjust="spacing" textLength="8" x="1398.9709" y="220.2645">1</text><text fill="#000000" font-family="sans-serif" font-size="13" lengthAdjust="spacing" textLength="24" x="1292.525" y="314.03">1..n</text><!--MD5=[ccd125366f2b9d678bbb2b2ab0be426c]
link ExchangeOperation to ExchangeOffer--><path codeLine="139" d="M1537.65,137.7551 C1549.38,137.7551 1561.11,137.7551 1572.84,137.7551 " fill="none" id="ExchangeOperation-ExchangeOffer" style="stroke:#A80036;stroke-width:1.0;"/><text fill="#000000" font-family="sans-serif" font-size="13" lengthAdjust="spacing" textLength="8" x="1545.4413" y="134.0987">1</text><text fill="#000000" font-family="sans-serif" font-size="13" lengthAdjust="spacing" textLength="24" x="1545.5537" y="133.5756">1..n</text><!--MD5=[2cb0b04762941feb5571e0d42311b89e]
reverse link Booking to BookedOffer--><path codeLine="140" d="M718.757,213.7471 C715.646,215.6131 712.556,217.4521 709.5,219.2551 C664.666,245.7091 615.078,273.3911 570.147,297.8961 " fill="none" id="Booking-backto-BookedOffer" style="stroke:#A80036;stroke-width:1.0;"/><polygon fill="#A80036" points="730.093,206.8921,722.8889,206.5734,719.824,213.1008,727.028,213.4194,730.093,206.8921" style="stroke:#A80036;stroke-width:1.0;"/><text fill="#000000" font-family="sans-serif" font-size="13" lengthAdjust="spacing" textLength="8" x="711.2248" y="226.5276">1</text><text fill="#000000" font-family="sans-serif" font-size="13" lengthAdjust="spacing" textLength="24" x="578.121" y="290.6205">1..2</text><!--MD5=[6f8e69572df5281d1314b6a42244d8df]
reverse link Trip to Segment--><path codeLine="141" d="M75.4253,596.7551 C82.7492,596.7551 90.0731,596.7551 97.3971,596.7551 " fill="none" id="Trip-backto-Segment" style="stroke:#A80036;stroke-width:1.0;"/><polygon fill="#A80036" points="62.2422,596.7551,68.2422,600.7551,74.2422,596.7551,68.2422,592.7551,62.2422,596.7551" style="stroke:#A80036;stroke-width:1.0;"/><text fill="#000000" font-family="sans-serif" font-size="13" lengthAdjust="spacing" textLength="8" x="69.9794" y="592.0101">1</text><text fill="#000000" font-family="sans-serif" font-size="13" lengthAdjust="spacing" textLength="24" x="65.6483" y="592.7767">1..n</text><!--MD5=[f41f376661054603b8a6a3341b744379]
reverse link Booking to Fulfillment--><path codeLine="142" d="M953.501,213.5311 C956.858,215.4791 960.196,217.3911 963.5,219.2551 C1048.48,267.1951 1150.26,316.4281 1213.42,346.0581 " fill="none" id="Booking-backto-Fulfillment" style="stroke:#A80036;stroke-width:1.0;"/><polygon fill="#A80036" points="942.03,206.7851,945.1736,213.2749,952.3733,212.8693,949.2297,206.3794,942.03,206.7851" style="stroke:#A80036;stroke-width:1.0;"/><text fill="#000000" font-family="sans-serif" font-size="13" lengthAdjust="spacing" textLength="8" x="944.0244" y="226.4101">1</text><text fill="#000000" font-family="sans-serif" font-size="13" lengthAdjust="spacing" textLength="24" x="1181.5363" y="339.1613">0..n</text><!--MD5=[a9bb78affbcdfd82a3d01633b4701108]
reverse link Admission to Product--><path codeLine="144" d="M456.911,655.7081 C484.609,682.7261 515.987,713.3349 536.88,733.7148 " fill="none" id="Admission-backto-Product" style="stroke:#A80036;stroke-width:1.0;"/><polygon fill="#A80036" points="447.291,646.3241,448.793,653.3771,455.8811,654.7033,454.3791,647.6503,447.291,646.3241" style="stroke:#A80036;stroke-width:1.0;"/><text fill="#000000" font-family="sans-serif" font-size="13" lengthAdjust="spacing" textLength="8" x="445.7304" y="666.4103">1</text><text fill="#000000" font-family="sans-serif" font-size="13" lengthAdjust="spacing" textLength="24" x="503.7524" y="722.7165">1..n</text><!--MD5=[8f5f683d304db4d4e3db74e8a0b40eac]
reverse link Reservation to Product--><path codeLine="145" d="M745.375,644.7091 C702.726,662.0211 656.363,683.5351 616.5,708.2551 C604.914,715.44 593.321,724.9901 583.714,733.7149 " fill="none" id="Reservation-backto-Product" style="stroke:#A80036;stroke-width:1.0;"/><polygon fill="#A80036" points="757.591,639.8221,750.5345,638.3369,746.4495,644.2793,753.5059,645.7645,757.591,639.8221" style="stroke:#A80036;stroke-width:1.0;"/><text fill="#000000" font-family="sans-serif" font-size="13" lengthAdjust="spacing" textLength="8" x="728.5717" y="660.2409">1</text><text fill="#000000" font-family="sans-serif" font-size="13" lengthAdjust="spacing" textLength="24" x="592.7376" y="722.7167">0..1</text><!--MD5=[ee2f2848da7064fd5460d7a4f124ddca]
reverse link Ancillary to Product--><path codeLine="146" d="M640.202,638.3191 C619.888,668.5051 592.882,708.6364 576.101,733.5727 " fill="none" id="Ancillary-backto-Product" style="stroke:#A80036;stroke-width:1.0;"/><polygon fill="#A80036" points="647.625,627.2891,640.9566,630.0336,640.9251,637.2446,647.5936,634.5002,647.625,627.2891" style="stroke:#A80036;stroke-width:1.0;"/><text fill="#000000" font-family="sans-serif" font-size="13" lengthAdjust="spacing" textLength="8" x="634.7008" y="647.2344">1</text><text fill="#000000" font-family="sans-serif" font-size="13" lengthAdjust="spacing" textLength="24" x="553.0238" y="722.538">0..1</text><!--MD5=[cb5b2ab7ae9049c5d0682deb91aaf482]
reverse link BookedOffer to Admission--><path codeLine="148" d="M412.969,482.3171 C409.872,505.0241 406.749,527.9281 404.128,547.1511 " fill="none" id="BookedOffer-backto-Admission" style="stroke:#A80036;stroke-width:1.0;"/><polygon fill="#A80036" points="414.734,469.3741,409.9603,474.779,413.1134,481.2642,417.8871,475.8594,414.734,469.3741" style="stroke:#A80036;stroke-width:1.0;"/><text fill="#000000" font-family="sans-serif" font-size="13" lengthAdjust="spacing" textLength="8" x="405.4504" y="489.2703">1</text><text fill="#000000" font-family="sans-serif" font-size="13" lengthAdjust="spacing" textLength="24" x="379.3726" y="536.1817">0..n</text><!--MD5=[5a2161b35f90f0b8203bc422c679ba23]
reverse link BookedOffer to Reservation--><path codeLine="149" d="M581.93,450.7541 C652.72,485.1331 733.994,524.6041 793.855,553.6761 " fill="none" id="BookedOffer-backto-Reservation" style="stroke:#A80036;stroke-width:1.0;"/><polygon fill="#A80036" points="570.21,445.0621,573.8592,451.2817,581.0039,450.3054,577.3547,444.0858,570.21,445.0621" style="stroke:#A80036;stroke-width:1.0;"/><text fill="#000000" font-family="sans-serif" font-size="13" lengthAdjust="spacing" textLength="8" x="577.7747" y="445.3748">1</text><text fill="#000000" font-family="sans-serif" font-size="13" lengthAdjust="spacing" textLength="24" x="781.9585" y="542.6596">0..n</text><!--MD5=[676b6e0a62577e2e53906bcd38b2fde5]
reverse link BookedOffer to Fare--><path codeLine="150" d="M342.977,479.6381 C314.675,514.4231 285.707,550.0261 267.44,572.4761 " fill="none" id="BookedOffer-backto-Fare" style="stroke:#A80036;stroke-width:1.0;"/><polygon fill="#A80036" points="351.328,469.3741,344.4386,471.504,343.7549,478.6826,350.6443,476.5527,351.328,469.3741" style="stroke:#A80036;stroke-width:1.0;"/><text fill="#000000" font-family="sans-serif" font-size="13" lengthAdjust="spacing" textLength="8" x="337.1898" y="489.2703">1</text><text fill="#000000" font-family="sans-serif" font-size="13" lengthAdjust="spacing" textLength="24" x="245.1316" y="561.8131">0..n</text><!--MD5=[84224ea54d5d3ac863cd091e746707d2]
reverse link BookedOffer to Ancillary--><path codeLine="151" d="M452.209,481.1971 C458.338,493.9971 465.978,506.1101 475.5,516.2551 C515.868,559.2661 582.989,579.7651 626.225,588.9641 " fill="none" id="BookedOffer-backto-Ancillary" style="stroke:#A80036;stroke-width:1.0;"/><polygon fill="#A80036" points="446.995,469.2851,445.7367,476.3856,451.807,480.278,453.0653,473.1776,446.995,469.2851" style="stroke:#A80036;stroke-width:1.0;"/><text fill="#000000" font-family="sans-serif" font-size="13" lengthAdjust="spacing" textLength="8" x="440.1813" y="489.1745">1</text><text fill="#000000" font-family="sans-serif" font-size="13" lengthAdjust="spacing" textLength="24" x="594.4002" y="583.8093">0..n</text><!--MD5=[3b7375480ac95467812a05037db39587]
reverse link BookedOffer to Trip--><path codeLine="152" d="M272.592,436.4811 C209.585,464.9391 137.994,502.3141 79.5,546.2551 C69.5641,553.7191 60.0726,563.5911 52.3898,572.5541 " fill="none" id="BookedOffer-backto-Trip" style="stroke:#A80036;stroke-width:1.0;"/><polygon fill="#A80036" points="284.661,431.0901,277.5514,429.8846,273.7041,435.9837,280.8138,437.1892,284.661,431.0901" style="stroke:#A80036;stroke-width:1.0;"/><text fill="#000000" font-family="sans-serif" font-size="13" lengthAdjust="spacing" textLength="8" x="269.0896" y="430.6823">1</text><text fill="#000000" font-family="sans-serif" font-size="13" lengthAdjust="spacing" textLength="24" x="29.8991" y="561.5147">0..1</text><!--MD5=[c8c1a14b533f690e058d76d6e20e5745]
reverse link OfferPart to Admission--><path codeLine="153" d="M722.424,418.7591 C713.681,449.9981 697.389,491.0541 668.5,516.2551 C640.511,540.6701 550.739,564.0311 482.113,579.0341 " fill="none" id="OfferPart-backto-Admission" style="stroke:#A80036;stroke-width:1.0;"/><polygon fill="none" points="715.714,416.7351,727.333,399.0151,729.301,420.1131,715.714,416.7351" style="stroke:#A80036;stroke-width:1.0;"/><!--MD5=[4b3d5e1d338dba5224f04defe615ab45]
reverse link OfferPart to Reservation--><path codeLine="154" d="M756.79,415.9881 C767.36,432.5861 779.868,451.9501 791.5,469.2551 C810.6,497.6691 832.751,529.1591 850.176,553.6121 " fill="none" id="OfferPart-backto-Reservation" style="stroke:#A80036;stroke-width:1.0;"/><polygon fill="none" points="750.81,419.6301,746.023,398.9881,762.638,412.1391,750.81,419.6301" style="stroke:#A80036;stroke-width:1.0;"/><!--MD5=[bf4fcd89834435245c28bfed16ed0d8c]
reverse link OfferPart to Ancillary--><path codeLine="155" d="M731.806,418.8701 C730.828,447.2291 727.259,484.7791 716.5,516.2551 C710.47,533.8981 699.969,551.7331 690.231,566.0271 " fill="none" id="OfferPart-backto-Ancillary" style="stroke:#A80036;stroke-width:1.0;"/><polygon fill="none" points="724.808,418.6961,732.124,398.8091,738.806,418.9181,724.808,418.6961" style="stroke:#A80036;stroke-width:1.0;"/><!--MD5=[0f2af4f42ff76ddb39f363a61522c83b]
link Admission to Reservation--><path codeLine="156" d="M435.068,547.1711 C448.254,533.5551 464.258,520.5421 482,513.2551 C520.028,497.6361 626.601,505.6361 667,513.2551 C707.799,520.9491 750.798,536.2381 787.43,551.6541 " fill="none" id="Admission-to-Reservation" style="stroke:#A80036;stroke-width:1.0;stroke-dasharray:7.0,7.0;"/><polygon fill="#A80036" points="792.325,553.7301,785.6021,546.5327,787.7221,551.7773,782.4776,553.8973,792.325,553.7301" style="stroke:#A80036;stroke-width:1.0;"/><text fill="#000000" font-family="sans-serif" font-size="13" lengthAdjust="spacing" textLength="183" x="483" y="512.322">optional/included/mandatory</text><text fill="#000000" font-family="sans-serif" font-size="13" lengthAdjust="spacing" textLength="24" x="752.3596" y="542.7222">0..n</text><!--MD5=[654f46b0594279e7aac88b1a6e1aa98d]
link Admission to Ancillary--><path codeLine="157" d="M482.189,596.7551 C528.219,596.7551 583.356,596.7551 621.456,596.7551 " fill="none" id="Admission-to-Ancillary" style="stroke:#A80036;stroke-width:1.0;stroke-dasharray:7.0,7.0;"/><polygon fill="#A80036" points="626.482,596.7551,617.482,592.7551,621.482,596.7551,617.482,600.7551,626.482,596.7551" style="stroke:#A80036;stroke-width:1.0;"/><text fill="#000000" font-family="sans-serif" font-size="13" lengthAdjust="spacing" textLength="108" x="500.25" y="589.822">optional/included</text><text fill="#000000" font-family="sans-serif" font-size="13" lengthAdjust="spacing" textLength="24" x="594.3636" y="609.9956">0..n</text><!--MD5=[cc96c5c168b606f1edfd6210e68b3211]
reverse link Reservation to ReservationDetails_ReservedPlaces--><path codeLine="158" d="M970.71,646.2131 C1007.29,665.8601 1049.45,688.5081 1086.05,708.169 " fill="none" id="Reservation-backto-ReservationDetails_ReservedPlaces" style="stroke:#A80036;stroke-width:1.0;"/><polygon fill="#A80036" points="959.045,639.9471,962.4381,646.3101,969.6166,645.6252,966.2235,639.2623,959.045,639.9471" style="stroke:#A80036;stroke-width:1.0;"/><text fill="#000000" font-family="sans-serif" font-size="13" lengthAdjust="spacing" textLength="24" x="1047.643" y="697.2023">1..n</text><!--MD5=[f285229affa4109e085df2c7f3c65979]
@startuml
title: Bookings Data Model

class Trip <<R,Orchid>> #linen {
}

class Segment <<D, Green>> #linen {
}

class BookedOffer <<R,orchid>> #lightcyan { 
id
minimalPrice: price
overallServiceClass: FIRST/SECOND
overallServiceRank: FIRST_A,B,C/SECOND_A,B,C
overallFlexibility: FULL/SEMI/NONE
validFrom: date
validTo: date
requestedInformation: String
OfferParts: [OfferParts]
Fares:[Fares]
Trip: Trip
} 

class ExchangeOffer <<R,orchid>> #lightgreen { 
id
Offer
ExchangeFee
ExchangeBalance
} 

abstract class OfferPart <<D,green>> #lightgrey {
}

class Ancillary <<R,orchid>> {
category
}

class Admission <<R,orchid>> {
reservationRequired 
reservations: [reservations]
ancillaries: [ancillaries]
<<opt>> numericAvailability
}

class Reservation<<R,orchid>> {
<<opt>> numericAvailability
reservationDetails: {reservation details}
placeSelection: {place selection information}
} 

class Product <<R,orchid>> {
}

class Fare <<R,orchid>> {

}

class Passenger <<R, orchid>> {
id
externalPassengerReference
dateOfBirth
gender
LastName
Firstname
PassportInformation
Reductions
Type
}

class Booking <<R,orchid>> #lightcyan {
id
status
bookingMessages
requestedInformation
ticketTimeLimit
fulfillmentOptions: fulfillmentOptions
bookedOffers: Offers

}
note left: possible states PREBOOKED, BOOKED, FULFILLED, CANCELLED\n Booked represents the state between the booking\nconfirmation and the issuance of the tickets.

class FulfillmentOption <<D,green>> #lightcyan  {
type
}

class ReservationDetails_ReservedPlaces<<D, green>> #lightcyan {
passengerId
<<opt>> placeNumber
<<opt>> coachNumber
<<opt>> direction
}

note right of Product
reference is the unique internal id that allows to
link fulfillments to products. It has no functional meaning
end note

class Fulfillment  <<R,orchid>> #bisque{
id
status
tcn
productReferences
}

class RefundOffer <<R, orchid>> #lightgreen {
  id
  validUntil
  reimbursementStatus
  reimbursementDateTime
  appliedOverrule
  fulfillments:[fulfillments]
  RefundFee
  RefundableAmount 
}

class ExchangeOperation <<R, orchid>> #lightgreen {
     id
     Status
     exchangeOffers
     fulfillments
     ticketTimeLimit
     fulfillmentType
}

note bottom of Fulfillment
Possible statuses:
TICKETED
CANCELLED: following a refund operation
BOARDED: checked on board by a controlling agency.

Tcn:  unique ticket number for a railway
end note

Booking "1"*-"1..n" Passenger
Booking "1"*- -"1..n" FulfillmentOption
Booking "1"-"0..n" RefundOffer
Booking "1"-"0..n" ExchangeOperation
RefundOffer "1"- -"1..n" Fulfillment
ExchangeOperation "1"- -"1..n" Fulfillment
ExchangeOperation "1"-"1..n" ExchangeOffer
Booking "1"*- -"1..2" BookedOffer
Trip "1" *- "1..n" Segment
Booking "1"*- -"0..n" Fulfillment

Admission "1"*- -"1..n" Product
Reservation"1"*- -"0..1" Product
Ancillary "1"*- -"0..1" Product

BookedOffer "1" *- - "0..n" Admission
BookedOffer "1" *- - "0..n" Reservation
BookedOffer "1" *- - "0..n" Fare
BookedOffer "1" *- - "0..n" Ancillary
BookedOffer "1"*- -"0..1" Trip
OfferPart <|- - Admission
OfferPart <|- - Reservation
OfferPart <|- - Ancillary
Admission .>"0..n" Reservation:optional/included/mandatory
Admission .>"0..n" Ancillary:optional/included
Reservation*- -"1..n" ReservationDetails_ReservedPlaces

note as floatingNote
FulfillmentOption, RequestedInformation and
TicketTimeLimit are only meaningful at 
pre-booking stage
end note
@enduml

PlantUML version 1.2021.01beta3(Unknown compile time)
(GPL source distribution)
Java Runtime: Java(TM) SE Runtime Environment
JVM: Java HotSpot(TM) 64-Bit Server VM
Default Encoding: UTF-8
Language: en
Country: US
--></g></svg>