<?xml version="1.0" encoding="UTF-8" standalone="no"?><svg xmlns="http://www.w3.org/2000/svg" xmlns:xlink="http://www.w3.org/1999/xlink" contentScriptType="application/ecmascript" contentStyleType="text/css" height="285px" preserveAspectRatio="none" style="width:505px;height:285px;" version="1.1" viewBox="0 0 505 285" width="505px" zoomAndPan="magnify"><defs><filter height="300%" id="f1cx20w9n7ti3e" width="300%" x="-1" y="-1"><feGaussianBlur result="blurOut" stdDeviation="2.0"/><feColorMatrix in="blurOut" result="blurOut2" type="matrix" values="0 0 0 0 0 0 0 0 0 0 0 0 0 0 0 0 0 0 .4 0"/><feOffset dx="4.0" dy="4.0" in="blurOut2" result="blurOut3"/><feBlend in="SourceGraphic" in2="blurOut3" mode="normal"/></filter></defs><g><!--MD5=[6b13f1b330d33795af281e5c1dfe1e98]
class Resource--><rect codeLine="1" fill="#FFFFFF" filter="url(#f1cx20w9n7ti3e)" height="48" id="Resource" style="stroke:#A80036;stroke-width:1.5;" width="91" x="31" y="7"/><ellipse cx="46" cy="23" fill="#DA70D6" rx="11" ry="11" style="stroke:#A80036;stroke-width:1.0;"/><path d="M47.2031,23.1406 Q47.5625,23.2188 47.8281,23.5 Q48.1094,23.7656 48.5,24.5469 L50.7344,29 L48.0469,29 L46.5469,25.875 Q46.4844,25.7344 46.375,25.5 Q45.7188,24.1094 44.8281,24.1094 L44.0469,24.1094 L44.0469,29 L41.6094,29 L41.6094,16.6094 L45.1406,16.6094 Q47.5313,16.6094 48.5625,17.4531 Q49.6094,18.2969 49.6094,20.2031 Q49.6094,21.4844 48.9844,22.25 Q48.375,23 47.2031,23.1406 Z M44.0469,18.6719 L44.0469,22.0469 L45.2031,22.0469 Q46.2188,22.0469 46.6406,21.6563 Q47.0781,21.25 47.0781,20.3438 Q47.0781,19.4531 46.6406,19.0625 Q46.2188,18.6719 45.2031,18.6719 L44.0469,18.6719 Z " fill="#000000"/><text fill="#000000" font-family="sans-serif" font-size="12" lengthAdjust="spacingAndGlyphs" textLength="59" x="60" y="27.1543">Resource</text><line style="stroke:#A80036;stroke-width:1.5;" x1="32" x2="121" y1="39" y2="39"/><line style="stroke:#A80036;stroke-width:1.5;" x1="32" x2="121" y1="47" y2="47"/><!--MD5=[3c21486fd2f5f0dc520693a09408f01f]
class Data_Structure--><rect codeLine="4" fill="#FFFFFF" filter="url(#f1cx20w9n7ti3e)" height="48" id="Data_Structure" style="stroke:#A80036;stroke-width:1.5;" width="127" x="157" y="7"/><ellipse cx="172" cy="23" fill="#008000" rx="11" ry="11" style="stroke:#A80036;stroke-width:1.0;"/><path d="M171.5938,18.8125 L171.5938,26.7969 L172.25,26.7969 Q173.6875,26.7969 174.2969,25.8906 Q174.9219,24.9688 174.9219,22.7969 Q174.9219,20.625 174.2969,19.7188 Q173.6875,18.8125 172.25,18.8125 L171.5938,18.8125 Z M169.1406,16.6094 L171.7656,16.6094 Q174.7969,16.6094 176.125,18.0625 Q177.4688,19.5 177.4688,22.7969 Q177.4688,26.0938 176.125,27.5469 Q174.7969,29 171.7656,29 L169.1406,29 L169.1406,16.6094 Z " fill="#000000"/><text fill="#000000" font-family="sans-serif" font-size="12" lengthAdjust="spacingAndGlyphs" textLength="95" x="186" y="27.1543">Data_Structure</text><line style="stroke:#A80036;stroke-width:1.5;" x1="158" x2="283" y1="39" y2="39"/><line style="stroke:#A80036;stroke-width:1.5;" x1="158" x2="283" y1="47" y2="47"/><!--MD5=[103e08a9c7f1bd94fcd1c810be2772a3]
class Trips_Locations_space--><rect codeLine="7" fill="#FAF0E6" filter="url(#f1cx20w9n7ti3e)" height="48" id="Trips_Locations_space" style="stroke:#A80036;stroke-width:1.5;" width="172" x="319.5" y="7"/><ellipse cx="334.5" cy="23" fill="#ADD1B2" rx="11" ry="11" style="stroke:#A80036;stroke-width:1.0;"/><path d="M337.4688,28.6406 Q336.8906,28.9375 336.25,29.0781 Q335.6094,29.2344 334.9063,29.2344 Q332.4063,29.2344 331.0781,27.5938 Q329.7656,25.9375 329.7656,22.8125 Q329.7656,19.6875 331.0781,18.0313 Q332.4063,16.375 334.9063,16.375 Q335.6094,16.375 336.25,16.5313 Q336.9063,16.6875 337.4688,16.9844 L337.4688,19.7031 Q336.8438,19.125 336.25,18.8594 Q335.6563,18.5781 335.0313,18.5781 Q333.6875,18.5781 333,19.6563 Q332.3125,20.7188 332.3125,22.8125 Q332.3125,24.9063 333,25.9844 Q333.6875,27.0469 335.0313,27.0469 Q335.6563,27.0469 336.25,26.7813 Q336.8438,26.5 337.4688,25.9219 L337.4688,28.6406 Z " fill="#000000"/><text fill="#000000" font-family="sans-serif" font-size="12" lengthAdjust="spacingAndGlyphs" textLength="140" x="348.5" y="27.1543">Trips_Locations_space</text><line style="stroke:#A80036;stroke-width:1.5;" x1="320.5" x2="490.5" y1="39" y2="39"/><line style="stroke:#A80036;stroke-width:1.5;" x1="320.5" x2="490.5" y1="47" y2="47"/><!--MD5=[992d59faae49c7fa78a5e04e55b269a9]
class Offer_space--><rect codeLine="10" fill="#FEFECE" filter="url(#f1cx20w9n7ti3e)" height="48" id="Offer_space" style="stroke:#A80036;stroke-width:1.5;" width="106" x="23.5" y="115"/><ellipse cx="38.5" cy="131" fill="#ADD1B2" rx="11" ry="11" style="stroke:#A80036;stroke-width:1.0;"/><path d="M41.4688,136.6406 Q40.8906,136.9375 40.25,137.0781 Q39.6094,137.2344 38.9063,137.2344 Q36.4063,137.2344 35.0781,135.5938 Q33.7656,133.9375 33.7656,130.8125 Q33.7656,127.6875 35.0781,126.0313 Q36.4063,124.375 38.9063,124.375 Q39.6094,124.375 40.25,124.5313 Q40.9063,124.6875 41.4688,124.9844 L41.4688,127.7031 Q40.8438,127.125 40.25,126.8594 Q39.6563,126.5781 39.0313,126.5781 Q37.6875,126.5781 37,127.6563 Q36.3125,128.7188 36.3125,130.8125 Q36.3125,132.9063 37,133.9844 Q37.6875,135.0469 39.0313,135.0469 Q39.6563,135.0469 40.25,134.7813 Q40.8438,134.5 41.4688,133.9219 L41.4688,136.6406 Z " fill="#000000"/><text fill="#000000" font-family="sans-serif" font-size="12" lengthAdjust="spacingAndGlyphs" textLength="74" x="52.5" y="135.1543">Offer_space</text><line style="stroke:#A80036;stroke-width:1.5;" x1="24.5" x2="128.5" y1="147" y2="147"/><line style="stroke:#A80036;stroke-width:1.5;" x1="24.5" x2="128.5" y1="155" y2="155"/><!--MD5=[0dac18a338220141ca1fda10b8eeff49]
class Booking_space--><rect codeLine="13" fill="#E0FFFF" filter="url(#f1cx20w9n7ti3e)" height="48" id="Booking_space" style="stroke:#A80036;stroke-width:1.5;" width="126" x="164.5" y="115"/><ellipse cx="179.5" cy="131" fill="#ADD1B2" rx="11" ry="11" style="stroke:#A80036;stroke-width:1.0;"/><path d="M182.4688,136.6406 Q181.8906,136.9375 181.25,137.0781 Q180.6094,137.2344 179.9063,137.2344 Q177.4063,137.2344 176.0781,135.5938 Q174.7656,133.9375 174.7656,130.8125 Q174.7656,127.6875 176.0781,126.0313 Q177.4063,124.375 179.9063,124.375 Q180.6094,124.375 181.25,124.5313 Q181.9063,124.6875 182.4688,124.9844 L182.4688,127.7031 Q181.8438,127.125 181.25,126.8594 Q180.6563,126.5781 180.0313,126.5781 Q178.6875,126.5781 178,127.6563 Q177.3125,128.7188 177.3125,130.8125 Q177.3125,132.9063 178,133.9844 Q178.6875,135.0469 180.0313,135.0469 Q180.6563,135.0469 181.25,134.7813 Q181.8438,134.5 182.4688,133.9219 L182.4688,136.6406 Z " fill="#000000"/><text fill="#000000" font-family="sans-serif" font-size="12" lengthAdjust="spacingAndGlyphs" textLength="94" x="193.5" y="135.1543">Booking_space</text><line style="stroke:#A80036;stroke-width:1.5;" x1="165.5" x2="289.5" y1="147" y2="147"/><line style="stroke:#A80036;stroke-width:1.5;" x1="165.5" x2="289.5" y1="155" y2="155"/><!--MD5=[e8ed2c2362a4e94bee5a6f7746182742]
class Fulfillment_space--><rect codeLine="16" fill="#FFE4C4" filter="url(#f1cx20w9n7ti3e)" height="48" id="Fulfillment_space" style="stroke:#A80036;stroke-width:1.5;" width="139" x="326" y="115"/><ellipse cx="341" cy="131" fill="#ADD1B2" rx="11" ry="11" style="stroke:#A80036;stroke-width:1.0;"/><path d="M343.9688,136.6406 Q343.3906,136.9375 342.75,137.0781 Q342.1094,137.2344 341.4063,137.2344 Q338.9063,137.2344 337.5781,135.5938 Q336.2656,133.9375 336.2656,130.8125 Q336.2656,127.6875 337.5781,126.0313 Q338.9063,124.375 341.4063,124.375 Q342.1094,124.375 342.75,124.5313 Q343.4063,124.6875 343.9688,124.9844 L343.9688,127.7031 Q343.3438,127.125 342.75,126.8594 Q342.1563,126.5781 341.5313,126.5781 Q340.1875,126.5781 339.5,127.6563 Q338.8125,128.7188 338.8125,130.8125 Q338.8125,132.9063 339.5,133.9844 Q340.1875,135.0469 341.5313,135.0469 Q342.1563,135.0469 342.75,134.7813 Q343.3438,134.5 343.9688,133.9219 L343.9688,136.6406 Z " fill="#000000"/><text fill="#000000" font-family="sans-serif" font-size="12" lengthAdjust="spacingAndGlyphs" textLength="107" x="355" y="135.1543">Fulfillment_space</text><line style="stroke:#A80036;stroke-width:1.5;" x1="327" x2="464" y1="147" y2="147"/><line style="stroke:#A80036;stroke-width:1.5;" x1="327" x2="464" y1="155" y2="155"/><!--MD5=[e2b6c4415332c426210fa57e6e2a01cf]
class Aftersales_space--><rect codeLine="19" fill="#90EE90" filter="url(#f1cx20w9n7ti3e)" height="48" id="Aftersales_space" style="stroke:#A80036;stroke-width:1.5;" width="139" x="7" y="223"/><ellipse cx="22" cy="239" fill="#ADD1B2" rx="11" ry="11" style="stroke:#A80036;stroke-width:1.0;"/><path d="M24.9688,244.6406 Q24.3906,244.9375 23.75,245.0781 Q23.1094,245.2344 22.4063,245.2344 Q19.9063,245.2344 18.5781,243.5938 Q17.2656,241.9375 17.2656,238.8125 Q17.2656,235.6875 18.5781,234.0313 Q19.9063,232.375 22.4063,232.375 Q23.1094,232.375 23.75,232.5313 Q24.4063,232.6875 24.9688,232.9844 L24.9688,235.7031 Q24.3438,235.125 23.75,234.8594 Q23.1563,234.5781 22.5313,234.5781 Q21.1875,234.5781 20.5,235.6563 Q19.8125,236.7188 19.8125,238.8125 Q19.8125,240.9063 20.5,241.9844 Q21.1875,243.0469 22.5313,243.0469 Q23.1563,243.0469 23.75,242.7813 Q24.3438,242.5 24.9688,241.9219 L24.9688,244.6406 Z " fill="#000000"/><text fill="#000000" font-family="sans-serif" font-size="12" lengthAdjust="spacingAndGlyphs" textLength="107" x="36" y="243.1543">Aftersales_space</text><line style="stroke:#A80036;stroke-width:1.5;" x1="8" x2="145" y1="255" y2="255"/><line style="stroke:#A80036;stroke-width:1.5;" x1="8" x2="145" y1="263" y2="263"/><!--MD5=[6ca6710da4d3052b57a4ebe44cfcefca]
link Resource to Data_Structure--><!--MD5=[4ffbf77e0732de43b2a563a812d6851d]
link Data_Structure to Trips_Locations_space--><!--MD5=[98dff35f05226a04c52e521fe92665c4]
link Resource to Offer_space--><!--MD5=[a2ad681083f06b33e9428900991883d2]
link Offer_space to Booking_space--><!--MD5=[2c510af0a67a387de01f67d9d9a4ab0b]
link Booking_space to Fulfillment_space--><!--MD5=[555a5e155ebd5fd07453ae6bedadbb77]
link Offer_space to Aftersales_space--><!--MD5=[7fab14608a61ea822d58402e6b62d4e8]
@startuml
class Resource <<R,Orchid>> #white {
}

class Data_Structure <<D,Green>> #white {
}

class Trips_Locations_space #linen {
}

class Offer_space {
}

class Booking_space #lightCyan {
}

class Fulfillment_space #bisque {
}

class Aftersales_space #lightgreen {
}
@enduml

PlantUML version 1.2020.22(Sun Dec 06 10:36:27 CET 2020)
(GPL source distribution)
Java Runtime: OpenJDK Runtime Environment
JVM: OpenJDK 64-Bit Server VM
Default Encoding: UTF-8
Language: en
Country: US
--></g></svg>