<?xml version="1.0" encoding="UTF-8" standalone="no"?><svg xmlns="http://www.w3.org/2000/svg" xmlns:xlink="http://www.w3.org/1999/xlink" contentScriptType="application/ecmascript" contentStyleType="text/css" height="1072px" preserveAspectRatio="none" style="width:1263px;height:1072px;" version="1.1" viewBox="0 0 1263 1072" width="1263px" zoomAndPan="magnify"><defs><filter height="300%" id="ffker4e7ndssm" width="300%" x="-1" y="-1"><feGaussianBlur result="blurOut" stdDeviation="2.0"/><feColorMatrix in="blurOut" result="blurOut2" type="matrix" values="0 0 0 0 0 0 0 0 0 0 0 0 0 0 0 0 0 0 .4 0"/><feOffset dx="4.0" dy="4.0" in="blurOut2" result="blurOut3"/><feBlend in="SourceGraphic" in2="blurOut3" mode="normal"/></filter></defs><g><text fill="#000000" font-family="sans-serif" font-size="18" lengthAdjust="spacingAndGlyphs" textLength="160" x="545" y="16.708">Offers Data Model</text><!--MD5=[18f5b4ccae6e62f3670d3aa352beb4cd]
class Trip--><rect codeLine="3" fill="#FAF0E6" filter="url(#ffker4e7ndssm)" height="48" id="Trip" style="stroke:#A80036;stroke-width:1.5;" width="55" x="905.5" y="598.9531"/><ellipse cx="920.5" cy="614.9531" fill="#DA70D6" rx="11" ry="11" style="stroke:#A80036;stroke-width:1.0;"/><path d="M921.7031,615.0938 Q922.0625,615.1719 922.3281,615.4531 Q922.6094,615.7188 923,616.5 L925.2344,620.9531 L922.5469,620.9531 L921.0469,617.8281 Q920.9844,617.6875 920.875,617.4531 Q920.2188,616.0625 919.3281,616.0625 L918.5469,616.0625 L918.5469,620.9531 L916.1094,620.9531 L916.1094,608.5625 L919.6406,608.5625 Q922.0313,608.5625 923.0625,609.4063 Q924.1094,610.25 924.1094,612.1563 Q924.1094,613.4375 923.4844,614.2031 Q922.875,614.9531 921.7031,615.0938 Z M918.5469,610.625 L918.5469,614 L919.7031,614 Q920.7188,614 921.1406,613.6094 Q921.5781,613.2031 921.5781,612.2969 Q921.5781,611.4063 921.1406,611.0156 Q920.7188,610.625 919.7031,610.625 L918.5469,610.625 Z " fill="#000000"/><text fill="#000000" font-family="sans-serif" font-size="12" lengthAdjust="spacingAndGlyphs" textLength="23" x="934.5" y="619.1074">Trip</text><line style="stroke:#A80036;stroke-width:1.5;" x1="906.5" x2="959.5" y1="630.9531" y2="630.9531"/><line style="stroke:#A80036;stroke-width:1.5;" x1="906.5" x2="959.5" y1="638.9531" y2="638.9531"/><!--MD5=[220eb97dd738422dcfb96be6c83c4129]
class Segment--><rect codeLine="6" fill="#FAF0E6" filter="url(#ffker4e7ndssm)" height="48" id="Segment" style="stroke:#A80036;stroke-width:1.5;" width="88" x="867" y="1004.4531"/><ellipse cx="882" cy="1020.4531" fill="#008000" rx="11" ry="11" style="stroke:#A80036;stroke-width:1.0;"/><path d="M881.5938,1016.2656 L881.5938,1024.25 L882.25,1024.25 Q883.6875,1024.25 884.2969,1023.3438 Q884.9219,1022.4219 884.9219,1020.25 Q884.9219,1018.0781 884.2969,1017.1719 Q883.6875,1016.2656 882.25,1016.2656 L881.5938,1016.2656 Z M879.1406,1014.0625 L881.7656,1014.0625 Q884.7969,1014.0625 886.125,1015.5156 Q887.4688,1016.9531 887.4688,1020.25 Q887.4688,1023.5469 886.125,1025 Q884.7969,1026.4531 881.7656,1026.4531 L879.1406,1026.4531 L879.1406,1014.0625 Z " fill="#000000"/><text fill="#000000" font-family="sans-serif" font-size="12" lengthAdjust="spacingAndGlyphs" textLength="56" x="896" y="1024.6074">Segment</text><line style="stroke:#A80036;stroke-width:1.5;" x1="868" x2="954" y1="1036.4531" y2="1036.4531"/><line style="stroke:#A80036;stroke-width:1.5;" x1="868" x2="954" y1="1044.4531" y2="1044.4531"/><!--MD5=[78c369a8f6b1d2cbe90c419547deb75b]
class TripOffer--><rect codeLine="9" fill="#FEFECE" filter="url(#ffker4e7ndssm)" height="99.2188" id="TripOffer" style="stroke:#A80036;stroke-width:1.5;" width="164" x="1011" y="27.9531"/><ellipse cx="1062.25" cy="43.9531" fill="#DA70D6" rx="11" ry="11" style="stroke:#A80036;stroke-width:1.0;"/><path d="M1063.4531,44.0938 Q1063.8125,44.1719 1064.0781,44.4531 Q1064.3594,44.7188 1064.75,45.5 L1066.9844,49.9531 L1064.2969,49.9531 L1062.7969,46.8281 Q1062.7344,46.6875 1062.625,46.4531 Q1061.9688,45.0625 1061.0781,45.0625 L1060.2969,45.0625 L1060.2969,49.9531 L1057.8594,49.9531 L1057.8594,37.5625 L1061.3906,37.5625 Q1063.7813,37.5625 1064.8125,38.4063 Q1065.8594,39.25 1065.8594,41.1563 Q1065.8594,42.4375 1065.2344,43.2031 Q1064.625,43.9531 1063.4531,44.0938 Z M1060.2969,39.625 L1060.2969,43 L1061.4531,43 Q1062.4688,43 1062.8906,42.6094 Q1063.3281,42.2031 1063.3281,41.2969 Q1063.3281,40.4063 1062.8906,40.0156 Q1062.4688,39.625 1061.4531,39.625 L1060.2969,39.625 Z " fill="#000000"/><text fill="#000000" font-family="sans-serif" font-size="12" lengthAdjust="spacingAndGlyphs" textLength="53" x="1082.75" y="48.1074">TripOffer</text><line style="stroke:#A80036;stroke-width:1.5;" x1="1012" x2="1174" y1="59.9531" y2="59.9531"/><text fill="#000000" font-family="sans-serif" font-size="11" lengthAdjust="spacingAndGlyphs" textLength="10" x="1017" y="74.1636">id</text><text fill="#000000" font-family="sans-serif" font-size="11" lengthAdjust="spacingAndGlyphs" textLength="68" x="1017" y="86.9683">trips: [trips]</text><text fill="#000000" font-family="sans-serif" font-size="11" lengthAdjust="spacingAndGlyphs" textLength="84" x="1017" y="99.7729">offers: [offers]</text><text fill="#000000" font-family="sans-serif" font-size="11" lengthAdjust="spacingAndGlyphs" textLength="152" x="1017" y="112.5776">passengers: [passengers]</text><line style="stroke:#A80036;stroke-width:1.5;" x1="1012" x2="1174" y1="119.1719" y2="119.1719"/><!--MD5=[af8ed831b3fe9dbd380fec6c597723ab]
class Offer--><rect codeLine="16" fill="#FEFECE" filter="url(#ffker4e7ndssm)" height="188.8516" id="Offer" style="stroke:#A80036;stroke-width:1.5;" width="284" x="293" y="187.9531"/><ellipse cx="415.75" cy="203.9531" fill="#DA70D6" rx="11" ry="11" style="stroke:#A80036;stroke-width:1.0;"/><path d="M416.9531,204.0938 Q417.3125,204.1719 417.5781,204.4531 Q417.8594,204.7188 418.25,205.5 L420.4844,209.9531 L417.7969,209.9531 L416.2969,206.8281 Q416.2344,206.6875 416.125,206.4531 Q415.4688,205.0625 414.5781,205.0625 L413.7969,205.0625 L413.7969,209.9531 L411.3594,209.9531 L411.3594,197.5625 L414.8906,197.5625 Q417.2813,197.5625 418.3125,198.4063 Q419.3594,199.25 419.3594,201.1563 Q419.3594,202.4375 418.7344,203.2031 Q418.125,203.9531 416.9531,204.0938 Z M413.7969,199.625 L413.7969,203 L414.9531,203 Q415.9688,203 416.3906,202.6094 Q416.8281,202.2031 416.8281,201.2969 Q416.8281,200.4063 416.3906,200.0156 Q415.9688,199.625 414.9531,199.625 L413.7969,199.625 Z " fill="#000000"/><text fill="#000000" font-family="sans-serif" font-size="12" lengthAdjust="spacingAndGlyphs" textLength="30" x="436.25" y="208.1074">Offer</text><line style="stroke:#A80036;stroke-width:1.5;" x1="294" x2="576" y1="219.9531" y2="219.9531"/><text fill="#000000" font-family="sans-serif" font-size="11" lengthAdjust="spacingAndGlyphs" textLength="10" x="299" y="234.1636">id</text><text fill="#000000" font-family="sans-serif" font-size="11" lengthAdjust="spacingAndGlyphs" textLength="109" x="299" y="246.9683">minimalPrice: price</text><text fill="#000000" font-family="sans-serif" font-size="11" lengthAdjust="spacingAndGlyphs" textLength="203" x="299" y="259.7729">overallServiceClass: FIRST/SECOND</text><text fill="#000000" font-family="sans-serif" font-size="11" lengthAdjust="spacingAndGlyphs" textLength="272" x="299" y="272.5776">overallServiceRank: FIRST_A,B,C/SECOND_A,B,C</text><text fill="#000000" font-family="sans-serif" font-size="11" lengthAdjust="spacingAndGlyphs" textLength="190" x="299" y="285.3823">overallFlexibility: FULL/SEMI/NONE</text><text fill="#000000" font-family="sans-serif" font-size="11" lengthAdjust="spacingAndGlyphs" textLength="88" x="299" y="298.187">validFrom: date</text><text fill="#000000" font-family="sans-serif" font-size="11" lengthAdjust="spacingAndGlyphs" textLength="84" x="299" y="310.9917">validUntil: date</text><text fill="#000000" font-family="sans-serif" font-size="11" lengthAdjust="spacingAndGlyphs" textLength="165" x="299" y="323.7964">requestedInformation: String</text><text fill="#000000" font-family="sans-serif" font-size="11" lengthAdjust="spacingAndGlyphs" textLength="134" x="299" y="336.6011">OfferParts: [OfferParts]</text><text fill="#000000" font-family="sans-serif" font-size="11" lengthAdjust="spacingAndGlyphs" textLength="76" x="299" y="349.4058">Fares:[Fares]</text><text fill="#000000" font-family="sans-serif" font-size="11" lengthAdjust="spacingAndGlyphs" textLength="52" x="299" y="362.2104">Trip: Trip</text><line style="stroke:#A80036;stroke-width:1.5;" x1="294" x2="576" y1="368.8047" y2="368.8047"/><!--MD5=[e8c16ea9d307a44f048f14324caf9e10]
class OfferPart--><rect codeLine="30" fill="#D3D3D3" filter="url(#ffker4e7ndssm)" height="188.8516" id="OfferPart" style="stroke:#A80036;stroke-width:1.5;" width="221" x="624.5" y="187.9531"/><ellipse cx="702.75" cy="203.9531" fill="#008000" rx="11" ry="11" style="stroke:#A80036;stroke-width:1.0;"/><path d="M702.3438,199.7656 L702.3438,207.75 L703,207.75 Q704.4375,207.75 705.0469,206.8438 Q705.6719,205.9219 705.6719,203.75 Q705.6719,201.5781 705.0469,200.6719 Q704.4375,199.7656 703,199.7656 L702.3438,199.7656 Z M699.8906,197.5625 L702.5156,197.5625 Q705.5469,197.5625 706.875,199.0156 Q708.2188,200.4531 708.2188,203.75 Q708.2188,207.0469 706.875,208.5 Q705.5469,209.9531 702.5156,209.9531 L699.8906,209.9531 L699.8906,197.5625 Z " fill="#000000"/><text fill="#000000" font-family="sans-serif" font-size="12" font-style="italic" lengthAdjust="spacingAndGlyphs" textLength="56" x="723.25" y="208.1074">OfferPart</text><line style="stroke:#A80036;stroke-width:1.5;" x1="625.5" x2="844.5" y1="219.9531" y2="219.9531"/><text fill="#000000" font-family="sans-serif" font-size="11" lengthAdjust="spacingAndGlyphs" textLength="10" x="630.5" y="234.1636">id</text><text fill="#000000" font-family="sans-serif" font-size="11" lengthAdjust="spacingAndGlyphs" textLength="28" x="630.5" y="246.9683">price</text><text fill="#000000" font-family="sans-serif" font-size="11" lengthAdjust="spacingAndGlyphs" textLength="209" x="630.5" y="259.7729">pricingMode: INDIVIDUAL/COLLECTIVE</text><text fill="#000000" font-family="sans-serif" font-size="11" lengthAdjust="spacingAndGlyphs" textLength="39" x="630.5" y="272.5776">validity</text><text fill="#000000" font-family="sans-serif" font-size="11" lengthAdjust="spacingAndGlyphs" textLength="101" x="630.5" y="285.3823">reductionsApplied</text><text fill="#000000" font-family="sans-serif" font-size="11" lengthAdjust="spacingAndGlyphs" textLength="125" x="630.5" y="298.187">passengerReferences</text><text fill="#000000" font-family="sans-serif" font-size="11" lengthAdjust="spacingAndGlyphs" textLength="88" x="630.5" y="310.9917">validFrom: date</text><text fill="#000000" font-family="sans-serif" font-size="11" lengthAdjust="spacingAndGlyphs" textLength="84" x="630.5" y="323.7964">validUntil: date</text><text fill="#000000" font-family="sans-serif" font-size="11" lengthAdjust="spacingAndGlyphs" textLength="152" x="630.5" y="336.6011">passengers: [passengers]</text><text fill="#000000" font-family="sans-serif" font-size="11" lengthAdjust="spacingAndGlyphs" textLength="165" x="630.5" y="349.4058">requiredPersonalData: string</text><text fill="#000000" font-family="sans-serif" font-size="11" lengthAdjust="spacingAndGlyphs" textLength="116" x="630.5" y="362.2104">products: [products]</text><line style="stroke:#A80036;stroke-width:1.5;" x1="625.5" x2="844.5" y1="368.8047" y2="368.8047"/><!--MD5=[6dff479dfce9e3b0670cb55d6657bb83]
class Ancillary--><rect codeLine="44" fill="#FEFECE" filter="url(#ffker4e7ndssm)" height="60.8047" id="Ancillary" style="stroke:#A80036;stroke-width:1.5;" width="83" x="481.5" y="592.4531"/><ellipse cx="496.5" cy="608.4531" fill="#DA70D6" rx="11" ry="11" style="stroke:#A80036;stroke-width:1.0;"/><path d="M497.7031,608.5938 Q498.0625,608.6719 498.3281,608.9531 Q498.6094,609.2188 499,610 L501.2344,614.4531 L498.5469,614.4531 L497.0469,611.3281 Q496.9844,611.1875 496.875,610.9531 Q496.2188,609.5625 495.3281,609.5625 L494.5469,609.5625 L494.5469,614.4531 L492.1094,614.4531 L492.1094,602.0625 L495.6406,602.0625 Q498.0313,602.0625 499.0625,602.9063 Q500.1094,603.75 500.1094,605.6563 Q500.1094,606.9375 499.4844,607.7031 Q498.875,608.4531 497.7031,608.5938 Z M494.5469,604.125 L494.5469,607.5 L495.7031,607.5 Q496.7188,607.5 497.1406,607.1094 Q497.5781,606.7031 497.5781,605.7969 Q497.5781,604.9063 497.1406,604.5156 Q496.7188,604.125 495.7031,604.125 L494.5469,604.125 Z " fill="#000000"/><text fill="#000000" font-family="sans-serif" font-size="12" lengthAdjust="spacingAndGlyphs" textLength="51" x="510.5" y="612.6074">Ancillary</text><line style="stroke:#A80036;stroke-width:1.5;" x1="482.5" x2="563.5" y1="624.4531" y2="624.4531"/><text fill="#000000" font-family="sans-serif" font-size="11" lengthAdjust="spacingAndGlyphs" textLength="49" x="487.5" y="638.6636">category</text><line style="stroke:#A80036;stroke-width:1.5;" x1="482.5" x2="563.5" y1="645.2578" y2="645.2578"/><!--MD5=[2865a10d554e5c53169cb668d9d489f7]
class Admission--><rect codeLine="48" fill="#FEFECE" filter="url(#ffker4e7ndssm)" height="99.2188" id="Admission" style="stroke:#A80036;stroke-width:1.5;" width="172" x="218" y="573.4531"/><ellipse cx="268.25" cy="589.4531" fill="#DA70D6" rx="11" ry="11" style="stroke:#A80036;stroke-width:1.0;"/><path d="M269.4531,589.5938 Q269.8125,589.6719 270.0781,589.9531 Q270.3594,590.2188 270.75,591 L272.9844,595.4531 L270.2969,595.4531 L268.7969,592.3281 Q268.7344,592.1875 268.625,591.9531 Q267.9688,590.5625 267.0781,590.5625 L266.2969,590.5625 L266.2969,595.4531 L263.8594,595.4531 L263.8594,583.0625 L267.3906,583.0625 Q269.7813,583.0625 270.8125,583.9063 Q271.8594,584.75 271.8594,586.6563 Q271.8594,587.9375 271.2344,588.7031 Q270.625,589.4531 269.4531,589.5938 Z M266.2969,585.125 L266.2969,588.5 L267.4531,588.5 Q268.4688,588.5 268.8906,588.1094 Q269.3281,587.7031 269.3281,586.7969 Q269.3281,585.9063 268.8906,585.5156 Q268.4688,585.125 267.4531,585.125 L266.2969,585.125 Z " fill="#000000"/><text fill="#000000" font-family="sans-serif" font-size="12" lengthAdjust="spacingAndGlyphs" textLength="63" x="288.75" y="593.6074">Admission</text><line style="stroke:#A80036;stroke-width:1.5;" x1="219" x2="389" y1="605.4531" y2="605.4531"/><text fill="#000000" font-family="sans-serif" font-size="11" lengthAdjust="spacingAndGlyphs" textLength="115" x="224" y="619.6636">reservationRequired</text><text fill="#000000" font-family="sans-serif" font-size="11" lengthAdjust="spacingAndGlyphs" textLength="160" x="224" y="632.4683">reservations: [reservations]</text><text fill="#000000" font-family="sans-serif" font-size="11" lengthAdjust="spacingAndGlyphs" textLength="132" x="224" y="645.2729">ancillaries: [ancillaries]</text><text fill="#000000" font-family="sans-serif" font-size="11" lengthAdjust="spacingAndGlyphs" textLength="141" x="224" y="658.0776">«opt» numericAvailability</text><line style="stroke:#A80036;stroke-width:1.5;" x1="219" x2="389" y1="664.6719" y2="664.6719"/><!--MD5=[9c46470aa33a0c75e6d1dfdefc2f9c22]
class Reservation--><rect codeLine="56" fill="#FEFECE" filter="url(#ffker4e7ndssm)" height="86.4141" id="Reservation" style="stroke:#A80036;stroke-width:1.5;" width="270" x="600" y="579.9531"/><ellipse cx="693.75" cy="595.9531" fill="#DA70D6" rx="11" ry="11" style="stroke:#A80036;stroke-width:1.0;"/><path d="M694.9531,596.0938 Q695.3125,596.1719 695.5781,596.4531 Q695.8594,596.7188 696.25,597.5 L698.4844,601.9531 L695.7969,601.9531 L694.2969,598.8281 Q694.2344,598.6875 694.125,598.4531 Q693.4688,597.0625 692.5781,597.0625 L691.7969,597.0625 L691.7969,601.9531 L689.3594,601.9531 L689.3594,589.5625 L692.8906,589.5625 Q695.2813,589.5625 696.3125,590.4063 Q697.3594,591.25 697.3594,593.1563 Q697.3594,594.4375 696.7344,595.2031 Q696.125,595.9531 694.9531,596.0938 Z M691.7969,591.625 L691.7969,595 L692.9531,595 Q693.9688,595 694.3906,594.6094 Q694.8281,594.2031 694.8281,593.2969 Q694.8281,592.4063 694.3906,592.0156 Q693.9688,591.625 692.9531,591.625 L691.7969,591.625 Z " fill="#000000"/><text fill="#000000" font-family="sans-serif" font-size="12" lengthAdjust="spacingAndGlyphs" textLength="74" x="714.25" y="600.1074">Reservation</text><line style="stroke:#A80036;stroke-width:1.5;" x1="601" x2="869" y1="611.9531" y2="611.9531"/><text fill="#000000" font-family="sans-serif" font-size="11" lengthAdjust="spacingAndGlyphs" textLength="141" x="606" y="626.1636">«opt» numericAvailability</text><text fill="#000000" font-family="sans-serif" font-size="11" lengthAdjust="spacingAndGlyphs" textLength="233" x="606" y="638.9683">reservationDetails: {reservation details}</text><text fill="#000000" font-family="sans-serif" font-size="11" lengthAdjust="spacingAndGlyphs" textLength="258" x="606" y="651.7729">placeSelection: {place selection information}</text><line style="stroke:#A80036;stroke-width:1.5;" x1="601" x2="869" y1="658.3672" y2="658.3672"/><!--MD5=[72136138052d025cffdce3c22fbd185f]
class Product--><rect codeLine="62" fill="#FEFECE" filter="url(#ffker4e7ndssm)" height="176.0469" id="Product" style="stroke:#A80036;stroke-width:1.5;" width="254" x="910" y="791.9531"/><ellipse cx="1008.25" cy="807.9531" fill="#DA70D6" rx="11" ry="11" style="stroke:#A80036;stroke-width:1.0;"/><path d="M1009.4531,808.0938 Q1009.8125,808.1719 1010.0781,808.4531 Q1010.3594,808.7188 1010.75,809.5 L1012.9844,813.9531 L1010.2969,813.9531 L1008.7969,810.8281 Q1008.7344,810.6875 1008.625,810.4531 Q1007.9688,809.0625 1007.0781,809.0625 L1006.2969,809.0625 L1006.2969,813.9531 L1003.8594,813.9531 L1003.8594,801.5625 L1007.3906,801.5625 Q1009.7813,801.5625 1010.8125,802.4063 Q1011.8594,803.25 1011.8594,805.1563 Q1011.8594,806.4375 1011.2344,807.2031 Q1010.625,807.9531 1009.4531,808.0938 Z M1006.2969,803.625 L1006.2969,807 L1007.4531,807 Q1008.4688,807 1008.8906,806.6094 Q1009.3281,806.2031 1009.3281,805.2969 Q1009.3281,804.4063 1008.8906,804.0156 Q1008.4688,803.625 1007.4531,803.625 L1006.2969,803.625 Z " fill="#000000"/><text fill="#000000" font-family="sans-serif" font-size="12" lengthAdjust="spacingAndGlyphs" textLength="49" x="1028.75" y="812.1074">Product</text><line style="stroke:#A80036;stroke-width:1.5;" x1="911" x2="1163" y1="823.9531" y2="823.9531"/><text fill="#000000" font-family="sans-serif" font-size="11" lengthAdjust="spacingAndGlyphs" textLength="27" x="916" y="838.1636">code</text><text fill="#000000" font-family="sans-serif" font-size="11" lengthAdjust="spacingAndGlyphs" textLength="63" x="916" y="850.9683">description</text><text fill="#000000" font-family="sans-serif" font-size="11" lengthAdjust="spacingAndGlyphs" textLength="58" x="916" y="863.7729">conditions</text><text fill="#000000" font-family="sans-serif" font-size="11" lengthAdjust="spacingAndGlyphs" textLength="237" x="916" y="876.5776">exchangeable: YES/NO/WITH_CONDITIONS</text><text fill="#000000" font-family="sans-serif" font-size="11" lengthAdjust="spacingAndGlyphs" textLength="220" x="916" y="889.3823">refundable: YES/NO/WITH_CONDITIONS</text><text fill="#000000" font-family="sans-serif" font-size="11" lengthAdjust="spacingAndGlyphs" textLength="114" x="916" y="902.187">segmentReferences</text><text fill="#000000" font-family="sans-serif" font-size="11" lengthAdjust="spacingAndGlyphs" textLength="242" x="916" y="914.9917">serviceClass: FIRST_A,B,C, SECOND_A,B,C</text><text fill="#000000" font-family="sans-serif" font-size="11" lengthAdjust="spacingAndGlyphs" textLength="98" x="916" y="927.7964">serviceRankLabel</text><text fill="#000000" font-family="sans-serif" font-size="11" lengthAdjust="spacingAndGlyphs" textLength="100" x="916" y="940.6011">serviceConstraint</text><text fill="#000000" font-family="sans-serif" font-size="11" lengthAdjust="spacingAndGlyphs" textLength="97" x="916" y="953.4058">carrierConstraint</text><line style="stroke:#A80036;stroke-width:1.5;" x1="911" x2="1163" y1="960" y2="960"/><!--MD5=[99761c19fb142d938a1f8ce67200212e]
class Fare--><rect codeLine="75" fill="#FEFECE" filter="url(#ffker4e7ndssm)" height="278.4844" id="Fare" style="stroke:#A80036;stroke-width:1.5;" width="176" x="7" y="483.9531"/><ellipse cx="76.75" cy="499.9531" fill="#DA70D6" rx="11" ry="11" style="stroke:#A80036;stroke-width:1.0;"/><path d="M77.9531,500.0938 Q78.3125,500.1719 78.5781,500.4531 Q78.8594,500.7188 79.25,501.5 L81.4844,505.9531 L78.7969,505.9531 L77.2969,502.8281 Q77.2344,502.6875 77.125,502.4531 Q76.4688,501.0625 75.5781,501.0625 L74.7969,501.0625 L74.7969,505.9531 L72.3594,505.9531 L72.3594,493.5625 L75.8906,493.5625 Q78.2813,493.5625 79.3125,494.4063 Q80.3594,495.25 80.3594,497.1563 Q80.3594,498.4375 79.7344,499.2031 Q79.125,499.9531 77.9531,500.0938 Z M74.7969,495.625 L74.7969,499 L75.9531,499 Q76.9688,499 77.3906,498.6094 Q77.8281,498.2031 77.8281,497.2969 Q77.8281,496.4063 77.3906,496.0156 Q76.9688,495.625 75.9531,495.625 L74.7969,495.625 Z " fill="#000000"/><text fill="#000000" font-family="sans-serif" font-size="12" lengthAdjust="spacingAndGlyphs" textLength="28" x="97.25" y="504.1074">Fare</text><line style="stroke:#A80036;stroke-width:1.5;" x1="8" x2="182" y1="515.9531" y2="515.9531"/><text fill="#000000" font-family="sans-serif" font-size="11" lengthAdjust="spacingAndGlyphs" textLength="16" x="13" y="530.1636">id*</text><text fill="#000000" font-family="sans-serif" font-size="11" lengthAdjust="spacingAndGlyphs" textLength="30" x="13" y="542.9683">type*</text><text fill="#000000" font-family="sans-serif" font-size="11" lengthAdjust="spacingAndGlyphs" textLength="32" x="13" y="555.7729">name</text><text fill="#000000" font-family="sans-serif" font-size="11" lengthAdjust="spacingAndGlyphs" textLength="119" x="13" y="568.5776">fareDetailDescription</text><text fill="#000000" font-family="sans-serif" font-size="11" lengthAdjust="spacingAndGlyphs" textLength="28" x="13" y="581.3823">price</text><text fill="#000000" font-family="sans-serif" font-size="11" lengthAdjust="spacingAndGlyphs" textLength="111" x="13" y="594.187">regionalConstraint*</text><text fill="#000000" font-family="sans-serif" font-size="11" lengthAdjust="spacingAndGlyphs" textLength="100" x="13" y="606.9917">serviceConstraint</text><text fill="#000000" font-family="sans-serif" font-size="11" lengthAdjust="spacingAndGlyphs" textLength="97" x="13" y="619.7964">carrierConstraint</text><text fill="#000000" font-family="sans-serif" font-size="11" lengthAdjust="spacingAndGlyphs" textLength="73" x="13" y="632.6011">serviceClass</text><text fill="#000000" font-family="sans-serif" font-size="11" lengthAdjust="spacingAndGlyphs" textLength="70" x="13" y="645.4058">serviceLevel</text><text fill="#000000" font-family="sans-serif" font-size="11" lengthAdjust="spacingAndGlyphs" textLength="118" x="13" y="658.2104">afterSalesCondition*</text><text fill="#000000" font-family="sans-serif" font-size="11" lengthAdjust="spacingAndGlyphs" textLength="134" x="13" y="671.0151">combinationConstraint*</text><text fill="#000000" font-family="sans-serif" font-size="11" lengthAdjust="spacingAndGlyphs" textLength="115" x="13" y="683.8198">fulfillmentConstraint</text><text fill="#000000" font-family="sans-serif" font-size="11" lengthAdjust="spacingAndGlyphs" textLength="112" x="13" y="696.6245">reductionConstraint</text><text fill="#000000" font-family="sans-serif" font-size="11" lengthAdjust="spacingAndGlyphs" textLength="147" x="13" y="709.4292">legacyAccountingIdentifier</text><text fill="#000000" font-family="sans-serif" font-size="11" lengthAdjust="spacingAndGlyphs" textLength="137" x="13" y="722.2339">travelValidityConstraint*</text><text fill="#000000" font-family="sans-serif" font-size="11" lengthAdjust="spacingAndGlyphs" textLength="104" x="13" y="735.0386">reservationDetails</text><text fill="#000000" font-family="sans-serif" font-size="11" lengthAdjust="spacingAndGlyphs" textLength="164" x="13" y="747.8433">reservationLegacyParameter</text><line style="stroke:#A80036;stroke-width:1.5;" x1="8" x2="182" y1="754.4375" y2="754.4375"/><!--MD5=[044d80e6112339a70fe50413576e9bf7]
class Passenger--><rect codeLine="96" fill="#FEFECE" filter="url(#ffker4e7ndssm)" height="163.2422" id="Passenger" style="stroke:#A80036;stroke-width:1.5;" width="176" x="1073" y="541.4531"/><ellipse cx="1123.25" cy="557.4531" fill="#DA70D6" rx="11" ry="11" style="stroke:#A80036;stroke-width:1.0;"/><path d="M1124.4531,557.5938 Q1124.8125,557.6719 1125.0781,557.9531 Q1125.3594,558.2188 1125.75,559 L1127.9844,563.4531 L1125.2969,563.4531 L1123.7969,560.3281 Q1123.7344,560.1875 1123.625,559.9531 Q1122.9688,558.5625 1122.0781,558.5625 L1121.2969,558.5625 L1121.2969,563.4531 L1118.8594,563.4531 L1118.8594,551.0625 L1122.3906,551.0625 Q1124.7813,551.0625 1125.8125,551.9063 Q1126.8594,552.75 1126.8594,554.6563 Q1126.8594,555.9375 1126.2344,556.7031 Q1125.625,557.4531 1124.4531,557.5938 Z M1121.2969,553.125 L1121.2969,556.5 L1122.4531,556.5 Q1123.4688,556.5 1123.8906,556.1094 Q1124.3281,555.7031 1124.3281,554.7969 Q1124.3281,553.9063 1123.8906,553.5156 Q1123.4688,553.125 1122.4531,553.125 L1121.2969,553.125 Z " fill="#000000"/><text fill="#000000" font-family="sans-serif" font-size="12" lengthAdjust="spacingAndGlyphs" textLength="67" x="1143.75" y="561.6074">Passenger</text><line style="stroke:#A80036;stroke-width:1.5;" x1="1074" x2="1248" y1="573.4531" y2="573.4531"/><text fill="#000000" font-family="sans-serif" font-size="11" lengthAdjust="spacingAndGlyphs" textLength="10" x="1079" y="587.6636">id</text><text fill="#000000" font-family="sans-serif" font-size="11" lengthAdjust="spacingAndGlyphs" textLength="164" x="1079" y="600.4683">externalPassengerReference</text><text fill="#000000" font-family="sans-serif" font-size="11" lengthAdjust="spacingAndGlyphs" textLength="65" x="1079" y="613.2729">dateOfBirth</text><text fill="#000000" font-family="sans-serif" font-size="11" lengthAdjust="spacingAndGlyphs" textLength="40" x="1079" y="626.0776">gender</text><text fill="#000000" font-family="sans-serif" font-size="11" lengthAdjust="spacingAndGlyphs" textLength="57" x="1079" y="638.8823">LastName</text><text fill="#000000" font-family="sans-serif" font-size="11" lengthAdjust="spacingAndGlyphs" textLength="57" x="1079" y="651.687">Firstname</text><text fill="#000000" font-family="sans-serif" font-size="11" lengthAdjust="spacingAndGlyphs" textLength="116" x="1079" y="664.4917">PassportInformation</text><text fill="#000000" font-family="sans-serif" font-size="11" lengthAdjust="spacingAndGlyphs" textLength="62" x="1079" y="677.2964">Reductions</text><text fill="#000000" font-family="sans-serif" font-size="11" lengthAdjust="spacingAndGlyphs" textLength="27" x="1079" y="690.1011">Type</text><line style="stroke:#A80036;stroke-width:1.5;" x1="1074" x2="1248" y1="696.6953" y2="696.6953"/><!--MD5=[b67600ec13ec6f0f7d585029c386b998]
class PlaceSelection_ReservationOptions--><rect codeLine="108" fill="#FEFECE" filter="url(#ffker4e7ndssm)" height="60.8047" id="PlaceSelection_ReservationOptions" style="stroke:#A80036;stroke-width:1.5;" width="252" x="524" y="997.9531"/><ellipse cx="539" cy="1013.9531" fill="#008000" rx="11" ry="11" style="stroke:#A80036;stroke-width:1.0;"/><path d="M538.5938,1009.7656 L538.5938,1017.75 L539.25,1017.75 Q540.6875,1017.75 541.2969,1016.8438 Q541.9219,1015.9219 541.9219,1013.75 Q541.9219,1011.5781 541.2969,1010.6719 Q540.6875,1009.7656 539.25,1009.7656 L538.5938,1009.7656 Z M536.1406,1007.5625 L538.7656,1007.5625 Q541.7969,1007.5625 543.125,1009.0156 Q544.4688,1010.4531 544.4688,1013.75 Q544.4688,1017.0469 543.125,1018.5 Q541.7969,1019.9531 538.7656,1019.9531 L536.1406,1019.9531 L536.1406,1007.5625 Z " fill="#000000"/><text fill="#000000" font-family="sans-serif" font-size="12" lengthAdjust="spacingAndGlyphs" textLength="220" x="553" y="1018.1074">PlaceSelection_ReservationOptions</text><line style="stroke:#A80036;stroke-width:1.5;" x1="525" x2="775" y1="1029.9531" y2="1029.9531"/><text fill="#000000" font-family="sans-serif" font-size="11" lengthAdjust="spacingAndGlyphs" textLength="96" x="530" y="1044.1636">Available options</text><line style="stroke:#A80036;stroke-width:1.5;" x1="525" x2="775" y1="1050.7578" y2="1050.7578"/><!--MD5=[05ceefe24a17592591e3da30ac974a11]
reverse link TripOffer to Offer--><path codeLine="112" d="M997.55,91.9531 C897.88,107.8831 738.13,138.6331 607,187.9531 C597.14,191.6631 587.14,195.8431 577.19,200.3331 " fill="none" id="TripOffer-backto-Offer" style="stroke:#A80036;stroke-width:1.0;"/><polygon fill="#A80036" points="1010.6,89.9031,1004.0489,86.8893,998.7473,91.7774,1005.2984,94.7912,1010.6,89.9031" style="stroke:#A80036;stroke-width:1.0;"/><text fill="#000000" font-family="sans-serif" font-size="13" lengthAdjust="spacingAndGlyphs" textLength="8" x="994.905" y="87.4071">1</text><text fill="#000000" font-family="sans-serif" font-size="13" lengthAdjust="spacingAndGlyphs" textLength="24" x="585.1404" y="192.7862">1..n</text><!--MD5=[8c56d8f0acbd3bdb7f7d643b1e5b6fb2]
reverse link TripOffer to Passenger--><path codeLine="113" d="M1114.74,139.5931 C1116.36,145.4131 1117.82,151.2631 1119,156.9531 C1146.63,289.8831 1156.09,447.9331 1159.32,541.3231 " fill="none" id="TripOffer-backto-Passenger" style="stroke:#A80036;stroke-width:1.0;"/><polygon fill="#A80036" points="1110.99,126.9731,1108.8618,133.863,1114.4031,138.4775,1116.5313,131.5876,1110.99,126.9731" style="stroke:#A80036;stroke-width:1.0;"/><text fill="#000000" font-family="sans-serif" font-size="13" lengthAdjust="spacingAndGlyphs" textLength="8" x="1105.0448" y="147.4085">1</text><text fill="#000000" font-family="sans-serif" font-size="13" lengthAdjust="spacingAndGlyphs" textLength="24" x="1134.1016" y="530.447">1..n</text><!--MD5=[c08a8537ce2364831e365204b402054e]
reverse link TripOffer to Trip--><path codeLine="114" d="M1074.98,139.6831 C1039.71,259.4731 963.01,520.0031 939.79,598.8731 " fill="none" id="TripOffer-backto-Trip" style="stroke:#A80036;stroke-width:1.0;"/><polygon fill="#A80036" points="1078.66,127.1631,1073.1284,131.7893,1075.2711,138.6747,1080.8028,134.0485,1078.66,127.1631" style="stroke:#A80036;stroke-width:1.0;"/><text fill="#000000" font-family="sans-serif" font-size="13" lengthAdjust="spacingAndGlyphs" textLength="8" x="1068.0809" y="147.2691">1</text><text fill="#000000" font-family="sans-serif" font-size="13" lengthAdjust="spacingAndGlyphs" textLength="8" x="932.5049" y="587.8647">1</text><!--MD5=[bb2556086b62dc4c783ad2c58432fee6]
link Trip to Segment--><path codeLine="115" d="M928.61,647.2131 C922.75,679.5331 912.7,739.9331 909,791.9531 C903.45,869.9831 907.69,889.7431 909,967.9531 C909.2,979.9431 909.63,993.2831 910.04,1004.2831 " fill="none" id="Trip-Segment" style="stroke:#A80036;stroke-width:1.0;"/><text fill="#000000" font-family="sans-serif" font-size="13" lengthAdjust="spacingAndGlyphs" textLength="8" x="918.5649" y="667.0377">1</text><text fill="#000000" font-family="sans-serif" font-size="13" lengthAdjust="spacingAndGlyphs" textLength="24" x="882.719" y="993.2516">1..n</text><!--MD5=[828755c7e4f6d18d39c65d3631670ac1]
reverse link Offer to Admission--><path codeLine="116" d="M393.84,389.8031 C370.06,451.2531 341.28,525.6131 322.82,573.3331 " fill="none" id="Offer-backto-Admission" style="stroke:#A80036;stroke-width:1.0;"/><polygon fill="#A80036" points="398.68,377.2931,392.7806,381.4401,394.3396,388.4806,400.239,384.3337,398.68,377.2931" style="stroke:#A80036;stroke-width:1.0;"/><text fill="#000000" font-family="sans-serif" font-size="13" lengthAdjust="spacingAndGlyphs" textLength="8" x="387.719" y="396.8859">1</text><text fill="#000000" font-family="sans-serif" font-size="13" lengthAdjust="spacingAndGlyphs" textLength="24" x="299.7791" y="562.3615">0..n</text><!--MD5=[341fe217f74963594ee1f1f3ee9547db]
reverse link Offer to Reservation--><path codeLine="117" d="M479.6,388.9031 C492.61,412.1031 508.43,435.2931 527,453.9531 C546.64,473.6831 559.28,467.8531 582,483.9531 C622.56,512.7031 664.19,550.9231 693.76,579.8431 " fill="none" id="Offer-backto-Reservation" style="stroke:#A80036;stroke-width:1.0;"/><polygon fill="#A80036" points="473.25,377.1631,472.5845,384.3434,478.9565,387.7195,479.622,380.5391,473.25,377.1631" style="stroke:#A80036;stroke-width:1.0;"/><text fill="#000000" font-family="sans-serif" font-size="13" lengthAdjust="spacingAndGlyphs" textLength="8" x="467.7652" y="396.7464">1</text><text fill="#000000" font-family="sans-serif" font-size="13" lengthAdjust="spacingAndGlyphs" textLength="24" x="661.2749" y="568.8216">0..n</text><!--MD5=[bd3976857442fa502d68b4f7c44d94a4]
reverse link Offer to Ancillary--><path codeLine="118" d="M462.43,389.9831 C467.9,411.1831 473.62,433.2731 479,453.9531 C491.59,502.3931 506.36,558.6531 515.18,592.2231 " fill="none" id="Offer-backto-Ancillary" style="stroke:#A80036;stroke-width:1.0;"/><polygon fill="#A80036" points="459.15,377.2731,456.7736,384.0814,462.1441,388.8936,464.5206,382.0853,459.15,377.2731" style="stroke:#A80036;stroke-width:1.0;"/><text fill="#000000" font-family="sans-serif" font-size="13" lengthAdjust="spacingAndGlyphs" textLength="8" x="452.6298" y="396.8645">1</text><text fill="#000000" font-family="sans-serif" font-size="13" lengthAdjust="spacingAndGlyphs" textLength="24" x="487.0921" y="581.4389">0..n</text><!--MD5=[927a26f08cc25c6ae7b2a94c52dba81b]
reverse link Offer to Fare--><path codeLine="119" d="M305.25,385.5931 C269.72,415.8031 232.17,449.9331 200,483.9531 C194.31,489.9731 188.63,496.2831 183.03,502.7631 " fill="none" id="Offer-backto-Fare" style="stroke:#A80036;stroke-width:1.0;"/><polygon fill="#A80036" points="315.21,377.1831,308.0452,377.9988,306.0424,384.9262,313.2072,384.1105,315.21,377.1831" style="stroke:#A80036;stroke-width:1.0;"/><text fill="#000000" font-family="sans-serif" font-size="13" lengthAdjust="spacingAndGlyphs" textLength="8" x="298.1192" y="396.7679">1</text><text fill="#000000" font-family="sans-serif" font-size="13" lengthAdjust="spacingAndGlyphs" textLength="24" x="191.0011" y="489.6407">0..n</text><!--MD5=[6c974e64cced73419ee10c6ef77db64a]
reverse link Offer to Trip--><path codeLine="120" d="M589.49,368.6831 C595.37,371.5331 601.22,374.2931 607,376.9531 C728.42,432.7731 795.83,387.1931 888,483.9531 C918.42,515.8831 928.28,568.6431 931.47,598.8431 " fill="none" id="Offer-backto-Trip" style="stroke:#A80036;stroke-width:1.0;"/><polygon fill="#A80036" points="577.39,362.7331,581.0138,368.9676,588.1624,368.0204,584.5386,361.786,577.39,362.7331" style="stroke:#A80036;stroke-width:1.0;"/><text fill="#000000" font-family="sans-serif" font-size="13" lengthAdjust="spacingAndGlyphs" textLength="8" x="584.9382" y="363.56">1</text><text fill="#000000" font-family="sans-serif" font-size="13" lengthAdjust="spacingAndGlyphs" textLength="8" x="922.0529" y="587.827">1</text><!--MD5=[c8c1a14b533f690e058d76d6e20e5745]
reverse link OfferPart to Admission--><path codeLine="121" d="M606.73,370.0131 C602.47,372.4031 598.22,374.7231 594,376.9531 C562.61,393.5131 549.6,387.3831 520,406.9531 C449.6,453.4931 383.08,525.5031 342.93,573.1731 " fill="none" id="OfferPart-backto-Admission" style="stroke:#A80036;stroke-width:1.0;"/><polygon fill="none" points="603.46,363.8231,624.27,359.8231,610.5,375.9231,603.46,363.8231" style="stroke:#A80036;stroke-width:1.0;"/><!--MD5=[4b3d5e1d338dba5224f04defe615ab45]
reverse link OfferPart to Reservation--><path codeLine="122" d="M735,397.6431 C735,460.3531 735,534.3931 735,579.7531 " fill="none" id="OfferPart-backto-Reservation" style="stroke:#A80036;stroke-width:1.0;"/><polygon fill="none" points="728,397.2931,735,377.2931,742,397.2931,728,397.2931" style="stroke:#A80036;stroke-width:1.0;"/><!--MD5=[bf4fcd89834435245c28bfed16ed0d8c]
reverse link OfferPart to Ancillary--><path codeLine="123" d="M654.93,393.4531 C639.61,413.7731 623.51,434.6631 608,453.9531 C596.94,467.7031 591.36,468.9931 582,483.9531 C560.1,518.9631 542.7,563.5231 532.62,592.3831 " fill="none" id="OfferPart-backto-Ancillary" style="stroke:#A80036;stroke-width:1.0;"/><polygon fill="none" points="649.42,389.1231,667.02,377.3131,660.63,397.5231,649.42,389.1231" style="stroke:#A80036;stroke-width:1.0;"/><!--MD5=[cdae04685cac09b7342faae31fe4d005]
reverse link OfferPart to Product--><path codeLine="124" d="M856.08,355.8031 C901.47,389.1231 949.03,432.7131 978,483.9531 C1032.01,579.4731 1041.79,707.8331 1041.38,791.9431 " fill="none" id="OfferPart-backto-Product" style="stroke:#A80036;stroke-width:1.0;"/><polygon fill="#FFFFFF" points="845.52,348.2031,848.0525,354.9549,855.2589,355.2141,852.7264,348.4623,845.52,348.2031" style="stroke:#A80036;stroke-width:1.0;"/><text fill="#000000" font-family="sans-serif" font-size="13" lengthAdjust="spacingAndGlyphs" textLength="24" x="1016.7252" y="780.8058">0..n</text><!--MD5=[0f2af4f42ff76ddb39f363a61522c83b]
link Admission to Reservation--><path codeLine="125" d="M344.02,573.2531 C384.63,527.4031 452.19,462.9431 528,438.9531 C558.51,429.3031 571.45,424.4931 600,438.9531 C655.76,467.2031 694.06,530.5031 715.25,574.9331 " fill="none" id="Admission-to-Reservation" style="stroke:#A80036;stroke-width:1.0;stroke-dasharray:7.0,7.0;"/><polygon fill="#A80036" points="717.49,579.7131,717.2816,569.8665,715.3631,575.1881,710.0415,573.2695,717.49,579.7131" style="stroke:#A80036;stroke-width:1.0;"/><text fill="#000000" font-family="sans-serif" font-size="13" lengthAdjust="spacingAndGlyphs" textLength="55" x="536.5" y="420.02">optional/</text><text fill="#000000" font-family="sans-serif" font-size="13" lengthAdjust="spacingAndGlyphs" textLength="57" x="535.5" y="435.1528">included/</text><text fill="#000000" font-family="sans-serif" font-size="13" lengthAdjust="spacingAndGlyphs" textLength="70" x="529" y="450.2856">mandatory</text><text fill="#000000" font-family="sans-serif" font-size="13" lengthAdjust="spacingAndGlyphs" textLength="24" x="688.9713" y="568.9889">0..n</text><!--MD5=[654f46b0594279e7aac88b1a6e1aa98d]
link Admission to Ancillary--><path codeLine="126" d="M390.24,622.9531 C419.52,622.9531 451.12,622.9531 476.15,622.9531 " fill="none" id="Admission-to-Ancillary" style="stroke:#A80036;stroke-width:1.0;stroke-dasharray:7.0,7.0;"/><polygon fill="#A80036" points="481.38,622.9531,472.38,618.9531,476.38,622.9531,472.38,626.9531,481.38,622.9531" style="stroke:#A80036;stroke-width:1.0;"/><text fill="#000000" font-family="sans-serif" font-size="13" lengthAdjust="spacingAndGlyphs" textLength="55" x="408.25" y="601.02">optional/</text><text fill="#000000" font-family="sans-serif" font-size="13" lengthAdjust="spacingAndGlyphs" textLength="53" x="409.25" y="616.1528">included</text><text fill="#000000" font-family="sans-serif" font-size="13" lengthAdjust="spacingAndGlyphs" textLength="24" x="449.5046" y="636.1457">0..n</text><!--MD5=[e73b2836d402f3ea5baa16990d17cbc1]
link Product to Segment--><path codeLine="127" d="M961.89,968.2931 C951.93,979.8731 942.38,990.9631 934.31,1000.3531 " fill="none" id="Product-to-Segment" style="stroke:#A80036;stroke-width:1.0;stroke-dasharray:7.0,7.0;"/><polygon fill="#A80036" points="930.94,1004.2631,939.842,1000.0495,934.201,1000.4729,933.7777,994.8319,930.94,1004.2631" style="stroke:#A80036;stroke-width:1.0;"/><text fill="#000000" font-family="sans-serif" font-size="13" lengthAdjust="spacingAndGlyphs" textLength="24" x="908.9746" y="993.2265">1..n</text><!--MD5=[9f6aaa7bdf149daabbee51d3e2f1f046]
reverse link Reservation to PlaceSelection_ReservationOptions--><path codeLine="128" d="M723.42,678.9331 C705.18,765.5331 670.37,930.7331 656.22,997.9231 " fill="none" id="Reservation-backto-PlaceSelection_ReservationOptions" style="stroke:#A80036;stroke-width:1.0;"/><polygon fill="#A80036" points="726.14,665.9931,720.9875,671.0381,723.6626,677.7346,728.8151,672.6897,726.14,665.9931" style="stroke:#A80036;stroke-width:1.0;"/><text fill="#000000" font-family="sans-serif" font-size="13" lengthAdjust="spacingAndGlyphs" textLength="24" x="630.9556" y="986.7068">1..n</text><!--MD5=[0d73d556f41d99d23caf2ed012b1a609]
reverse link Fare to PlaceSelection_ReservationOptions--><path codeLine="129" d="M192.53,755.0631 C195,757.4231 197.49,759.7231 200,761.9531 C320.16,868.7831 489.66,954.9531 582.56,997.8631 " fill="none" id="Fare-backto-PlaceSelection_ReservationOptions" style="stroke:#A80036;stroke-width:1.0;"/><polygon fill="#A80036" points="183.13,745.7131,184.5662,752.7798,191.6416,754.172,190.2054,747.1053,183.13,745.7131" style="stroke:#A80036;stroke-width:1.0;"/><text fill="#000000" font-family="sans-serif" font-size="13" lengthAdjust="spacingAndGlyphs" textLength="24" x="542.1755" y="987.1078">1..n</text><!--MD5=[003788cfe9425d9bb83d0c7b927545ad]
link OfferPart to Passenger--><path codeLine="131" d="M845.63,311.6031 C905.23,330.9631 977.16,361.5331 1030,406.9531 C1072.26,443.2831 1104.92,496.7531 1127.06,541.2831 " fill="none" id="OfferPart-Passenger" style="stroke:#A80036;stroke-width:1.0;stroke-dasharray:7.0,7.0;"/><!--MD5=[4c878c63999b9440852abb3edfd89f38]
@startuml
title: Offers Data Model

class Trip <<R,Orchid>> #linen {
}

class Segment <<D, Green>> #linen {
}

class TripOffer <<R,orchid>>  {
id
trips: [trips]
offers: [offers]
passengers: [passengers]
}

class Offer <<R,orchid>> { 
id
minimalPrice: price
overallServiceClass: FIRST/SECOND
overallServiceRank: FIRST_A,B,C/SECOND_A,B,C
overallFlexibility: FULL/SEMI/NONE
validFrom: date
validUntil: date
requestedInformation: String
OfferParts: [OfferParts]
Fares:[Fares]
Trip: Trip
} 

abstract class OfferPart <<D,green>> #lightgrey {
id
price
pricingMode: INDIVIDUAL/COLLECTIVE
validity
reductionsApplied 
passengerReferences
validFrom: date
validUntil: date
passengers: [passengers]
requiredPersonalData: string
products: [products]
}

class Ancillary <<R,orchid>> {
category
}

class Admission <<R,orchid>> {
reservationRequired 
reservations: [reservations]
ancillaries: [ancillaries]
<<opt>> numericAvailability
}


class Reservation<<R,orchid>> {
<<opt>> numericAvailability
reservationDetails: {reservation details}
placeSelection: {place selection information}
} 

class Product <<R,orchid>> {
code
description
conditions
exchangeable: YES/NO/WITH_CONDITIONS
refundable: YES/NO/WITH_CONDITIONS
segmentReferences
serviceClass: FIRST_A,B,C, SECOND_A,B,C
serviceRankLabel
serviceConstraint
carrierConstraint
}

class Fare <<R,orchid>> {
id*
type*
name
fareDetailDescription
price
regionalConstraint*
serviceConstraint
carrierConstraint
serviceClass
serviceLevel
afterSalesCondition*
combinationConstraint*
fulfillmentConstraint
reductionConstraint
legacyAccountingIdentifier
travelValidityConstraint*
reservationDetails
reservationLegacyParameter
}

class Passenger <<R, orchid>> {
id
externalPassengerReference
dateOfBirth
gender
LastName
Firstname
PassportInformation
Reductions
Type
}

class PlaceSelection_ReservationOptions <<D, green>> {
  Available options
}

TripOffer "1" *- - "1..n" Offer
TripOffer "1" *- - "1..n" Passenger
TripOffer "1" *- - "1" Trip
Trip "1" - - "1..n" Segment
Offer "1" *- - "0..n" Admission
Offer "1" *- - "0..n" Reservation
Offer "1" *- - "0..n" Ancillary
Offer "1" *- - "0..n" Fare
Offer "1" *- - "1" Trip
OfferPart <|- - Admission
OfferPart <|- - Reservation
OfferPart <|- - Ancillary
OfferPart o- - "0..n" Product
Admission .> "0..n" Reservation:optional/\nincluded/\nmandatory
Admission .> "0..n" Ancillary:optional/\nincluded
Product .>"1..n" Segment
Reservation*- -"1..n" PlaceSelection_ReservationOptions
Fare *- -"1..n" PlaceSelection_ReservationOptions

OfferPart .. Passenger
@enduml

PlantUML version 1.2020.22(Sun Dec 06 10:36:27 CET 2020)
(GPL source distribution)
Java Runtime: OpenJDK Runtime Environment
JVM: OpenJDK 64-Bit Server VM
Default Encoding: UTF-8
Language: en
Country: US
--></g></svg>