<?xml version="1.0" encoding="UTF-8" standalone="no"?><svg xmlns="http://www.w3.org/2000/svg" xmlns:xlink="http://www.w3.org/1999/xlink" contentScriptType="application/ecmascript" contentStyleType="text/css" height="389px" preserveAspectRatio="none" style="width:466px;height:389px;" version="1.1" viewBox="0 0 466 389" width="466px" zoomAndPan="magnify"><defs><filter height="300%" id="f1v0gaw8msben" width="300%" x="-1" y="-1"><feGaussianBlur result="blurOut" stdDeviation="2.0"/><feColorMatrix in="blurOut" result="blurOut2" type="matrix" values="0 0 0 0 0 0 0 0 0 0 0 0 0 0 0 0 0 0 .4 0"/><feOffset dx="4.0" dy="4.0" in="blurOut2" result="blurOut3"/><feBlend in="SourceGraphic" in2="blurOut3" mode="normal"/></filter></defs><g><ellipse cx="134.9" cy="16" fill="#000000" filter="url(#f1v0gaw8msben)" rx="10" ry="10" style="stroke:none;stroke-width:1.0;"/><g id="Proposed"><rect fill="#FEFECE" filter="url(#f1v0gaw8msben)" height="50" rx="12.5" ry="12.5" style="stroke:#A80036;stroke-width:1.5;" width="87" x="91.4" y="103"/><line style="stroke:#A80036;stroke-width:1.5;" x1="91.4" x2="178.4" y1="129.2969" y2="129.2969"/><text fill="#000000" font-family="sans-serif" font-size="14" lengthAdjust="spacingAndGlyphs" textLength="67" x="101.4" y="120.9951">Proposed</text></g><g id="Confirmed"><rect fill="#FEFECE" filter="url(#f1v0gaw8msben)" height="50" rx="12.5" ry="12.5" style="stroke:#A80036;stroke-width:1.5;" width="91" x="31.4" y="230"/><line style="stroke:#A80036;stroke-width:1.5;" x1="31.4" x2="122.4" y1="256.2969" y2="256.2969"/><text fill="#000000" font-family="sans-serif" font-size="14" lengthAdjust="spacingAndGlyphs" textLength="71" x="41.4" y="247.9951">Confirmed</text></g><ellipse cx="163.9" cy="367" fill="none" filter="url(#f1v0gaw8msben)" rx="10" ry="10" style="stroke:#000000;stroke-width:1.0;"/><ellipse cx="164.4" cy="367.5" fill="#000000" rx="6" ry="6" style="stroke:none;stroke-width:1.0;"/><!--MD5=[f61f7104ce94d093fe3feca15ea14e2f]
link *start to Proposed--><path d="M134.9,26 C134.9,41.46 134.9,73.68 134.9,97.6 " fill="none" id="*start-to-Proposed" style="stroke:#A80036;stroke-width:1.0;"/><polygon fill="#A80036" points="134.9,102.87,138.9,93.87,134.9,97.87,130.9,93.87,134.9,102.87" style="stroke:#A80036;stroke-width:1.0;"/><text fill="#000000" font-family="sans-serif" font-size="13" lengthAdjust="spacingAndGlyphs" textLength="198" x="135.9" y="69.0669">POST /Bookings/id/refundOffers</text><!--MD5=[32189f733db8637f11b7a14dd0afd147]
link Proposed to Confirmed--><path d="M91.4,136.53 C64.68,143.65 32.49,157.25 15.9,183 C6,198.36 16.58,213.93 31.54,226.56 " fill="none" id="Proposed-to-Confirmed" style="stroke:#A80036;stroke-width:1.0;"/><polygon fill="#A80036" points="35.43,229.7,30.9479,220.9301,31.5424,226.5557,25.9169,227.1502,35.43,229.7" style="stroke:#A80036;stroke-width:1.0;"/><text fill="#000000" font-family="sans-serif" font-size="13" lengthAdjust="spacingAndGlyphs" textLength="207" x="16.9" y="196.0669">PATCH /Bookings/id/refundOffers</text><!--MD5=[5160b5791cfe4c27fe789cf1c1697092]
link Proposed to *end--><path d="M178.68,142.83 C197.64,151.25 217.97,164.1 228.9,183 C247.67,215.42 299.06,131.85 197.9,327 C192.11,338.17 182.48,348.79 174.95,356.12 " fill="none" id="Proposed-to-*end" style="stroke:#A80036;stroke-width:1.0;"/><polygon fill="#A80036" points="171.01,359.84,180.3053,356.5845,174.651,356.4132,174.8223,350.7589,171.01,359.84" style="stroke:#A80036;stroke-width:1.0;"/><text fill="#000000" font-family="sans-serif" font-size="13" lengthAdjust="spacingAndGlyphs" textLength="212" x="246.9" y="252.0669">DELETE /Bookings/id/refundOffers</text><text fill="#000000" font-family="sans-serif" font-size="13" lengthAdjust="spacingAndGlyphs" textLength="136" x="286.9" y="267.1997">OR refundOffer expiry</text><!--MD5=[4470f671c244ee8b6362840b5fcd1a01]
link Confirmed to *end--><path d="M96,280.14 C114.26,303.23 141,337.04 154.85,354.55 " fill="none" id="Confirmed-to-*end" style="stroke:#A80036;stroke-width:1.0;"/><polygon fill="#A80036" points="158.08,358.63,155.6236,349.0924,154.9739,354.7118,149.3545,354.0621,158.08,358.63" style="stroke:#A80036;stroke-width:1.0;"/><text fill="#000000" font-family="sans-serif" font-size="13" lengthAdjust="spacingAndGlyphs" textLength="57" x="131.9" y="323.0669">archiving</text><!--MD5=[8a49196bcea0c430f21d3f726e661851]
@startuml
[*] - -> Proposed: POST /Bookings/id/refundOffers
Proposed- -> Confirmed: PATCH /Bookings/id/refundOffers
Proposed- -> [*] : DELETE /Bookings/id/refundOffers\n OR refundOffer expiry
Confirmed - -> [*] : archiving
@enduml

PlantUML version 1.2020.22(Sun Dec 06 10:36:27 CET 2020)
(GPL source distribution)
Java Runtime: OpenJDK Runtime Environment
JVM: OpenJDK 64-Bit Server VM
Default Encoding: UTF-8
Language: en
Country: US
--></g></svg>