<?xml version="1.0" encoding="UTF-8" standalone="no"?><svg xmlns="http://www.w3.org/2000/svg" xmlns:xlink="http://www.w3.org/1999/xlink" contentScriptType="application/ecmascript" contentStyleType="text/css" height="717px" preserveAspectRatio="none" style="width:867px;height:717px;" version="1.1" viewBox="0 0 867 717" width="867px" zoomAndPan="magnify"><defs><filter height="300%" id="fgyxw8dudh4rn" width="300%" x="-1" y="-1"><feGaussianBlur result="blurOut" stdDeviation="2.0"/><feColorMatrix in="blurOut" result="blurOut2" type="matrix" values="0 0 0 0 0 0 0 0 0 0 0 0 0 0 0 0 0 0 .4 0"/><feOffset dx="4.0" dy="4.0" in="blurOut2" result="blurOut3"/><feBlend in="SourceGraphic" in2="blurOut3" mode="normal"/></filter></defs><g><!--MD5=[2af55ca63bf154868bd8be78b4ae1cc6]
cluster Sale--><polygon fill="#FFFFFF" filter="url(#fgyxw8dudh4rn)" points="298,6,337,6,344,28.2969,669,28.2969,669,429,298,429,298,6" style="stroke:#000000;stroke-width:1.5;"/><line style="stroke:#000000;stroke-width:1.5;" x1="298" x2="344" y1="28.2969" y2="28.2969"/><text fill="#000000" font-family="sans-serif" font-size="14" font-weight="bold" lengthAdjust="spacingAndGlyphs" textLength="33" x="302" y="20.9951">Sale</text><!--MD5=[b26506578ed9029a5204affe48e448de]
cluster Refund--><polygon fill="#FFFFFF" filter="url(#fgyxw8dudh4rn)" points="16,475,78,475,85,497.2969,299,497.2969,299,648,16,648,16,475" style="stroke:#000000;stroke-width:1.5;"/><line style="stroke:#000000;stroke-width:1.5;" x1="16" x2="85" y1="497.2969" y2="497.2969"/><text fill="#000000" font-family="sans-serif" font-size="14" font-weight="bold" lengthAdjust="spacingAndGlyphs" textLength="56" x="20" y="489.9951">Refund</text><!--MD5=[c7f0147ccca9a015d2b391de98654aef]
cluster Exchange--><polygon fill="#FFFFFF" filter="url(#fgyxw8dudh4rn)" points="323,475,405,475,412,497.2969,606,497.2969,606,648,323,648,323,475" style="stroke:#000000;stroke-width:1.5;"/><line style="stroke:#000000;stroke-width:1.5;" x1="323" x2="412" y1="497.2969" y2="497.2969"/><text fill="#000000" font-family="sans-serif" font-size="14" font-weight="bold" lengthAdjust="spacingAndGlyphs" textLength="76" x="327" y="489.9951">Exchange</text><ellipse cx="423" cy="51" fill="#000000" filter="url(#fgyxw8dudh4rn)" rx="10" ry="10" style="stroke:none;stroke-width:1.0;"/><rect fill="#FEFECE" filter="url(#fgyxw8dudh4rn)" height="33.9688" rx="12.5" ry="12.5" style="stroke:#A80036;stroke-width:1.5;" width="83" x="381.5" y="115"/><text fill="#000000" font-family="sans-serif" font-size="12" lengthAdjust="spacingAndGlyphs" textLength="63" x="391.5" y="136.1387">Get Offers</text><rect fill="#FEFECE" filter="url(#fgyxw8dudh4rn)" height="33.9688" rx="12.5" ry="12.5" style="stroke:#A80036;stroke-width:1.5;" width="51" x="397.5" y="203"/><text fill="#000000" font-family="sans-serif" font-size="12" lengthAdjust="spacingAndGlyphs" textLength="31" x="407.5" y="224.1387">Book</text><rect fill="#FEFECE" filter="url(#fgyxw8dudh4rn)" height="33.9688" rx="12.5" ry="12.5" style="stroke:#A80036;stroke-width:1.5;" width="67" x="314.5" y="291"/><text fill="#000000" font-family="sans-serif" font-size="12" lengthAdjust="spacingAndGlyphs" textLength="47" x="324.5" y="312.1387">Confirm</text><rect fill="#FEFECE" filter="url(#fgyxw8dudh4rn)" height="33.9688" rx="12.5" ry="12.5" style="stroke:#A80036;stroke-width:1.5;" width="51" x="377.5" y="379"/><text fill="#000000" font-family="sans-serif" font-size="12" lengthAdjust="spacingAndGlyphs" textLength="31" x="387.5" y="400.1387">Fulfill</text><rect fill="#FEFECE" filter="url(#fgyxw8dudh4rn)" height="33.9688" rx="12.5" ry="12.5" style="stroke:#A80036;stroke-width:1.5;" width="131" x="53.5" y="510"/><text fill="#000000" font-family="sans-serif" font-size="12" lengthAdjust="spacingAndGlyphs" textLength="111" x="63.5" y="531.1387">Get Refund Offers</text><rect fill="#FEFECE" filter="url(#fgyxw8dudh4rn)" height="33.9688" rx="12.5" ry="12.5" style="stroke:#A80036;stroke-width:1.5;" width="64" x="126" y="598"/><text fill="#000000" font-family="sans-serif" font-size="12" lengthAdjust="spacingAndGlyphs" textLength="44" x="136" y="619.1387">Refund</text><rect fill="#FEFECE" filter="url(#fgyxw8dudh4rn)" height="33.9688" rx="12.5" ry="12.5" style="stroke:#A80036;stroke-width:1.5;" width="148" x="339" y="510"/><text fill="#000000" font-family="sans-serif" font-size="12" lengthAdjust="spacingAndGlyphs" textLength="128" x="349" y="531.1387">Get Exchange Offers</text><rect fill="#FEFECE" filter="url(#fgyxw8dudh4rn)" height="33.9688" rx="12.5" ry="12.5" style="stroke:#A80036;stroke-width:1.5;" width="89" x="338.5" y="598"/><text fill="#000000" font-family="sans-serif" font-size="12" lengthAdjust="spacingAndGlyphs" textLength="69" x="348.5" y="619.1387">Exchanged</text><ellipse cx="383" cy="695" fill="none" filter="url(#fgyxw8dudh4rn)" rx="10" ry="10" style="stroke:#000000;stroke-width:1.0;"/><ellipse cx="383.5" cy="695.5" fill="#000000" rx="6" ry="6" style="stroke:none;stroke-width:1.0;"/><!--MD5=[8b8bc2b0692aec89dd79e20c01f82ded]
link start to Get Offers--><path d="M423,61.06 C423,72.86 423,93.85 423,109.77 " fill="none" id="start-to-Get Offers" style="stroke:#A80036;stroke-width:1.0;"/><polygon fill="#A80036" points="423,114.95,427,105.95,423,109.95,419,105.95,423,114.95" style="stroke:#A80036;stroke-width:1.0;"/><text fill="#000000" font-family="sans-serif" font-size="11" lengthAdjust="spacingAndGlyphs" textLength="160" x="424" y="92.2104">POST /trip-offers/collections</text><!--MD5=[ef32b763807648b59a3f57cccd689cf5]
link Get Offers to Book--><path d="M423,149.18 C423,162.87 423,182.61 423,197.61 " fill="none" id="Get Offers-to-Book" style="stroke:#A80036;stroke-width:1.0;"/><polygon fill="#A80036" points="423,202.9,427,193.9,423,197.9,419,193.9,423,202.9" style="stroke:#A80036;stroke-width:1.0;"/><text fill="#000000" font-family="sans-serif" font-size="11" lengthAdjust="spacingAndGlyphs" textLength="90" x="424" y="180.2104">POST /bookings</text><!--MD5=[4363771b47238a2522e326847f467d93]
link Book to Confirm--><path d="M397.47,223.67 C376.51,227.36 348.07,236.13 334,257 C328.2,265.61 330.45,276.59 334.68,286.07 " fill="none" id="Book-to-Confirm" style="stroke:#A80036;stroke-width:1.0;"/><polygon fill="#A80036" points="336.89,290.58,336.5183,280.7382,334.6883,286.0908,329.3356,284.2609,336.89,290.58" style="stroke:#A80036;stroke-width:1.0;"/><text fill="#000000" font-family="sans-serif" font-size="11" lengthAdjust="spacingAndGlyphs" textLength="172" x="335" y="268.2104">PATCH /bookings/{bookingId})</text><!--MD5=[2f101cc44bbbe6e130a2b2a45f70c368]
link Book to Fulfill--><path d="M448.87,227.41 C467.18,232.93 491.49,242.36 509,257 C548.85,290.31 598.52,318.51 566,359 C549.74,379.25 476.36,388.79 433.81,392.69 " fill="none" id="Book-to-Fulfill" style="stroke:#A80036;stroke-width:1.0;"/><polygon fill="#A80036" points="428.78,393.14,438.0986,396.328,433.7604,392.6976,437.3908,388.3594,428.78,393.14" style="stroke:#A80036;stroke-width:1.0;"/><text fill="#000000" font-family="sans-serif" font-size="11" lengthAdjust="spacingAndGlyphs" textLength="229" x="576" y="312.2104">POST /bookings/{bookingId}/fulfillments</text><!--MD5=[02e59928992bd19665871ab78adda8f2]
link Confirm to Fulfill--><path d="M337.23,325.21 C331.87,335.46 327.74,348.67 334,359 C342.43,372.91 358.19,381.7 372.53,387.11 " fill="none" id="Confirm-to-Fulfill" style="stroke:#A80036;stroke-width:1.0;"/><polygon fill="#A80036" points="377.32,388.81,370.1988,382.0064,372.6136,387.122,367.498,389.5367,377.32,388.81" style="stroke:#A80036;stroke-width:1.0;"/><text fill="#000000" font-family="sans-serif" font-size="11" lengthAdjust="spacingAndGlyphs" textLength="229" x="335" y="356.2104">POST /bookings/{bookingId}/fulfillments</text><!--MD5=[995ae7b0bf8f1e573913933e15f376d4]
link Fulfill to Get Refund Offers--><path d="M377.49,398.65 C337.55,402.17 258.85,412.92 201,445 C173.5,460.25 148.87,487.29 133.94,505.9 " fill="none" id="Fulfill-to-Get Refund Offers" style="stroke:#A80036;stroke-width:1.0;"/><polygon fill="#A80036" points="130.73,509.98,139.4452,505.3926,133.8273,506.0549,133.165,500.4369,130.73,509.98" style="stroke:#A80036;stroke-width:1.0;"/><text fill="#000000" font-family="sans-serif" font-size="11" lengthAdjust="spacingAndGlyphs" textLength="195" x="202" y="456.2104">POST /bookings/{id}/refundOffers</text><!--MD5=[6a502d773fc443aaca3d84064a011a1b]
link Get Refund Offers to Refund--><path d="M103.07,544.09 C95.2,554.06 88.62,567.01 95,578 C100.87,588.11 110.76,595.62 120.98,601.09 " fill="none" id="Get Refund Offers-to-Refund" style="stroke:#A80036;stroke-width:1.0;"/><polygon fill="#A80036" points="125.69,603.46,119.4485,595.8414,121.2236,601.2125,115.8525,602.9876,125.69,603.46" style="stroke:#A80036;stroke-width:1.0;"/><text fill="#000000" font-family="sans-serif" font-size="11" lengthAdjust="spacingAndGlyphs" textLength="229" x="96" y="575.2104">POST /bookings/{bookingId}/fulfillments</text><!--MD5=[19e1c11fec85d9c5bae1967299dc525e]
link Fulfill to Get Exchange Offers--><path d="M402.35,413.08 C402,425.61 401.84,443.44 403,459 C404.14,474.43 406.75,491.69 409.02,504.83 " fill="none" id="Fulfill-to-Get Exchange Offers" style="stroke:#A80036;stroke-width:1.0;"/><polygon fill="#A80036" points="409.9,509.83,412.2719,500.271,409.0294,504.9064,404.3941,501.6639,409.9,509.83" style="stroke:#A80036;stroke-width:1.0;"/><text fill="#000000" font-family="sans-serif" font-size="11" lengthAdjust="spacingAndGlyphs" textLength="212" x="404" y="456.2104">POST /bookings/{id}/exchangeOffers</text><!--MD5=[9955774674b7cda28cf70026d5e4c3e2]
link Get Exchange Offers to Exchanged--><path d="M397.57,544.36 C393.03,550.14 388.58,556.96 386,564 C382.69,573.01 381.68,583.54 381.6,592.61 " fill="none" id="Get Exchange Offers-to-Exchanged" style="stroke:#A80036;stroke-width:1.0;"/><polygon fill="#A80036" points="381.65,597.76,385.5727,588.726,381.6071,592.7602,377.573,588.7946,381.65,597.76" style="stroke:#A80036;stroke-width:1.0;"/><text fill="#000000" font-family="sans-serif" font-size="11" lengthAdjust="spacingAndGlyphs" textLength="229" x="387" y="575.2104">POST /bookings/{bookingId}/fulfillments</text><!--MD5=[2e27daa4796d5ed8fe984a7c32597304]
link Fulfill to end--><path d="M428.64,398.82 C480.4,403.09 594.5,415.68 618,445 C636.96,468.66 860.31,373 603,656 C575.44,686.31 443.37,692.48 398.19,693.7 " fill="none" id="Fulfill-to-end" style="stroke:#A80036;stroke-width:1.0;"/><polygon fill="#A80036" points="393.13,693.83,402.2298,697.5973,398.1283,693.7015,402.0242,689.6,393.13,693.83" style="stroke:#A80036;stroke-width:1.0;"/><!--MD5=[8edf3e4a8fb576a8d6b49bf0fdf7011f]
link Refund to end--><path d="M190.24,627.18 C240.04,644.44 333.63,676.88 368.99,689.14 " fill="none" id="Refund-to-end" style="stroke:#A80036;stroke-width:1.0;"/><polygon fill="#A80036" points="373.77,690.8,366.5812,684.0679,369.0469,689.1591,363.9557,691.6248,373.77,690.8" style="stroke:#A80036;stroke-width:1.0;"/><!--MD5=[0f38f91e15c852835e7144f3ba5541ad]
link Exchanged to end--><path d="M383,632.16 C383,646.06 383,665.94 383,679.37 " fill="none" id="Exchanged-to-end" style="stroke:#A80036;stroke-width:1.0;"/><polygon fill="#A80036" points="383,684.7,387,675.7,383,679.7,379,675.7,383,684.7" style="stroke:#A80036;stroke-width:1.0;"/><!--MD5=[4c2eb46faf3603b17f3134c70d49bf94]
@startuml
partition "Sale" {
  (*) - -> [POST /trip-offers/collections] "Get Offers"
  "Get Offers"- -> [POST /bookings] "Book"
  "Book"- -> [PATCH /bookings/{bookingId})] "Confirm"
  "Book" - -> [POST /bookings/{bookingId}/fulfillments] "Fulfill"
  "Confirm"- ->[POST /bookings/{bookingId}/fulfillments] "Fulfill"
}

partition "Refund" {
  "Fulfill" - -> [POST /bookings/{id}/refundOffers] "Get Refund Offers"
  "Get Refund Offers"- -> [POST /bookings/{bookingId}/fulfillments] "Refund"
}

partition "Exchange" {
  "Fulfill" - -> [POST /bookings/{id}/exchangeOffers] "Get Exchange Offers"
  "Get Exchange Offers"- -> [POST /bookings/{bookingId}/fulfillments] "Exchanged"
}

"Fulfill" - -> (*)
"Refund" - -> (*)
"Exchanged" - -> (*)
@enduml

PlantUML version 1.2020.22(Sun Dec 06 10:36:27 CET 2020)
(GPL source distribution)
Java Runtime: OpenJDK Runtime Environment
JVM: OpenJDK 64-Bit Server VM
Default Encoding: UTF-8
Language: en
Country: US
--></g></svg>