<?xml version="1.0" encoding="UTF-8" standalone="no"?><svg xmlns="http://www.w3.org/2000/svg" xmlns:xlink="http://www.w3.org/1999/xlink" contentScriptType="application/ecmascript" contentStyleType="text/css" height="432px" preserveAspectRatio="none" style="width:1290px;height:432px;" version="1.1" viewBox="0 0 1290 432" width="1290px" zoomAndPan="magnify"><defs><filter height="300%" id="fj080aiu3nuo1" width="300%" x="-1" y="-1"><feGaussianBlur result="blurOut" stdDeviation="2.0"/><feColorMatrix in="blurOut" result="blurOut2" type="matrix" values="0 0 0 0 0 0 0 0 0 0 0 0 0 0 0 0 0 0 .4 0"/><feOffset dx="4.0" dy="4.0" in="blurOut2" result="blurOut3"/><feBlend in="SourceGraphic" in2="blurOut3" mode="normal"/></filter></defs><g><rect fill="#FFFFFF" filter="url(#fj080aiu3nuo1)" height="159.6641" style="stroke:#000000;stroke-width:2.0;" width="552" x="721" y="219.6953"/><line style="stroke:#A80036;stroke-width:1.0;stroke-dasharray:5.0,5.0;" x1="58" x2="58" y1="88.2969" y2="425.4922"/><line style="stroke:#A80036;stroke-width:1.0;stroke-dasharray:5.0,5.0;" x1="793" x2="793" y1="88.2969" y2="425.4922"/><line style="stroke:#A80036;stroke-width:1.0;stroke-dasharray:5.0,5.0;" x1="1075" x2="1075" y1="88.2969" y2="425.4922"/><text fill="#000000" font-family="sans-serif" font-size="14" lengthAdjust="spacingAndGlyphs" textLength="100" x="5" y="84.9951">API_Consumer</text><ellipse cx="58" cy="15" fill="#FEFECE" filter="url(#fj080aiu3nuo1)" rx="8" ry="8" style="stroke:#A80036;stroke-width:2.0;"/><path d="M58,23 L58,50 M45,31 L71,31 M58,50 L45,65 M58,50 L71,65 " fill="none" filter="url(#fj080aiu3nuo1)" style="stroke:#A80036;stroke-width:2.0;"/><rect fill="#FEFECE" filter="url(#fj080aiu3nuo1)" height="30.2969" style="stroke:#A80036;stroke-width:1.5;" width="120" x="731" y="53"/><text fill="#000000" font-family="sans-serif" font-size="14" lengthAdjust="spacingAndGlyphs" textLength="106" x="738" y="72.9951">OSDM_Provider</text><rect fill="#FEFECE" filter="url(#fj080aiu3nuo1)" height="30.2969" style="stroke:#A80036;stroke-width:1.5;" width="100" x="1023" y="53"/><text fill="#000000" font-family="sans-serif" font-size="14" lengthAdjust="spacingAndGlyphs" textLength="86" x="1030" y="72.9951">FareProvider</text><rect fill="#EEEEEE" filter="url(#fj080aiu3nuo1)" height="3" style="stroke:#EEEEEE;stroke-width:1.0;" width="1283" x="0" y="118.8633"/><line style="stroke:#000000;stroke-width:1.0;" x1="0" x2="1283" y1="118.8633" y2="118.8633"/><line style="stroke:#000000;stroke-width:1.0;" x1="0" x2="1283" y1="121.8633" y2="121.8633"/><rect fill="#EEEEEE" filter="url(#fj080aiu3nuo1)" height="23.1328" style="stroke:#000000;stroke-width:2.0;" width="391" x="446" y="108.2969"/><text fill="#000000" font-family="sans-serif" font-size="13" font-weight="bold" lengthAdjust="spacingAndGlyphs" textLength="372" x="452" y="124.3638">Creating a booking based on one or more offer(s)</text><polygon fill="#A80036" points="781,158.5625,791,162.5625,781,166.5625,785,162.5625" style="stroke:#A80036;stroke-width:1.0;"/><line style="stroke:#A80036;stroke-width:1.0;" x1="58" x2="787" y1="162.5625" y2="162.5625"/><text fill="#000000" font-family="sans-serif" font-size="13" lengthAdjust="spacingAndGlyphs" textLength="711" x="65" y="157.4966">POST /bookings/ &lt;offerId(s) of selected offer(s), reservation id(s) of selected optional reservation(s) if relevant&gt;</text><line style="stroke:#A80036;stroke-width:1.0;" x1="793" x2="835" y1="191.6953" y2="191.6953"/><line style="stroke:#A80036;stroke-width:1.0;" x1="835" x2="835" y1="191.6953" y2="204.6953"/><line style="stroke:#A80036;stroke-width:1.0;" x1="794" x2="835" y1="204.6953" y2="204.6953"/><polygon fill="#A80036" points="804,200.6953,794,204.6953,804,208.6953,800,204.6953" style="stroke:#A80036;stroke-width:1.0;"/><text fill="#000000" font-family="sans-serif" font-size="13" lengthAdjust="spacingAndGlyphs" textLength="128" x="800" y="186.6294">create local booking</text><path d="M721,219.6953 L798,219.6953 L798,226.6953 L788,236.6953 L721,236.6953 L721,219.6953 " fill="#EEEEEE" style="stroke:#000000;stroke-width:1.0;"/><rect fill="none" height="159.6641" style="stroke:#000000;stroke-width:2.0;" width="552" x="721" y="219.6953"/><text fill="#000000" font-family="sans-serif" font-size="13" font-weight="bold" lengthAdjust="spacingAndGlyphs" textLength="32" x="736" y="232.7622">loop</text><text fill="#000000" font-family="sans-serif" font-size="11" font-weight="bold" lengthAdjust="spacingAndGlyphs" textLength="380" x="813" y="231.9058">[for each offerPart in selected offer and optional offerpart]</text><polygon fill="#A80036" points="1063,253.9609,1073,257.9609,1063,261.9609,1067,257.9609" style="stroke:#A80036;stroke-width:1.0;"/><line style="stroke:#A80036;stroke-width:1.0;" x1="793" x2="1069" y1="257.9609" y2="257.9609"/><text fill="#000000" font-family="sans-serif" font-size="13" lengthAdjust="spacingAndGlyphs" textLength="172" x="800" y="252.895">provisionally book offerpart</text><line style="stroke:#A80036;stroke-width:1.0;" x1="1075" x2="1117" y1="287.0938" y2="287.0938"/><line style="stroke:#A80036;stroke-width:1.0;" x1="1117" x2="1117" y1="287.0938" y2="300.0938"/><line style="stroke:#A80036;stroke-width:1.0;" x1="1076" x2="1117" y1="300.0938" y2="300.0938"/><polygon fill="#A80036" points="1086,296.0938,1076,300.0938,1086,304.0938,1082,300.0938" style="stroke:#A80036;stroke-width:1.0;"/><text fill="#000000" font-family="sans-serif" font-size="13" lengthAdjust="spacingAndGlyphs" textLength="179" x="1082" y="282.0278">create FareProvider booking</text><polygon fill="#A80036" points="804,325.2266,794,329.2266,804,333.2266,800,329.2266" style="stroke:#A80036;stroke-width:1.0;"/><line style="stroke:#A80036;stroke-width:1.0;stroke-dasharray:2.0,2.0;" x1="798" x2="1074" y1="329.2266" y2="329.2266"/><text fill="#000000" font-family="sans-serif" font-size="13" lengthAdjust="spacingAndGlyphs" textLength="258" x="810" y="324.1606">OK response (can vary per FareProvider)</text><line style="stroke:#A80036;stroke-width:1.0;" x1="793" x2="835" y1="358.3594" y2="358.3594"/><line style="stroke:#A80036;stroke-width:1.0;" x1="835" x2="835" y1="358.3594" y2="371.3594"/><line style="stroke:#A80036;stroke-width:1.0;" x1="794" x2="835" y1="371.3594" y2="371.3594"/><polygon fill="#A80036" points="804,367.3594,794,371.3594,804,375.3594,800,371.3594" style="stroke:#A80036;stroke-width:1.0;"/><text fill="#000000" font-family="sans-serif" font-size="13" lengthAdjust="spacingAndGlyphs" textLength="266" x="800" y="353.2935">add FareProvider booking to local booking</text><polygon fill="#A80036" points="69,403.4922,59,407.4922,69,411.4922,65,407.4922" style="stroke:#A80036;stroke-width:1.0;"/><line style="stroke:#A80036;stroke-width:1.0;stroke-dasharray:2.0,2.0;" x1="63" x2="792" y1="407.4922" y2="407.4922"/><text fill="#000000" font-family="sans-serif" font-size="13" lengthAdjust="spacingAndGlyphs" textLength="461" x="75" y="402.4263">&lt;Created Booking with references to Trips, booked offfers, passengers&gt;</text><!--MD5=[3ba010e59f74ef3e01516f5d2a9eb440]
@startuml
hide footbox

actor API_Consumer 

== Creating a booking based on one or more offer(s) ==
API_Consumer -> OSDM_Provider: POST /bookings/ <offerId(s) of selected offer(s), reservation id(s) of selected optional reservation(s) if relevant>
OSDM_Provider -> OSDM_Provider : create local booking 
loop for each offerPart in selected offer and optional offerpart
    OSDM_Provider -> FareProvider: provisionally book offerpart 
	FareProvider -> FareProvider: create FareProvider booking
	FareProvider - -> OSDM_Provider : OK response (can vary per FareProvider)
	OSDM_Provider -> OSDM_Provider : add FareProvider booking to local booking
end
OSDM_Provider - -> API_Consumer: <Created Booking with references to Trips, booked offfers, passengers>
@enduml

PlantUML version 1.2020.22(Sun Dec 06 10:36:27 CET 2020)
(GPL source distribution)
Java Runtime: OpenJDK Runtime Environment
JVM: OpenJDK 64-Bit Server VM
Default Encoding: UTF-8
Language: en
Country: US
--></g></svg>