<?xml version="1.0" encoding="UTF-8" standalone="no"?><svg xmlns="http://www.w3.org/2000/svg" xmlns:xlink="http://www.w3.org/1999/xlink" contentScriptType="application/ecmascript" contentStyleType="text/css" height="956px" preserveAspectRatio="none" style="width:1120px;height:956px;" version="1.1" viewBox="0 0 1120 956" width="1120px" zoomAndPan="magnify"><defs><filter height="300%" id="f1ppd4essu49ux" width="300%" x="-1" y="-1"><feGaussianBlur result="blurOut" stdDeviation="2.0"/><feColorMatrix in="blurOut" result="blurOut2" type="matrix" values="0 0 0 0 0 0 0 0 0 0 0 0 0 0 0 0 0 0 .4 0"/><feOffset dx="4.0" dy="4.0" in="blurOut2" result="blurOut3"/><feBlend in="SourceGraphic" in2="blurOut3" mode="normal"/></filter></defs><g><rect fill="#FFFFFF" filter="url(#f1ppd4essu49ux)" height="133.6641" style="stroke:#000000;stroke-width:2.0;" width="1093" x="10" y="799.0859"/><line style="stroke:#A80036;stroke-width:1.0;stroke-dasharray:5.0,5.0;" x1="73" x2="73" y1="88.2969" y2="949.75"/><line style="stroke:#A80036;stroke-width:1.0;stroke-dasharray:5.0,5.0;" x1="1031" x2="1031" y1="88.2969" y2="949.75"/><text fill="#000000" font-family="sans-serif" font-size="14" lengthAdjust="spacingAndGlyphs" textLength="100" x="20" y="84.9951">API_Consumer</text><ellipse cx="73" cy="15" fill="#FEFECE" filter="url(#f1ppd4essu49ux)" rx="8" ry="8" style="stroke:#A80036;stroke-width:2.0;"/><path d="M73,23 L73,50 M60,31 L86,31 M73,50 L60,65 M73,50 L86,65 " fill="none" filter="url(#f1ppd4essu49ux)" style="stroke:#A80036;stroke-width:2.0;"/><rect fill="#FEFECE" filter="url(#f1ppd4essu49ux)" height="30.2969" style="stroke:#A80036;stroke-width:1.5;" width="120" x="969" y="53"/><text fill="#000000" font-family="sans-serif" font-size="14" lengthAdjust="spacingAndGlyphs" textLength="106" x="976" y="72.9951">OSDM_Provider</text><rect fill="#EEEEEE" filter="url(#f1ppd4essu49ux)" height="3" style="stroke:#EEEEEE;stroke-width:1.0;" width="1113" x="0" y="118.8633"/><line style="stroke:#000000;stroke-width:1.0;" x1="0" x2="1113" y1="118.8633" y2="118.8633"/><line style="stroke:#000000;stroke-width:1.0;" x1="0" x2="1113" y1="121.8633" y2="121.8633"/><rect fill="#EEEEEE" filter="url(#f1ppd4essu49ux)" height="23.1328" style="stroke:#000000;stroke-width:2.0;" width="635" x="239" y="108.2969"/><text fill="#000000" font-family="sans-serif" font-size="13" font-weight="bold" lengthAdjust="spacingAndGlyphs" textLength="621" x="245" y="124.3638">Retrieving an offer &amp; setting seat selection options, starting with tripoffer overview</text><polygon fill="#A80036" points="1019,158.5625,1029,162.5625,1019,166.5625,1023,162.5625" style="stroke:#A80036;stroke-width:1.0;"/><line style="stroke:#A80036;stroke-width:1.0;" x1="73" x2="1025" y1="162.5625" y2="162.5625"/><text fill="#000000" font-family="sans-serif" font-size="13" lengthAdjust="spacingAndGlyphs" textLength="934" x="80" y="157.4966">GET /Trips-offers/5678?embed="TRIPOFFERS, TRIPOFFERS.TRIPS,TRIPOFFERS.OFFERS, TRIPOFFERS.OFFERS.OFFERPARTS TRIPOFFERS.PASSENGERS"</text><polygon fill="#A80036" points="84,187.6953,74,191.6953,84,195.6953,80,191.6953" style="stroke:#A80036;stroke-width:1.0;"/><line style="stroke:#A80036;stroke-width:1.0;stroke-dasharray:2.0,2.0;" x1="78" x2="1030" y1="191.6953" y2="191.6953"/><text fill="#000000" font-family="sans-serif" font-size="13" lengthAdjust="spacingAndGlyphs" textLength="446" x="90" y="186.6294">&lt;Trip-offer with the Trip resource, offers &amp; its offerparts, passengers&gt;</text><polygon fill="#A80036" points="1019,216.8281,1029,220.8281,1019,224.8281,1023,220.8281" style="stroke:#A80036;stroke-width:1.0;"/><line style="stroke:#A80036;stroke-width:1.0;" x1="73" x2="1025" y1="220.8281" y2="220.8281"/><text fill="#000000" font-family="sans-serif" font-size="13" lengthAdjust="spacingAndGlyphs" textLength="801" x="80" y="215.7622">PATCH /Offers/8765/reservations/7654/ &lt; reservation with selectedPlaces or selectedOptions set with desired seating option&gt;</text><polygon fill="#A80036" points="84,245.9609,74,249.9609,84,253.9609,80,249.9609" style="stroke:#A80036;stroke-width:1.0;"/><line style="stroke:#A80036;stroke-width:1.0;stroke-dasharray:2.0,2.0;" x1="78" x2="1030" y1="249.9609" y2="249.9609"/><text fill="#000000" font-family="sans-serif" font-size="13" lengthAdjust="spacingAndGlyphs" textLength="307" x="90" y="244.895">&lt;updated reservation with desired reservation&gt;</text><rect fill="#EEEEEE" filter="url(#f1ppd4essu49ux)" height="3" style="stroke:#EEEEEE;stroke-width:1.0;" width="1113" x="0" y="278.5273"/><line style="stroke:#000000;stroke-width:1.0;" x1="0" x2="1113" y1="278.5273" y2="278.5273"/><line style="stroke:#000000;stroke-width:1.0;" x1="0" x2="1113" y1="281.5273" y2="281.5273"/><rect fill="#EEEEEE" filter="url(#f1ppd4essu49ux)" height="23.1328" style="stroke:#000000;stroke-width:2.0;" width="612" x="250.5" y="267.9609"/><text fill="#000000" font-family="sans-serif" font-size="13" font-weight="bold" lengthAdjust="spacingAndGlyphs" textLength="593" x="256.5" y="284.0278">Retrieving an offer &amp; setting seat selection options, starting with selected offer</text><polygon fill="#A80036" points="1019,318.2266,1029,322.2266,1019,326.2266,1023,322.2266" style="stroke:#A80036;stroke-width:1.0;"/><line style="stroke:#A80036;stroke-width:1.0;" x1="73" x2="1025" y1="322.2266" y2="322.2266"/><text fill="#000000" font-family="sans-serif" font-size="13" lengthAdjust="spacingAndGlyphs" textLength="312" x="80" y="317.1606">GET /offers/8765?embed="OFFERS.OFFERPARTS"</text><polygon fill="#A80036" points="84,347.3594,74,351.3594,84,355.3594,80,351.3594" style="stroke:#A80036;stroke-width:1.0;"/><line style="stroke:#A80036;stroke-width:1.0;stroke-dasharray:2.0,2.0;" x1="78" x2="1030" y1="351.3594" y2="351.3594"/><text fill="#000000" font-family="sans-serif" font-size="13" lengthAdjust="spacingAndGlyphs" textLength="165" x="90" y="346.2935">&lt;offer with its offerparts&gt;</text><polygon fill="#A80036" points="1019,376.4922,1029,380.4922,1019,384.4922,1023,380.4922" style="stroke:#A80036;stroke-width:1.0;"/><line style="stroke:#A80036;stroke-width:1.0;" x1="73" x2="1025" y1="380.4922" y2="380.4922"/><text fill="#000000" font-family="sans-serif" font-size="13" lengthAdjust="spacingAndGlyphs" textLength="801" x="80" y="375.4263">PATCH /Offers/8765/reservations/7654/ &lt; reservation with selectedPlaces or selectedOptions set with desired seating option&gt;</text><polygon fill="#A80036" points="84,405.625,74,409.625,84,413.625,80,409.625" style="stroke:#A80036;stroke-width:1.0;"/><line style="stroke:#A80036;stroke-width:1.0;stroke-dasharray:2.0,2.0;" x1="78" x2="1030" y1="409.625" y2="409.625"/><text fill="#000000" font-family="sans-serif" font-size="13" lengthAdjust="spacingAndGlyphs" textLength="307" x="90" y="404.5591">&lt;updated reservation with desired reservation&gt;</text><rect fill="#EEEEEE" filter="url(#f1ppd4essu49ux)" height="3" style="stroke:#EEEEEE;stroke-width:1.0;" width="1113" x="0" y="438.1914"/><line style="stroke:#000000;stroke-width:1.0;" x1="0" x2="1113" y1="438.1914" y2="438.1914"/><line style="stroke:#000000;stroke-width:1.0;" x1="0" x2="1113" y1="441.1914" y2="441.1914"/><rect fill="#EEEEEE" filter="url(#f1ppd4essu49ux)" height="23.1328" style="stroke:#000000;stroke-width:2.0;" width="936" x="88.5" y="427.625"/><text fill="#000000" font-family="sans-serif" font-size="13" font-weight="bold" lengthAdjust="spacingAndGlyphs" textLength="917" x="94.5" y="443.6919">setting additional passenger information that may be required for provisional booking, starting from the tripoffer overview</text><polygon fill="#A80036" points="1019,477.8906,1029,481.8906,1019,485.8906,1023,481.8906" style="stroke:#A80036;stroke-width:1.0;"/><line style="stroke:#A80036;stroke-width:1.0;" x1="73" x2="1025" y1="481.8906" y2="481.8906"/><text fill="#000000" font-family="sans-serif" font-size="13" lengthAdjust="spacingAndGlyphs" textLength="934" x="80" y="476.8247">GET /Trips-offers/5678?embed="TRIPOFFERS, TRIPOFFERS.TRIPS,TRIPOFFERS.OFFERS, TRIPOFFERS.OFFERS.OFFERPARTS TRIPOFFERS.PASSENGERS"</text><polygon fill="#A80036" points="84,507.0234,74,511.0234,84,515.0234,80,511.0234" style="stroke:#A80036;stroke-width:1.0;"/><line style="stroke:#A80036;stroke-width:1.0;stroke-dasharray:2.0,2.0;" x1="78" x2="1030" y1="511.0234" y2="511.0234"/><text fill="#000000" font-family="sans-serif" font-size="13" lengthAdjust="spacingAndGlyphs" textLength="421" x="90" y="505.9575">&lt;Trip-offer with Trip resource, offers &amp; its offerparts, passengers&gt;</text><line style="stroke:#A80036;stroke-width:1.0;" x1="73" x2="115" y1="540.1563" y2="540.1563"/><line style="stroke:#A80036;stroke-width:1.0;" x1="115" x2="115" y1="540.1563" y2="553.1563"/><line style="stroke:#A80036;stroke-width:1.0;" x1="74" x2="115" y1="553.1563" y2="553.1563"/><polygon fill="#A80036" points="84,549.1563,74,553.1563,84,557.1563,80,553.1563" style="stroke:#A80036;stroke-width:1.0;"/><text fill="#000000" font-family="sans-serif" font-size="13" lengthAdjust="spacingAndGlyphs" textLength="215" x="80" y="535.0903">check offer RequestedInformation</text><polygon fill="#A80036" points="1019,578.2891,1029,582.2891,1019,586.2891,1023,582.2891" style="stroke:#A80036;stroke-width:1.0;"/><line style="stroke:#A80036;stroke-width:1.0;" x1="73" x2="1025" y1="582.2891" y2="582.2891"/><text fill="#000000" font-family="sans-serif" font-size="13" lengthAdjust="spacingAndGlyphs" textLength="496" x="80" y="577.2231">PATCH /Offers/8765/passengers/123/ &lt; additional information for passenger&gt;</text><polygon fill="#A80036" points="84,607.4219,74,611.4219,84,615.4219,80,611.4219" style="stroke:#A80036;stroke-width:1.0;"/><line style="stroke:#A80036;stroke-width:1.0;stroke-dasharray:2.0,2.0;" x1="78" x2="1030" y1="611.4219" y2="611.4219"/><text fill="#000000" font-family="sans-serif" font-size="13" lengthAdjust="spacingAndGlyphs" textLength="321" x="90" y="606.356">&lt;passenger updated with the added information&gt;</text><rect fill="#EEEEEE" filter="url(#f1ppd4essu49ux)" height="3" style="stroke:#EEEEEE;stroke-width:1.0;" width="1113" x="0" y="639.9883"/><line style="stroke:#000000;stroke-width:1.0;" x1="0" x2="1113" y1="639.9883" y2="639.9883"/><line style="stroke:#000000;stroke-width:1.0;" x1="0" x2="1113" y1="642.9883" y2="642.9883"/><rect fill="#EEEEEE" filter="url(#f1ppd4essu49ux)" height="23.1328" style="stroke:#000000;stroke-width:2.0;" width="1017" x="48" y="629.4219"/><text fill="#000000" font-family="sans-serif" font-size="13" font-weight="bold" lengthAdjust="spacingAndGlyphs" textLength="1003" x="54" y="645.4888">setting additional passenger information that may be required for provisional booking, starting from the offer for multiple passengers</text><polygon fill="#A80036" points="1019,679.6875,1029,683.6875,1019,687.6875,1023,683.6875" style="stroke:#A80036;stroke-width:1.0;"/><line style="stroke:#A80036;stroke-width:1.0;" x1="73" x2="1025" y1="683.6875" y2="683.6875"/><text fill="#000000" font-family="sans-serif" font-size="13" lengthAdjust="spacingAndGlyphs" textLength="312" x="80" y="678.6216">GET /offers/8765?embed="OFFERS.OFFERPARTS"</text><polygon fill="#A80036" points="84,708.8203,74,712.8203,84,716.8203,80,712.8203" style="stroke:#A80036;stroke-width:1.0;"/><line style="stroke:#A80036;stroke-width:1.0;stroke-dasharray:2.0,2.0;" x1="78" x2="1030" y1="712.8203" y2="712.8203"/><text fill="#000000" font-family="sans-serif" font-size="13" lengthAdjust="spacingAndGlyphs" textLength="165" x="90" y="707.7544">&lt;offer with its offerparts&gt;</text><line style="stroke:#A80036;stroke-width:1.0;" x1="73" x2="115" y1="741.9531" y2="741.9531"/><line style="stroke:#A80036;stroke-width:1.0;" x1="115" x2="115" y1="741.9531" y2="754.9531"/><line style="stroke:#A80036;stroke-width:1.0;" x1="74" x2="115" y1="754.9531" y2="754.9531"/><polygon fill="#A80036" points="84,750.9531,74,754.9531,84,758.9531,80,754.9531" style="stroke:#A80036;stroke-width:1.0;"/><text fill="#000000" font-family="sans-serif" font-size="13" lengthAdjust="spacingAndGlyphs" textLength="215" x="80" y="736.8872">check offer RequestedInformation</text><polygon fill="#A80036" points="1019,780.0859,1029,784.0859,1019,788.0859,1023,784.0859" style="stroke:#A80036;stroke-width:1.0;"/><line style="stroke:#A80036;stroke-width:1.0;" x1="73" x2="1025" y1="784.0859" y2="784.0859"/><text fill="#000000" font-family="sans-serif" font-size="13" lengthAdjust="spacingAndGlyphs" textLength="380" x="80" y="779.02">GET /Trips-offers/5678?embed="TRIPOFFERS.PASSENGERS"</text><path d="M10,799.0859 L87,799.0859 L87,806.0859 L77,816.0859 L10,816.0859 L10,799.0859 " fill="#EEEEEE" style="stroke:#000000;stroke-width:1.0;"/><rect fill="none" height="133.6641" style="stroke:#000000;stroke-width:2.0;" width="1093" x="10" y="799.0859"/><text fill="#000000" font-family="sans-serif" font-size="13" font-weight="bold" lengthAdjust="spacingAndGlyphs" textLength="32" x="25" y="812.1528">loop</text><text fill="#000000" font-family="sans-serif" font-size="11" font-weight="bold" lengthAdjust="spacingAndGlyphs" textLength="134" x="102" y="811.2964">[for each passenger]</text><polygon fill="#A80036" points="1019,833.3516,1029,837.3516,1019,841.3516,1023,837.3516" style="stroke:#A80036;stroke-width:1.0;"/><line style="stroke:#A80036;stroke-width:1.0;" x1="73" x2="1025" y1="837.3516" y2="837.3516"/><text fill="#000000" font-family="sans-serif" font-size="13" lengthAdjust="spacingAndGlyphs" textLength="211" x="80" y="832.2856">GET /offers/8765/passengers/123</text><polygon fill="#A80036" points="84,862.4844,74,866.4844,84,870.4844,80,866.4844" style="stroke:#A80036;stroke-width:1.0;"/><line style="stroke:#A80036;stroke-width:1.0;stroke-dasharray:2.0,2.0;" x1="78" x2="1030" y1="866.4844" y2="866.4844"/><text fill="#000000" font-family="sans-serif" font-size="13" lengthAdjust="spacingAndGlyphs" textLength="183" x="90" y="861.4185">&lt;passenger to be updated&gt;</text><polygon fill="#A80036" points="84,891.6172,74,895.6172,84,899.6172,80,895.6172" style="stroke:#A80036;stroke-width:1.0;"/><line style="stroke:#A80036;stroke-width:1.0;stroke-dasharray:2.0,2.0;" x1="78" x2="1030" y1="895.6172" y2="895.6172"/><text fill="#000000" font-family="sans-serif" font-size="13" lengthAdjust="spacingAndGlyphs" textLength="321" x="90" y="890.5513">&lt;passenger updated with the added information&gt;</text><polygon fill="#A80036" points="1019,920.75,1029,924.75,1019,928.75,1023,924.75" style="stroke:#A80036;stroke-width:1.0;"/><line style="stroke:#A80036;stroke-width:1.0;" x1="73" x2="1025" y1="924.75" y2="924.75"/><text fill="#000000" font-family="sans-serif" font-size="13" lengthAdjust="spacingAndGlyphs" textLength="492" x="80" y="919.6841">PATCH /Offers/8765/passengers/123/ &lt;additional information for passenger&gt;</text><!--MD5=[d1495a699739f1b2ef9117dd5f7c971e]
@startuml
hide footbox

actor API_Consumer 

== Retrieving an offer & setting seat selection options, starting with tripoffer overview==
API_Consumer -> OSDM_Provider: GET /Trips-offers/5678?embed="TRIPOFFERS, TRIPOFFERS.TRIPS,TRIPOFFERS.OFFERS, TRIPOFFERS.OFFERS.OFFERPARTS TRIPOFFERS.PASSENGERS"
OSDM_Provider - -> API_Consumer: <Trip-offer with the Trip resource, offers & its offerparts, passengers>
API_Consumer -> OSDM_Provider: PATCH /Offers/8765/reservations/7654/ < reservation with selectedPlaces or selectedOptions set with desired seating option>
OSDM_Provider - -> API_Consumer: <updated reservation with desired reservation>

== Retrieving an offer & setting seat selection options, starting with selected offer ==
API_Consumer -> OSDM_Provider: GET /offers/8765?embed="OFFERS.OFFERPARTS"
OSDM_Provider - -> API_Consumer: <offer with its offerparts>
API_Consumer -> OSDM_Provider: PATCH /Offers/8765/reservations/7654/ < reservation with selectedPlaces or selectedOptions set with desired seating option>
OSDM_Provider - -> API_Consumer: <updated reservation with desired reservation>

== setting additional passenger information that may be required for provisional booking, starting from the tripoffer overview ==
API_Consumer -> OSDM_Provider: GET /Trips-offers/5678?embed="TRIPOFFERS, TRIPOFFERS.TRIPS,TRIPOFFERS.OFFERS, TRIPOFFERS.OFFERS.OFFERPARTS TRIPOFFERS.PASSENGERS"
OSDM_Provider - -> API_Consumer: <Trip-offer with Trip resource, offers & its offerparts, passengers>
API_Consumer -> API_Consumer: check offer RequestedInformation
API_Consumer -> OSDM_Provider: PATCH /Offers/8765/passengers/123/ < additional information for passenger>
OSDM_Provider - -> API_Consumer: <passenger updated with the added information>

== setting additional passenger information that may be required for provisional booking, starting from the offer for multiple passengers==
API_Consumer -> OSDM_Provider: GET /offers/8765?embed="OFFERS.OFFERPARTS"
OSDM_Provider - -> API_Consumer: <offer with its offerparts>
API_Consumer -> API_Consumer: check offer RequestedInformation
API_Consumer -> OSDM_Provider: GET /Trips-offers/5678?embed="TRIPOFFERS.PASSENGERS"
loop for each passenger
  API_Consumer -> OSDM_Provider: GET /offers/8765/passengers/123
  OSDM_Provider - -> API_Consumer: <passenger to be updated>
  OSDM_Provider - -> API_Consumer: <passenger updated with the added information>
API_Consumer -> OSDM_Provider: PATCH /Offers/8765/passengers/123/ <additional information for passenger>
end
@enduml

PlantUML version 1.2020.22(Sun Dec 06 10:36:27 CET 2020)
(GPL source distribution)
Java Runtime: OpenJDK Runtime Environment
JVM: OpenJDK 64-Bit Server VM
Default Encoding: UTF-8
Language: en
Country: US
--></g></svg>