<?xml version="1.0" encoding="UTF-8" standalone="no"?><svg xmlns="http://www.w3.org/2000/svg" xmlns:xlink="http://www.w3.org/1999/xlink" contentScriptType="application/ecmascript" contentStyleType="text/css" height="626px" preserveAspectRatio="none" style="width:819px;height:626px;" version="1.1" viewBox="0 0 819 626" width="819px" zoomAndPan="magnify"><defs><filter height="300%" id="f1q12ljusbkc1s" width="300%" x="-1" y="-1"><feGaussianBlur result="blurOut" stdDeviation="2.0"/><feColorMatrix in="blurOut" result="blurOut2" type="matrix" values="0 0 0 0 0 0 0 0 0 0 0 0 0 0 0 0 0 0 .4 0"/><feOffset dx="4.0" dy="4.0" in="blurOut2" result="blurOut3"/><feBlend in="SourceGraphic" in2="blurOut3" mode="normal"/></filter></defs><g><line style="stroke: #A80036; stroke-width: 1.0; stroke-dasharray: 5.0,5.0;" x1="63" x2="63" y1="87.6094" y2="614.8828"/><line style="stroke: #A80036; stroke-width: 1.0; stroke-dasharray: 5.0,5.0;" x1="251.5" x2="251.5" y1="87.6094" y2="614.8828"/><line style="stroke: #A80036; stroke-width: 1.0; stroke-dasharray: 5.0,5.0;" x1="625.5" x2="625.5" y1="87.6094" y2="614.8828"/><line style="stroke: #A80036; stroke-width: 1.0; stroke-dasharray: 5.0,5.0;" x1="707.5" x2="707.5" y1="87.6094" y2="614.8828"/><line style="stroke: #A80036; stroke-width: 1.0; stroke-dasharray: 5.0,5.0;" x1="794.5" x2="794.5" y1="87.6094" y2="614.8828"/><text fill="#000000" font-family="sans-serif" font-size="14" lengthAdjust="spacingAndGlyphs" textLength="105" x="8" y="84.5332">TicketVendor:T1</text><ellipse cx="63.5" cy="13" fill="#FEFECE" filter="url(#f1q12ljusbkc1s)" rx="8" ry="8" style="stroke: #A80036; stroke-width: 2.0;"/><path d="M63.5,21 L63.5,48 M50.5,29 L76.5,29 M63.5,48 L50.5,63 M63.5,48 L76.5,63 " fill="none" filter="url(#f1q12ljusbkc1s)" style="stroke: #A80036; stroke-width: 2.0;"/><text fill="#000000" font-family="sans-serif" font-size="14" lengthAdjust="spacingAndGlyphs" textLength="76" x="210.5" y="84.5332">Allocator:A1</text><ellipse cx="251.5" cy="13" fill="#FEFECE" filter="url(#f1q12ljusbkc1s)" rx="8" ry="8" style="stroke: #A80036; stroke-width: 2.0;"/><path d="M251.5,21 L251.5,48 M238.5,29 L264.5,29 M251.5,48 L238.5,63 M251.5,48 L264.5,63 " fill="none" filter="url(#f1q12ljusbkc1s)" style="stroke: #A80036; stroke-width: 2.0;"/><text fill="#000000" font-family="sans-serif" font-size="14" lengthAdjust="spacingAndGlyphs" textLength="66" x="589.5" y="84.5332">Carrier:C1</text><ellipse cx="625.5" cy="13" fill="#FEFECE" filter="url(#f1q12ljusbkc1s)" rx="8" ry="8" style="stroke: #A80036; stroke-width: 2.0;"/><path d="M625.5,21 L625.5,48 M612.5,29 L638.5,29 M625.5,48 L612.5,63 M625.5,48 L638.5,63 " fill="none" filter="url(#f1q12ljusbkc1s)" style="stroke: #A80036; stroke-width: 2.0;"/><text fill="#000000" font-family="sans-serif" font-size="14" lengthAdjust="spacingAndGlyphs" textLength="66" x="671.5" y="84.5332">Carrier:C2</text><ellipse cx="707.5" cy="13" fill="#FEFECE" filter="url(#f1q12ljusbkc1s)" rx="8" ry="8" style="stroke: #A80036; stroke-width: 2.0;"/><path d="M707.5,21 L707.5,48 M694.5,29 L720.5,29 M707.5,48 L694.5,63 M707.5,48 L720.5,63 " fill="none" filter="url(#f1q12ljusbkc1s)" style="stroke: #A80036; stroke-width: 2.0;"/><text fill="#000000" font-family="sans-serif" font-size="14" lengthAdjust="spacingAndGlyphs" textLength="32" x="775.5" y="84.5332">Time</text><ellipse cx="794.5" cy="54" fill="#FEFECE" filter="url(#f1q12ljusbkc1s)" rx="12" ry="12" style="stroke: #A80036; stroke-width: 2.0;"/><polygon fill="#A80036" points="790.5,42,796.5,37,794.5,42,796.5,47,790.5,42" style="stroke: #A80036; stroke-width: 1.0;"/><polygon fill="#A80036" points="239.5,115.9609,249.5,119.9609,239.5,123.9609,243.5,119.9609" style="stroke: #A80036; stroke-width: 1.0;"/><line style="stroke: #A80036; stroke-width: 1.0;" x1="63.5" x2="245.5" y1="119.9609" y2="119.9609"/><text fill="#000000" font-family="sans-serif" font-size="13" lengthAdjust="spacingAndGlyphs" textLength="156" x="70.5" y="115.1045">POST compensation claim</text><line style="stroke: #A80036; stroke-width: 1.0;" x1="251.5" x2="293.5" y1="150.3125" y2="150.3125"/><line style="stroke: #A80036; stroke-width: 1.0;" x1="293.5" x2="293.5" y1="150.3125" y2="163.3125"/><line style="stroke: #A80036; stroke-width: 1.0;" x1="252.5" x2="293.5" y1="163.3125" y2="163.3125"/><polygon fill="#A80036" points="262.5,159.3125,252.5,163.3125,262.5,167.3125,258.5,163.3125" style="stroke: #A80036; stroke-width: 1.0;"/><text fill="#000000" font-family="sans-serif" font-size="13" lengthAdjust="spacingAndGlyphs" textLength="80" x="258.5" y="145.4561">validate claim</text><line style="stroke: #A80036; stroke-width: 1.0;" x1="63.5" x2="73.5" y1="193.6641" y2="189.6641"/><line style="stroke: #A80036; stroke-width: 1.0; stroke-dasharray: 2.0,2.0;" x1="63.5" x2="250.5" y1="193.6641" y2="193.6641"/><text fill="#000000" font-family="sans-serif" font-size="13" lengthAdjust="spacingAndGlyphs" textLength="129" x="80.5" y="188.8076">Bank account missing</text><polygon fill="#A80036" points="239.5,220.0156,249.5,224.0156,239.5,228.0156,243.5,224.0156" style="stroke: #A80036; stroke-width: 1.0;"/><line style="stroke: #A80036; stroke-width: 1.0;" x1="63.5" x2="245.5" y1="224.0156" y2="224.0156"/><text fill="#000000" font-family="sans-serif" font-size="13" lengthAdjust="spacingAndGlyphs" textLength="164" x="70.5" y="219.1592">PATCH compensation claim</text><line style="stroke: #A80036; stroke-width: 1.0;" x1="251.5" x2="293.5" y1="254.3672" y2="254.3672"/><line style="stroke: #A80036; stroke-width: 1.0;" x1="293.5" x2="293.5" y1="254.3672" y2="267.3672"/><line style="stroke: #A80036; stroke-width: 1.0;" x1="252.5" x2="293.5" y1="267.3672" y2="267.3672"/><polygon fill="#A80036" points="262.5,263.3672,252.5,267.3672,262.5,271.3672,258.5,267.3672" style="stroke: #A80036; stroke-width: 1.0;"/><text fill="#000000" font-family="sans-serif" font-size="13" lengthAdjust="spacingAndGlyphs" textLength="360" x="258.5" y="249.5107">retrieve the booking, select the affected carriers/fare providers</text><polygon fill="#A80036" points="613.5,293.7188,623.5,297.7188,613.5,301.7188,617.5,297.7188" style="stroke: #A80036; stroke-width: 1.0;"/><line style="stroke: #A80036; stroke-width: 1.0;" x1="251.5" x2="619.5" y1="297.7188" y2="297.7188"/><text fill="#000000" font-family="sans-serif" font-size="13" lengthAdjust="spacingAndGlyphs" textLength="183" x="258.5" y="292.8623">post a new compensation claim</text><polygon fill="#A80036" points="695.5,324.0703,705.5,328.0703,695.5,332.0703,699.5,328.0703" style="stroke: #A80036; stroke-width: 1.0;"/><line style="stroke: #A80036; stroke-width: 1.0;" x1="251.5" x2="701.5" y1="328.0703" y2="328.0703"/><text fill="#000000" font-family="sans-serif" font-size="13" lengthAdjust="spacingAndGlyphs" textLength="183" x="258.5" y="323.2139">post a new compensation claim</text><line style="stroke: #A80036; stroke-width: 1.0;" x1="707.5" x2="749.5" y1="358.4219" y2="358.4219"/><line style="stroke: #A80036; stroke-width: 1.0;" x1="749.5" x2="749.5" y1="358.4219" y2="371.4219"/><line style="stroke: #A80036; stroke-width: 1.0;" x1="708.5" x2="749.5" y1="371.4219" y2="371.4219"/><polygon fill="#A80036" points="718.5,367.4219,708.5,371.4219,718.5,375.4219,714.5,371.4219" style="stroke: #A80036; stroke-width: 1.0;"/><text fill="#000000" font-family="sans-serif" font-size="13" lengthAdjust="spacingAndGlyphs" textLength="73" x="714.5" y="353.5654">decide claim</text><line style="stroke: #A80036; stroke-width: 1.0;" x1="251.5" x2="261.5" y1="401.7734" y2="397.7734"/><line style="stroke: #A80036; stroke-width: 1.0; stroke-dasharray: 2.0,2.0;" x1="251.5" x2="706.5" y1="401.7734" y2="401.7734"/><text fill="#000000" font-family="sans-serif" font-size="13" lengthAdjust="spacingAndGlyphs" textLength="84" x="268.5" y="396.917">claim changed</text><line style="stroke: #A80036; stroke-width: 1.0;" x1="251.5" x2="261.5" y1="432.125" y2="428.125"/><line style="stroke: #A80036; stroke-width: 1.0; stroke-dasharray: 2.0,2.0;" x1="251.5" x2="793.5" y1="432.125" y2="432.125"/><text fill="#000000" font-family="sans-serif" font-size="13" lengthAdjust="spacingAndGlyphs" textLength="207" x="268.5" y="427.2686">approaching legal deadline for claim</text><polygon fill="#A80036" points="695.5,458.4766,705.5,462.4766,695.5,466.4766,699.5,462.4766" style="stroke: #A80036; stroke-width: 1.0;"/><line style="stroke: #A80036; stroke-width: 1.0;" x1="251.5" x2="701.5" y1="462.4766" y2="462.4766"/><text fill="#000000" font-family="sans-serif" font-size="13" lengthAdjust="spacingAndGlyphs" textLength="53" x="258.5" y="457.6201">get claim</text><line style="stroke: #A80036; stroke-width: 1.0;" x1="251.5" x2="293.5" y1="492.8281" y2="492.8281"/><line style="stroke: #A80036; stroke-width: 1.0;" x1="293.5" x2="293.5" y1="492.8281" y2="505.8281"/><line style="stroke: #A80036; stroke-width: 1.0;" x1="252.5" x2="293.5" y1="505.8281" y2="505.8281"/><polygon fill="#A80036" points="262.5,501.8281,252.5,505.8281,262.5,509.8281,258.5,505.8281" style="stroke: #A80036; stroke-width: 1.0;"/><text fill="#000000" font-family="sans-serif" font-size="13" lengthAdjust="spacingAndGlyphs" textLength="113" x="258.5" y="487.9717">decide on the claim</text><polygon fill="#A80036" points="613.5,532.1797,623.5,536.1797,613.5,540.1797,617.5,536.1797" style="stroke: #A80036; stroke-width: 1.0;"/><line style="stroke: #A80036; stroke-width: 1.0;" x1="251.5" x2="619.5" y1="536.1797" y2="536.1797"/><text fill="#000000" font-family="sans-serif" font-size="13" lengthAdjust="spacingAndGlyphs" textLength="218" x="258.5" y="531.3232">patch claim with decision and amount</text><line style="stroke: #A80036; stroke-width: 1.0;" x1="63.5" x2="73.5" y1="566.5313" y2="562.5313"/><line style="stroke: #A80036; stroke-width: 1.0; stroke-dasharray: 2.0,2.0;" x1="63.5" x2="250.5" y1="566.5313" y2="566.5313"/><text fill="#000000" font-family="sans-serif" font-size="13" lengthAdjust="spacingAndGlyphs" textLength="84" x="80.5" y="561.6748">claim changed</text><polygon fill="#A80036" points="239.5,592.8828,249.5,596.8828,239.5,600.8828,243.5,596.8828" style="stroke: #A80036; stroke-width: 1.0;"/><line style="stroke: #A80036; stroke-width: 1.0;" x1="63.5" x2="245.5" y1="596.8828" y2="596.8828"/><text fill="#000000" font-family="sans-serif" font-size="13" lengthAdjust="spacingAndGlyphs" textLength="147" x="70.5" y="592.0264">GET compensation claim</text><!--MD5=[2f9a308de91bb77ae6e1b2a8abe86622]
@startuml
hide footbox

actor "TicketVendor:T1"
actor "Allocator:A1"
actor "Carrier:C1"
actor "Carrier:C2"
control "Time"

"TicketVendor:T1" -> "Allocator:A1": POST compensation claim

"Allocator:A1" -> "Allocator:A1": validate claim

"Allocator:A1" - -\\ "TicketVendor:T1": Bank account missing

"TicketVendor:T1" -> "Allocator:A1": PATCH compensation claim

"Allocator:A1" -> "Allocator:A1": retrieve the booking, select the affected carriers/fare providers

"Allocator:A1" -> "Carrier:C1": post a new compensation claim

"Allocator:A1" -> "Carrier:C2": post a new compensation claim

"Carrier:C2" -> "Carrier:C2": decide claim

"Carrier:C2" - -\\ "Allocator:A1": claim changed

"Time" - -\\ "Allocator:A1": approaching legal deadline for claim

"Allocator:A1" -> "Carrier:C2": get claim

"Allocator:A1" -> "Allocator:A1": decide on the claim

"Allocator:A1" -> "Carrier:C1": patch claim with decision and amount

"Allocator:A1" - -\\ "TicketVendor:T1": claim changed

"TicketVendor:T1" -> "Allocator:A1": GET compensation claim

@enduml

PlantUML version 1.2019.12(Sun Nov 03 11:24:54 CET 2019)
(APACHE source distribution)
Java Runtime: OpenJDK Runtime Environment
JVM: OpenJDK 64-Bit Server VM
Java Version: 1.8.0_212-3-redhat-b04
Operating System: Windows 10
Default Encoding: Cp1252
Language: de
Country: DE
--></g></svg>