<?xml version="1.0" encoding="UTF-8" standalone="no"?><svg xmlns="http://www.w3.org/2000/svg" xmlns:xlink="http://www.w3.org/1999/xlink" contentScriptType="application/ecmascript" contentStyleType="text/css" height="670px" preserveAspectRatio="none" style="width:804px;height:670px;" version="1.1" viewBox="0 0 804 670" width="804px" zoomAndPan="magnify"><defs><filter height="300%" id="f1myklq1z57xj4" width="300%" x="-1" y="-1"><feGaussianBlur result="blurOut" stdDeviation="2.0"/><feColorMatrix in="blurOut" result="blurOut2" type="matrix" values="0 0 0 0 0 0 0 0 0 0 0 0 0 0 0 0 0 0 .4 0"/><feOffset dx="4.0" dy="4.0" in="blurOut2" result="blurOut3"/><feBlend in="SourceGraphic" in2="blurOut3" mode="normal"/></filter></defs><g><line style="stroke: #A80036; stroke-width: 1.0; stroke-dasharray: 5.0,5.0;" x1="63" x2="63" y1="87.6094" y2="658.2344"/><line style="stroke: #A80036; stroke-width: 1.0; stroke-dasharray: 5.0,5.0;" x1="251.5" x2="251.5" y1="87.6094" y2="658.2344"/><line style="stroke: #A80036; stroke-width: 1.0; stroke-dasharray: 5.0,5.0;" x1="625.5" x2="625.5" y1="87.6094" y2="658.2344"/><line style="stroke: #A80036; stroke-width: 1.0; stroke-dasharray: 5.0,5.0;" x1="712.5" x2="712.5" y1="87.6094" y2="658.2344"/><text fill="#000000" font-family="sans-serif" font-size="14" lengthAdjust="spacingAndGlyphs" textLength="105" x="8" y="84.5332">TicketVendor:T1</text><ellipse cx="63.5" cy="13" fill="#FEFECE" filter="url(#f1myklq1z57xj4)" rx="8" ry="8" style="stroke: #A80036; stroke-width: 2.0;"/><path d="M63.5,21 L63.5,48 M50.5,29 L76.5,29 M63.5,48 L50.5,63 M63.5,48 L76.5,63 " fill="none" filter="url(#f1myklq1z57xj4)" style="stroke: #A80036; stroke-width: 2.0;"/><text fill="#000000" font-family="sans-serif" font-size="14" lengthAdjust="spacingAndGlyphs" textLength="76" x="210.5" y="84.5332">Allocator:A1</text><ellipse cx="251.5" cy="13" fill="#FEFECE" filter="url(#f1myklq1z57xj4)" rx="8" ry="8" style="stroke: #A80036; stroke-width: 2.0;"/><path d="M251.5,21 L251.5,48 M238.5,29 L264.5,29 M251.5,48 L238.5,63 M251.5,48 L264.5,63 " fill="none" filter="url(#f1myklq1z57xj4)" style="stroke: #A80036; stroke-width: 2.0;"/><text fill="#000000" font-family="sans-serif" font-size="14" lengthAdjust="spacingAndGlyphs" textLength="66" x="589.5" y="84.5332">Carrier:C1</text><ellipse cx="625.5" cy="13" fill="#FEFECE" filter="url(#f1myklq1z57xj4)" rx="8" ry="8" style="stroke: #A80036; stroke-width: 2.0;"/><path d="M625.5,21 L625.5,48 M612.5,29 L638.5,29 M625.5,48 L612.5,63 M625.5,48 L638.5,63 " fill="none" filter="url(#f1myklq1z57xj4)" style="stroke: #A80036; stroke-width: 2.0;"/><text fill="#000000" font-family="sans-serif" font-size="14" lengthAdjust="spacingAndGlyphs" textLength="66" x="676.5" y="84.5332">Carrier:C2</text><ellipse cx="712.5" cy="13" fill="#FEFECE" filter="url(#f1myklq1z57xj4)" rx="8" ry="8" style="stroke: #A80036; stroke-width: 2.0;"/><path d="M712.5,21 L712.5,48 M699.5,29 L725.5,29 M712.5,48 L699.5,63 M712.5,48 L725.5,63 " fill="none" filter="url(#f1myklq1z57xj4)" style="stroke: #A80036; stroke-width: 2.0;"/><polygon fill="#A80036" points="239.5,115.9609,249.5,119.9609,239.5,123.9609,243.5,119.9609" style="stroke: #A80036; stroke-width: 1.0;"/><line style="stroke: #A80036; stroke-width: 1.0;" x1="63.5" x2="245.5" y1="119.9609" y2="119.9609"/><text fill="#000000" font-family="sans-serif" font-size="13" lengthAdjust="spacingAndGlyphs" textLength="156" x="70.5" y="115.1045">POST compensation claim</text><line style="stroke: #A80036; stroke-width: 1.0;" x1="251.5" x2="293.5" y1="150.3125" y2="150.3125"/><line style="stroke: #A80036; stroke-width: 1.0;" x1="293.5" x2="293.5" y1="150.3125" y2="163.3125"/><line style="stroke: #A80036; stroke-width: 1.0;" x1="252.5" x2="293.5" y1="163.3125" y2="163.3125"/><polygon fill="#A80036" points="262.5,159.3125,252.5,163.3125,262.5,167.3125,258.5,163.3125" style="stroke: #A80036; stroke-width: 1.0;"/><text fill="#000000" font-family="sans-serif" font-size="13" lengthAdjust="spacingAndGlyphs" textLength="80" x="258.5" y="145.4561">validate claim</text><line style="stroke: #A80036; stroke-width: 1.0;" x1="63.5" x2="73.5" y1="193.6641" y2="189.6641"/><line style="stroke: #A80036; stroke-width: 1.0; stroke-dasharray: 2.0,2.0;" x1="63.5" x2="250.5" y1="193.6641" y2="193.6641"/><text fill="#000000" font-family="sans-serif" font-size="13" lengthAdjust="spacingAndGlyphs" textLength="129" x="80.5" y="188.8076">Bank account missing</text><polygon fill="#A80036" points="239.5,220.0156,249.5,224.0156,239.5,228.0156,243.5,224.0156" style="stroke: #A80036; stroke-width: 1.0;"/><line style="stroke: #A80036; stroke-width: 1.0;" x1="63.5" x2="245.5" y1="224.0156" y2="224.0156"/><text fill="#000000" font-family="sans-serif" font-size="13" lengthAdjust="spacingAndGlyphs" textLength="164" x="70.5" y="219.1592">PATCH compensation claim</text><line style="stroke: #A80036; stroke-width: 1.0;" x1="251.5" x2="293.5" y1="254.3672" y2="254.3672"/><line style="stroke: #A80036; stroke-width: 1.0;" x1="293.5" x2="293.5" y1="254.3672" y2="267.3672"/><line style="stroke: #A80036; stroke-width: 1.0;" x1="252.5" x2="293.5" y1="267.3672" y2="267.3672"/><polygon fill="#A80036" points="262.5,263.3672,252.5,267.3672,262.5,271.3672,258.5,267.3672" style="stroke: #A80036; stroke-width: 1.0;"/><text fill="#000000" font-family="sans-serif" font-size="13" lengthAdjust="spacingAndGlyphs" textLength="360" x="258.5" y="249.5107">retrieve the booking, select the affected carriers/fare providers</text><polygon fill="#A80036" points="613.5,293.7188,623.5,297.7188,613.5,301.7188,617.5,297.7188" style="stroke: #A80036; stroke-width: 1.0;"/><line style="stroke: #A80036; stroke-width: 1.0;" x1="251.5" x2="619.5" y1="297.7188" y2="297.7188"/><text fill="#000000" font-family="sans-serif" font-size="13" lengthAdjust="spacingAndGlyphs" textLength="183" x="258.5" y="292.8623">post a new compensation claim</text><polygon fill="#A80036" points="700.5,324.0703,710.5,328.0703,700.5,332.0703,704.5,328.0703" style="stroke: #A80036; stroke-width: 1.0;"/><line style="stroke: #A80036; stroke-width: 1.0;" x1="251.5" x2="706.5" y1="328.0703" y2="328.0703"/><text fill="#000000" font-family="sans-serif" font-size="13" lengthAdjust="spacingAndGlyphs" textLength="183" x="258.5" y="323.2139">post a new compensation claim</text><line style="stroke: #A80036; stroke-width: 1.0;" x1="712.5" x2="754.5" y1="358.4219" y2="358.4219"/><line style="stroke: #A80036; stroke-width: 1.0;" x1="754.5" x2="754.5" y1="358.4219" y2="371.4219"/><line style="stroke: #A80036; stroke-width: 1.0;" x1="713.5" x2="754.5" y1="371.4219" y2="371.4219"/><polygon fill="#A80036" points="723.5,367.4219,713.5,371.4219,723.5,375.4219,719.5,371.4219" style="stroke: #A80036; stroke-width: 1.0;"/><text fill="#000000" font-family="sans-serif" font-size="13" lengthAdjust="spacingAndGlyphs" textLength="73" x="719.5" y="353.5654">decide claim</text><line style="stroke: #A80036; stroke-width: 1.0;" x1="251.5" x2="261.5" y1="401.7734" y2="397.7734"/><line style="stroke: #A80036; stroke-width: 1.0; stroke-dasharray: 2.0,2.0;" x1="251.5" x2="711.5" y1="401.7734" y2="401.7734"/><text fill="#000000" font-family="sans-serif" font-size="13" lengthAdjust="spacingAndGlyphs" textLength="84" x="268.5" y="396.917">claim changed</text><line style="stroke: #A80036; stroke-width: 1.0;" x1="625.5" x2="667.5" y1="432.125" y2="432.125"/><line style="stroke: #A80036; stroke-width: 1.0;" x1="667.5" x2="667.5" y1="432.125" y2="445.125"/><line style="stroke: #A80036; stroke-width: 1.0;" x1="626.5" x2="667.5" y1="445.125" y2="445.125"/><polygon fill="#A80036" points="636.5,441.125,626.5,445.125,636.5,449.125,632.5,445.125" style="stroke: #A80036; stroke-width: 1.0;"/><text fill="#000000" font-family="sans-serif" font-size="13" lengthAdjust="spacingAndGlyphs" textLength="73" x="632.5" y="427.2686">decide claim</text><line style="stroke: #A80036; stroke-width: 1.0;" x1="251.5" x2="261.5" y1="475.4766" y2="471.4766"/><line style="stroke: #A80036; stroke-width: 1.0; stroke-dasharray: 2.0,2.0;" x1="251.5" x2="624.5" y1="475.4766" y2="475.4766"/><text fill="#000000" font-family="sans-serif" font-size="13" lengthAdjust="spacingAndGlyphs" textLength="84" x="268.5" y="470.6201">claim changed</text><polygon fill="#A80036" points="613.5,501.8281,623.5,505.8281,613.5,509.8281,617.5,505.8281" style="stroke: #A80036; stroke-width: 1.0;"/><line style="stroke: #A80036; stroke-width: 1.0;" x1="251.5" x2="619.5" y1="505.8281" y2="505.8281"/><text fill="#000000" font-family="sans-serif" font-size="13" lengthAdjust="spacingAndGlyphs" textLength="53" x="258.5" y="500.9717">get claim</text><polygon fill="#A80036" points="700.5,532.1797,710.5,536.1797,700.5,540.1797,704.5,536.1797" style="stroke: #A80036; stroke-width: 1.0;"/><line style="stroke: #A80036; stroke-width: 1.0;" x1="251.5" x2="706.5" y1="536.1797" y2="536.1797"/><text fill="#000000" font-family="sans-serif" font-size="13" lengthAdjust="spacingAndGlyphs" textLength="53" x="258.5" y="531.3232">get claim</text><line style="stroke: #A80036; stroke-width: 1.0;" x1="251.5" x2="293.5" y1="566.5313" y2="566.5313"/><line style="stroke: #A80036; stroke-width: 1.0;" x1="293.5" x2="293.5" y1="566.5313" y2="579.5313"/><line style="stroke: #A80036; stroke-width: 1.0;" x1="252.5" x2="293.5" y1="579.5313" y2="579.5313"/><polygon fill="#A80036" points="262.5,575.5313,252.5,579.5313,262.5,583.5313,258.5,579.5313" style="stroke: #A80036; stroke-width: 1.0;"/><text fill="#000000" font-family="sans-serif" font-size="13" lengthAdjust="spacingAndGlyphs" textLength="108" x="258.5" y="561.6748">combine decisions</text><line style="stroke: #A80036; stroke-width: 1.0;" x1="63.5" x2="73.5" y1="609.8828" y2="605.8828"/><line style="stroke: #A80036; stroke-width: 1.0; stroke-dasharray: 2.0,2.0;" x1="63.5" x2="250.5" y1="609.8828" y2="609.8828"/><text fill="#000000" font-family="sans-serif" font-size="13" lengthAdjust="spacingAndGlyphs" textLength="84" x="80.5" y="605.0264">claim changed</text><polygon fill="#A80036" points="239.5,636.2344,249.5,640.2344,239.5,644.2344,243.5,640.2344" style="stroke: #A80036; stroke-width: 1.0;"/><line style="stroke: #A80036; stroke-width: 1.0;" x1="63.5" x2="245.5" y1="640.2344" y2="640.2344"/><text fill="#000000" font-family="sans-serif" font-size="13" lengthAdjust="spacingAndGlyphs" textLength="147" x="70.5" y="635.3779">GET compensation claim</text><!--MD5=[6dd68833e2bba698bb1fb97bf39f4659]
@startuml
hide footbox

actor "TicketVendor:T1"
actor "Allocator:A1"
actor "Carrier:C1"
actor "Carrier:C2"

"TicketVendor:T1" -> "Allocator:A1": POST compensation claim

"Allocator:A1" -> "Allocator:A1": validate claim

"Allocator:A1" - -\\ "TicketVendor:T1": Bank account missing

"TicketVendor:T1" -> "Allocator:A1": PATCH compensation claim

"Allocator:A1" -> "Allocator:A1": retrieve the booking, select the affected carriers/fare providers

"Allocator:A1" -> "Carrier:C1": post a new compensation claim

"Allocator:A1" -> "Carrier:C2": post a new compensation claim

"Carrier:C2" -> "Carrier:C2": decide claim

"Carrier:C2" - -\\ "Allocator:A1": claim changed

"Carrier:C1" -> "Carrier:C1": decide claim

"Carrier:C1" - -\\ "Allocator:A1": claim changed

"Allocator:A1" -> "Carrier:C1": get claim

"Allocator:A1" -> "Carrier:C2": get claim

"Allocator:A1" -> "Allocator:A1": combine decisions

"Allocator:A1" - -\\ "TicketVendor:T1": claim changed

"TicketVendor:T1" -> "Allocator:A1": GET compensation claim

@enduml

PlantUML version 1.2019.12(Sun Nov 03 11:24:54 CET 2019)
(APACHE source distribution)
Java Runtime: OpenJDK Runtime Environment
JVM: OpenJDK 64-Bit Server VM
Java Version: 1.8.0_212-3-redhat-b04
Operating System: Windows 10
Default Encoding: Cp1252
Language: de
Country: DE
--></g></svg>